<svg width="28" height="16" viewBox="0 0 28 16" fill="none" xmlns="http://www.w3.org/2000/svg">
<path d="M27.7504 14.271C27.6752 14.1448 27.2096 13.1317 24.9695 11.0494C22.6243 8.86903 22.9393 9.22309 25.764 5.45294C27.4844 3.15684 28.1722 1.75465 27.9569 1.15521C27.7522 0.583812 26.4868 0.734548 26.4868 0.734548L22.2795 0.759087C22.2795 0.759087 21.968 0.717021 21.7352 0.855488C21.5095 0.992202 21.3642 1.3077 21.3642 1.3077C21.3642 1.3077 20.6974 3.08498 19.8083 4.59584C17.934 7.78409 17.1832 7.95235 16.8769 7.75429C16.1646 7.29332 16.3431 5.89989 16.3431 4.91134C16.3431 1.82125 16.8104 0.532983 15.4313 0.199961C14.9727 0.0895384 14.6367 0.0159232 13.4659 0.00365397C11.9643 -0.0121207 10.6919 0.00891219 9.97262 0.361214C9.49309 0.596082 9.12381 1.12015 9.34958 1.14995C9.62785 1.18676 10.2579 1.31997 10.5922 1.77568C11.0245 2.36285 11.0087 3.68442 11.0087 3.68442C11.0087 3.68442 11.2572 7.32136 10.4294 7.77357C9.86061 8.08381 9.08181 7.45106 7.41043 4.55728C6.55462 3.07621 5.90707 1.4374 5.90707 1.4374C5.90707 1.4374 5.78282 1.13242 5.56055 0.969416C5.29103 0.771356 4.913 0.708257 4.913 0.708257L0.912208 0.732796C0.912208 0.732796 0.311914 0.750324 0.0913974 1.01148C-0.104617 1.2446 0.0756462 1.72485 0.0756462 1.72485C0.0756462 1.72485 3.20838 9.06359 6.75414 12.7636C10.0076 16.1552 13.7004 15.9326 13.7004 15.9326H15.3735C15.3735 15.9326 15.8793 15.8765 16.1366 15.5978C16.3746 15.3419 16.3658 14.8617 16.3658 14.8617C16.3658 14.8617 16.3326 12.6129 17.3757 12.2816C18.403 11.9556 19.7226 14.455 21.1209 15.4173C22.178 16.1447 22.9813 15.9852 22.9813 15.9852L26.7214 15.9326C26.7214 15.9326 28.678 15.8117 27.7504 14.271Z" fill="white"/>
</svg>
