<svg width="13" height="24" viewBox="0 0 13 24" fill="none" xmlns="http://www.w3.org/2000/svg">
<path d="M6 14.475H2.85601C1.45703 14.475 0.757538 14.475 0.46223 14.0164C0.166922 13.5578 0.456373 12.921 1.03528 11.6474L5.54482 1.7264C5.91884 0.903554 6.10585 0.49213 6.30293 0.534819C6.5 0.577507 6.5 1.02944 6.5 1.93331V9.025C6.5 9.2607 6.5 9.37855 6.57322 9.45178C6.64645 9.525 6.7643 9.525 7 9.525H10.144C11.543 9.525 12.2425 9.525 12.5378 9.98361C12.8331 10.4422 12.5436 11.079 11.9647 12.3526L7.45518 22.2736C7.08116 23.0964 6.89415 23.5079 6.69708 23.4652C6.5 23.4225 6.5 22.9706 6.5 22.0667V14.975C6.5 14.7393 6.5 14.6214 6.42678 14.5482C6.35355 14.475 6.2357 14.475 6 14.475Z" fill="#EA525B"/>
</svg>
