<svg width="24" height="24" viewBox="0 0 24 24" fill="none" xmlns="http://www.w3.org/2000/svg">
<path d="M11.8335 11.6665C14.3188 11.6665 16.3335 9.65179 16.3335 7.1665C16.3335 4.68122 14.3188 2.6665 11.8335 2.6665C9.34821 2.6665 7.3335 4.68122 7.3335 7.1665C7.3335 9.65179 9.34821 11.6665 11.8335 11.6665Z" fill="#EA525B"/>
<path d="M3.3335 20.5557V20.5557C3.3335 21.3535 3.9802 22.0002 4.77794 22.0002H19.2224C20.0201 22.0002 20.6668 21.3535 20.6668 20.5557V20.5557C20.6668 17.7821 20.6668 17.0969 20.1631 16.0376C19.7199 15.1057 19.0128 14.3481 18.143 13.8732C17.1543 13.3335 15.8599 13.3335 13.2713 13.3335H10.7291C8.14038 13.3335 6.84604 13.3335 5.85728 13.8732C4.98755 14.3481 4.28043 15.1057 3.83729 16.0376C3.3335 17.0969 3.3335 17.7821 3.3335 20.5557Z" fill="url(#paint0_linear_1_75444)"/>
<defs>
<linearGradient id="paint0_linear_1_75444" x1="20.1853" y1="21.1877" x2="11.8418" y2="8.60215" gradientUnits="userSpaceOnUse">
<stop stop-color="#F37382"/>
<stop offset="1" stop-color="#FFF4F6"/>
</linearGradient>
</defs>
</svg>
