<svg width="24" height="24" viewBox="0 0 24 24" fill="none" xmlns="http://www.w3.org/2000/svg">
<path d="M12.0002 7.41673C14.3002 7.41673 16.1668 9.2834 16.1668 11.5834C16.1668 12.0084 16.0835 12.4167 15.9668 12.8001L18.5168 15.3501C19.6752 14.3251 20.5918 13.0417 21.1668 11.5751C19.7252 7.92507 16.1668 5.3334 12.0002 5.3334C10.9418 5.3334 9.92516 5.50007 8.96683 5.8084L10.7752 7.61673C11.1668 7.50007 11.5752 7.41673 12.0002 7.41673ZM4.2585 4.6334C3.9335 4.9584 3.9335 5.4834 4.2585 5.8084L5.90016 7.45007C4.55016 8.52507 3.47516 9.94173 2.8335 11.5834C4.27516 15.2417 7.8335 17.8334 12.0002 17.8334C13.2668 17.8334 14.4752 17.5834 15.5918 17.1501L17.8585 19.4167C18.1835 19.7417 18.7085 19.7417 19.0335 19.4167C19.3585 19.0917 19.3585 18.5667 19.0335 18.2417L5.44183 4.6334C5.11683 4.3084 4.5835 4.3084 4.2585 4.6334ZM12.0002 15.7501C9.70016 15.7501 7.8335 13.8834 7.8335 11.5834C7.8335 10.9417 7.9835 10.3334 8.24183 9.80007L9.55016 11.1084C9.52516 11.2584 9.50016 11.4167 9.50016 11.5834C9.50016 12.9667 10.6168 14.0834 12.0002 14.0834C12.1668 14.0834 12.3168 14.0584 12.4752 14.0251L13.7835 15.3334C13.2418 15.6001 12.6418 15.7501 12.0002 15.7501ZM14.4752 11.3084C14.3502 10.1417 13.4335 9.2334 12.2752 9.1084L14.4752 11.3084Z" fill="#CBD0D2"/>
</svg>
