<svg width="9" height="10" viewBox="0 0 9 10" fill="none" xmlns="http://www.w3.org/2000/svg">
<path fill-rule="evenodd" clip-rule="evenodd" d="M0.146447 0.646447C0.341709 0.451184 0.658291 0.451184 0.853553 0.646447L4.5 4.29289L8.14645 0.646447C8.34171 0.451184 8.65829 0.451184 8.85355 0.646447C9.04882 0.841709 9.04882 1.15829 8.85355 1.35355L5.20711 5L8.85355 8.64645C9.04882 8.84171 9.04882 9.15829 8.85355 9.35355C8.65829 9.54882 8.34171 9.54882 8.14645 9.35355L4.5 5.70711L0.853553 9.35355C0.658291 9.54882 0.341709 9.54882 0.146447 9.35355C-0.0488155 9.15829 -0.0488155 8.84171 0.146447 8.64645L3.79289 5L0.146447 1.35355C-0.0488155 1.15829 -0.0488155 0.841709 0.146447 0.646447Z" fill="white"/>
</svg>
