<svg width="20" height="20" viewBox="0 0 20 20" fill="none" xmlns="http://www.w3.org/2000/svg">
<path fill-rule="evenodd" clip-rule="evenodd" d="M7.02902 13.7683L6.66502 18.6266C6.63943 18.968 6.94293 19.2031 7.21439 19.051C9.13639 17.9744 15.157 14.0201 18.2084 5.32926C18.3483 4.93059 17.9723 4.57084 17.6513 4.79571C15.8488 6.05805 11.9096 8.66705 9.47522 9.16405C9.47522 9.16405 11.0342 8.08121 11.9673 6.41901C12.0588 6.25609 12.0512 6.04746 11.9492 5.90038L8.54631 0.995652C8.34464 0.70491 7.93077 0.825368 7.85793 1.19597L6.79856 6.58651L1.82617 10.9262C1.57686 11.1437 1.62772 11.5833 1.91556 11.6997L7.02902 13.7683Z" fill="#EA525B"/>
<path fill-rule="evenodd" clip-rule="evenodd" d="M15.8228 11.8536C15.5079 12.2929 14.8296 13.1968 14.2033 13.7491C14.078 13.8596 14.0949 14.0447 14.2386 14.135L17.5478 16.2123C17.747 16.3374 18.0161 16.1889 17.9824 15.972C17.8285 14.9792 17.385 12.9093 16.2638 11.8228C16.1385 11.7015 15.9227 11.7142 15.8228 11.8536Z" fill="#EA525B"/>
</svg>
