<svg width="16" height="16" viewBox="0 0 16 16" fill="none" xmlns="http://www.w3.org/2000/svg">
<path d="M6.54545 5.81818C6.94712 5.81818 7.27273 6.14379 7.27273 6.54545V11.2727C7.27273 11.6744 6.94712 12 6.54545 12C6.14379 12 5.81818 11.6744 5.81818 11.2727V6.54545C5.81818 6.14379 6.14379 5.81818 6.54545 5.81818Z" fill="#979B9C"/>
<path d="M10.1818 6.54545C10.1818 6.14379 9.85621 5.81818 9.45455 5.81818C9.05288 5.81818 8.72727 6.14379 8.72727 6.54545V11.2727C8.72727 11.6744 9.05288 12 9.45455 12C9.85621 12 10.1818 11.6744 10.1818 11.2727V6.54545Z" fill="#979B9C"/>
<path fill-rule="evenodd" clip-rule="evenodd" d="M6.28691 0C6.02131 0 5.77684 0.144784 5.64917 0.377684L4.6602 2.18182H0.727273C0.325611 2.18182 0 2.50743 0 2.90909C0 3.31075 0.325611 3.63636 0.727273 3.63636H1.81818V15.2727C1.81818 15.6744 2.14379 16 2.54545 16H13.4545C13.8562 16 14.1818 15.6744 14.1818 15.2727V3.63636H15.2727C15.6744 3.63636 16 3.31075 16 2.90909C16 2.50743 15.6744 2.18182 15.2727 2.18182H11.344L10.3778 0.383124C10.2511 0.147191 10.0049 0 9.73713 0H6.28691ZM9.69288 2.18182L9.30223 1.45455H6.71762L6.31895 2.18182H9.69288ZM3.27273 3.63636V14.5455H12.7273V3.63636H3.27273Z" fill="#979B9C"/>
</svg>
