<svg width="37" height="37" viewBox="0 0 37 37" fill="none" xmlns="http://www.w3.org/2000/svg">
<path fill-rule="evenodd" clip-rule="evenodd" d="M24.0126 0.842978C24.7898 0.394249 25.7836 0.660547 26.2324 1.43777L29.516 7.12527H33.125C34.92 7.12527 36.375 8.58032 36.375 10.3753V33.1253C36.375 34.9202 34.92 36.3753 33.125 36.3753H3.875C2.08009 36.3753 0.625 34.9202 0.625 33.1253V10.3753C0.625 8.5803 2.08009 7.12527 3.875 7.12527H13.1313L24.0126 0.842978ZM25.7563 7.11319L24.2303 4.47006L19.6637 7.10658L25.7563 7.11319ZM33.125 27.4378H27.6406C24.4629 27.4378 21.75 24.9652 21.75 21.7503C21.75 18.5354 24.4629 16.0628 27.6406 16.0628H33.125V10.3753H3.875V33.1253H33.125V27.4378ZM33.125 19.3128H27.6406C26.1066 19.3128 25 20.4779 25 21.7503C25 23.0226 26.1066 24.1878 27.6406 24.1878H33.125V19.3128Z" fill="#EA525B"/>
</svg>
