<svg width="28" height="17" viewBox="0 0 28 17" fill="none" xmlns="http://www.w3.org/2000/svg">
<path d="M27.7504 14.771C27.6752 14.6448 27.2096 13.6317 24.9695 11.5494C22.6243 9.36903 22.9393 9.72309 25.764 5.95294C27.4844 3.65684 28.1722 2.25465 27.9569 1.65521C27.7522 1.08381 26.4868 1.23455 26.4868 1.23455L22.2795 1.25909C22.2795 1.25909 21.968 1.21702 21.7352 1.35549C21.5095 1.4922 21.3642 1.8077 21.3642 1.8077C21.3642 1.8077 20.6974 3.58498 19.8083 5.09584C17.934 8.28409 17.1832 8.45235 16.8769 8.25429C16.1646 7.79332 16.3431 6.39989 16.3431 5.41134C16.3431 2.32125 16.8104 1.03298 15.4313 0.699961C14.9727 0.589538 14.6367 0.515923 13.4659 0.503654C11.9643 0.487879 10.6919 0.508912 9.97262 0.861214C9.49309 1.09608 9.12381 1.62015 9.34958 1.64995C9.62785 1.68676 10.2579 1.81997 10.5922 2.27568C11.0245 2.86285 11.0087 4.18442 11.0087 4.18442C11.0087 4.18442 11.2572 7.82136 10.4294 8.27357C9.86061 8.58381 9.08181 7.95106 7.41043 5.05728C6.55462 3.57621 5.90707 1.9374 5.90707 1.9374C5.90707 1.9374 5.78282 1.63242 5.56055 1.46942C5.29103 1.27136 4.913 1.20826 4.913 1.20826L0.912208 1.2328C0.912208 1.2328 0.311914 1.25032 0.0913974 1.51148C-0.104617 1.7446 0.0756462 2.22485 0.0756462 2.22485C0.0756462 2.22485 3.20838 9.56359 6.75414 13.2636C10.0076 16.6552 13.7004 16.4326 13.7004 16.4326H15.3735C15.3735 16.4326 15.8793 16.3765 16.1366 16.0978C16.3746 15.8419 16.3658 15.3617 16.3658 15.3617C16.3658 15.3617 16.3326 13.1129 17.3757 12.7816C18.403 12.4556 19.7226 14.955 21.1209 15.9173C22.178 16.6447 22.9813 16.4852 22.9813 16.4852L26.7214 16.4326C26.7214 16.4326 28.678 16.3117 27.7504 14.771Z" fill="white"/>
</svg>
