<svg width="36" height="36" viewBox="0 0 36 36" fill="none" xmlns="http://www.w3.org/2000/svg">
<mask id="path-1-inside-1_24_7816" fill="white">
<path d="M12 26.2273C12 26.6223 12.2664 26.9694 12.6528 27.0779L22.8528 29.9426C23.4277 30.104 24 29.6797 24 29.0919V11.2727C24 10.8777 23.7336 10.5306 23.3472 10.4221L13.1472 7.55744C12.5723 7.39597 12 7.82031 12 8.40807V26.2273Z"/>
</mask>
<path d="M31.6975 7.59454L31.2564 6.69708L31.6975 7.59454ZM32.5025 26.8583L32.0614 25.9608L32.5025 26.8583ZM27.3025 29.414L27.7436 30.3114L27.3025 29.414ZM26.4975 10.1503L26.9386 11.0477V11.0477L26.4975 10.1503ZM9.50249 27.3497L9.0614 26.4523H9.0614L9.50249 27.3497ZM4.30249 29.9055L4.74358 30.8029L4.30249 29.9055ZM3.49751 10.6417L3.9386 11.5392L3.49751 10.6417ZM8.69751 8.08602L8.25642 7.18856L8.69751 8.08602ZM8.25642 7.18856L3.05642 9.74428L3.9386 11.5392L9.1386 8.98349L8.25642 7.18856ZM2 11.433V29.1142H4V11.433H2ZM4.74358 30.8029L9.94358 28.2472L9.0614 26.4523L3.8614 29.008L4.74358 30.8029ZM11 26.5585V8.8773H9V26.5585H11ZM25 10.9415V28.6227H27V10.9415H25ZM27.7436 30.3114L32.9436 27.7557L32.0614 25.9608L26.8614 28.5165L27.7436 30.3114ZM34 26.067V8.38581H32V26.067H34ZM31.2564 6.69708L26.0564 9.25279L26.9386 11.0477L32.1386 8.492L31.2564 6.69708ZM34 8.38581C34 6.95994 32.4942 6.08874 31.2564 6.69708L32.1386 8.492C32.1293 8.49655 32.1125 8.50096 32.0935 8.49982C32.0771 8.49883 32.0641 8.49408 32.054 8.48792C32.0438 8.48176 32.0305 8.4705 32.0189 8.45075C32.0058 8.42854 32 8.40393 32 8.38581H34ZM32.9436 27.7557C33.5846 27.4407 34 26.79 34 26.067H32C32 26.0141 32.0302 25.9761 32.0614 25.9608L32.9436 27.7557ZM25 28.6227C25 30.0486 26.5058 30.9198 27.7436 30.3114L26.8614 28.5165C26.8707 28.512 26.8875 28.5076 26.9065 28.5087C26.9229 28.5097 26.9359 28.5144 26.946 28.5206C26.9562 28.5268 26.9695 28.538 26.9811 28.5578C26.9942 28.58 27 28.6046 27 28.6227H25ZM27 10.9415C27 10.9944 26.9698 11.0324 26.9386 11.0477L26.0564 9.25279C25.4154 9.56782 25 10.2185 25 10.9415H27ZM9.94358 28.2472C10.5846 27.9322 11 27.2815 11 26.5585H9C9 26.5056 9.03024 26.4676 9.0614 26.4523L9.94358 28.2472ZM2 29.1142C2 30.5401 3.50584 31.4113 4.74358 30.8029L3.8614 29.008C3.87065 29.0035 3.88751 28.999 3.90646 29.0002C3.92291 29.0012 3.9359 29.0059 3.94605 29.0121C3.95619 29.0182 3.96946 29.0295 3.98109 29.0493C3.99416 29.0715 4 29.0961 4 29.1142H2ZM3.05642 9.74428C2.41544 10.0593 2 10.71 2 11.433H4C4 11.4859 3.96976 11.5239 3.9386 11.5392L3.05642 9.74428ZM9.1386 8.98349C9.12935 8.98803 9.11249 8.99244 9.09354 8.9913C9.07709 8.99031 9.0641 8.98556 9.05395 8.9794C9.04381 8.97324 9.03054 8.96198 9.01891 8.94223C9.00584 8.92003 9 8.89541 9 8.8773H11C11 7.45142 9.49416 6.58023 8.25642 7.18856L9.1386 8.98349ZM13.1472 7.55744L13.688 5.63193L13.1472 7.55744ZM23.3472 10.4221L22.8065 12.3476L23.3472 10.4221ZM22.8528 29.9426L23.3935 28.0171L22.8528 29.9426ZM12.6528 27.0779L12.112 29.0034L12.6528 27.0779ZM12.112 29.0034L22.312 31.8681L23.3935 28.0171L13.1935 25.1524L12.112 29.0034ZM26 29.0919V11.2727H22V29.0919H26ZM23.888 8.49658L13.688 5.63193L12.6065 9.48294L22.8065 12.3476L23.888 8.49658ZM10 8.40807V26.2273H14V8.40807H10ZM13.688 5.63193C11.8822 5.12477 10 6.44916 10 8.40807H14C14 9.19146 13.2624 9.66716 12.6065 9.48294L13.688 5.63193ZM26 11.2727C26 9.96134 25.1178 8.84197 23.888 8.49658L22.8065 12.3476C22.3494 12.2192 22 11.7941 22 11.2727H26ZM22.312 31.8681C24.1178 32.3752 26 31.0508 26 29.0919H22C22 28.3085 22.7376 27.8328 23.3935 28.0171L22.312 31.8681ZM13.1935 25.1524C13.6506 25.2808 14 25.7059 14 26.2273H10C10 27.5387 10.8822 28.658 12.112 29.0034L13.1935 25.1524Z" fill="#E1DCDC" mask="url(#path-1-inside-1_24_7816)"/>
<path d="M10 8.8773C10 8.21965 9.29592 7.79191 8.69751 8.08602L3.49751 10.6417C3.1926 10.7916 3 11.0979 3 11.433V29.1142C3 29.7718 3.70408 30.1996 4.30249 29.9055L9.50249 27.3497C9.8074 27.1999 10 26.8936 10 26.5585V8.8773Z" fill="#E1DCDC"/>
<path d="M26.4975 10.1503C26.1926 10.3001 26 10.6064 26 10.9415V28.6227C26 29.2804 26.7041 29.7081 27.3025 29.414L32.5025 26.8583C32.8074 26.7084 33 26.4021 33 26.067V8.38581C33 7.72816 32.2959 7.30043 31.6975 7.59454L26.4975 10.1503Z" fill="#E1DCDC"/>
</svg>
