<svg width="25" height="24" viewBox="0 0 25 24" fill="none" xmlns="http://www.w3.org/2000/svg">
<path fill-rule="evenodd" clip-rule="evenodd" d="M16.3474 2C16.6127 1.99995 16.8672 2.10537 17.0548 2.29305L20.7073 5.9471C21.0976 6.33759 21.0976 6.97051 20.7073 7.361L10.3659 17.707C10.1783 17.8946 9.92389 18 9.6586 18H6C5.44772 18 5 17.5523 5 17V13.36C5 13.0949 5.10519 12.8408 5.29247 12.6533L15.64 2.29332C15.8275 2.10557 16.082 2.00005 16.3474 2ZM16.3478 4.41479L7 13.7738V16H9.24426L18.5861 6.65405L16.3478 4.41479ZM3 21C3 20.4477 3.44772 20 4 20H22C22.5523 20 23 20.4477 23 21C23 21.5523 22.5523 22 22 22H4C3.44772 22 3 21.5523 3 21Z" fill="white"/>
</svg>
