<svg width="33" height="35" viewBox="0 0 33 35" fill="none" xmlns="http://www.w3.org/2000/svg">
<path d="M11.9861 13.6002C11.9861 12.7027 11.2586 11.9752 10.3611 11.9752C9.46366 11.9752 8.73612 12.7027 8.73612 13.6002C8.73612 17.899 12.2032 21.4001 16.5 21.4001C20.7969 21.4001 24.2639 17.8989 24.2639 13.6002C24.2639 12.7027 23.5364 11.9752 22.6389 11.9752C21.7414 11.9752 21.0139 12.7027 21.0139 13.6002C21.0139 16.122 18.984 18.1501 16.5 18.1501C14.016 18.1501 11.9861 16.122 11.9861 13.6002Z" fill="#EA525B"/>
<path fill-rule="evenodd" clip-rule="evenodd" d="M5.17656 1.09116C5.48326 0.679823 5.96621 0.4375 6.47929 0.4375H26.5209C27.034 0.4375 27.5169 0.679823 27.8236 1.09116L32.4101 7.24239C32.5592 7.4347 32.6661 7.66139 32.7168 7.90854C32.7404 8.02283 32.7514 8.13876 32.7501 8.25424V31.3122C32.7501 33.107 31.2951 34.5622 29.5001 34.5622H3.5001C1.70514 34.5622 0.250099 33.107 0.250099 31.3122V8.25422C0.248826 8.13875 0.259808 8.02283 0.283349 7.90854C0.334114 7.66137 0.441003 7.43467 0.590112 7.24235L5.17656 1.09116ZM25.7056 3.6875L27.8862 6.61218H5.11395L7.29465 3.6875H25.7056ZM3.5001 9.86218V31.3122H29.5001V9.86218H3.5001Z" fill="#EA525B"/>
</svg>
