<svg width="48" height="48" viewBox="0 0 48 48" fill="none" xmlns="http://www.w3.org/2000/svg">
<circle cx="24" cy="24" r="24" fill="#EA525B"/>
<path fill-rule="evenodd" clip-rule="evenodd" d="M13 21.5C13 17.9102 15.9101 15 19.5 15C21.247 15 22.8329 15.6898 24 16.8097C25.1671 15.6898 26.753 15 28.5 15C32.0898 15 35 17.9102 35 21.5C35 24.6341 33.164 27.4994 31.0231 29.6615C28.8724 31.8335 26.2421 33.4718 24.3154 34.1121C24.1106 34.1801 23.8894 34.1801 23.6846 34.1121C21.7579 33.4718 19.1276 31.8335 16.9769 29.6615C14.836 27.4994 13 24.6341 13 21.5ZM19.5 17C17.0147 17 15 19.0147 15 21.5C15 23.8659 16.414 26.2506 18.3981 28.2543C20.2445 30.119 22.4368 31.5021 24 32.1011C25.5632 31.5021 27.7555 30.119 29.6019 28.2543C31.586 26.2506 33 23.8659 33 21.5C33 19.0147 30.9853 17 28.5 17C26.9789 17 25.6337 17.7538 24.8176 18.9127C24.6303 19.1787 24.3253 19.3369 24 19.3369C23.6747 19.3369 23.3697 19.1787 23.1824 18.9127C22.3663 17.7538 21.0211 17 19.5 17Z" fill="white"/>
<path d="M19.5 16C16.4624 16 14 18.4625 14 21.5C14 27 20.5 32 24 33.1631C27.5 32 34 27 34 21.5C34 18.4625 31.5375 16 28.5 16C26.6398 16 24.9953 16.9235 24 18.3369C23.0047 16.9235 21.3601 16 19.5 16Z" fill="white" stroke="white" stroke-width="2" stroke-linecap="round" stroke-linejoin="round"/>
</svg>
