<svg width="34" height="35" viewBox="0 0 34 35" fill="none" xmlns="http://www.w3.org/2000/svg">
<path d="M5.66602 23.8379V14.7473C5.66602 14.6358 5.78336 14.5632 5.8831 14.6131L15.6577 19.5004C16.5023 19.9227 17.4964 19.9227 18.341 19.5004L28.1156 14.6131C28.2153 14.5632 28.3327 14.6358 28.3327 14.7473V23.8379C28.3327 24.9425 27.4373 25.8379 26.3327 25.8379H7.66602C6.56145 25.8379 5.66602 24.9425 5.66602 23.8379Z" fill="url(#paint0_linear_4_69041)"/>
<path d="M5.66602 10.8377V12.995C5.66602 13.0518 5.69812 13.1038 5.74893 13.1292L15.6577 18.0836C16.5023 18.5059 17.4964 18.5059 18.341 18.0836L28.2498 13.1292C28.3006 13.1038 28.3327 13.0518 28.3327 12.995V10.8377C28.3327 9.73316 27.4373 8.83773 26.3327 8.83773H7.66602C6.56145 8.83773 5.66602 9.73316 5.66602 10.8377Z" fill="#EA525B"/>
<defs>
<linearGradient id="paint0_linear_4_69041" x1="27.703" y1="15.5671" x2="16.7923" y2="32.025" gradientUnits="userSpaceOnUse">
<stop stop-color="#F37382"/>
<stop offset="1" stop-color="#FFC0C8" stop-opacity="0.22"/>
</linearGradient>
</defs>
</svg>
