<svg width="26" height="33" viewBox="0 0 26 33" fill="none" xmlns="http://www.w3.org/2000/svg">
<path d="M22.2433 11.108H20.7028V8.02692C20.7028 3.77503 17.252 0.324219 13.0001 0.324219C8.74821 0.324219 5.2974 3.77503 5.2974 8.02692V11.108H3.75686C2.06227 11.108 0.675781 12.4945 0.675781 14.1891V29.5945C0.675781 31.2891 2.06227 32.6756 3.75686 32.6756H22.2433C23.9379 32.6756 25.3244 31.2891 25.3244 29.5945V14.1891C25.3244 12.4945 23.9379 11.108 22.2433 11.108ZM13.0001 24.9729C11.3055 24.9729 9.91902 23.5864 9.91902 21.8918C9.91902 20.1972 11.3055 18.8107 13.0001 18.8107C14.6947 18.8107 16.0812 20.1972 16.0812 21.8918C16.0812 23.5864 14.6947 24.9729 13.0001 24.9729ZM8.37848 11.108V8.02692C8.37848 5.46962 10.4428 3.4053 13.0001 3.4053C15.5574 3.4053 17.6217 5.46962 17.6217 8.02692V11.108H8.37848Z" fill="#EA525B"/>
</svg>
