<svg width="18" height="18" viewBox="0 0 18 18" fill="none" xmlns="http://www.w3.org/2000/svg">
<path d="M7.40019 6.60019C7.84202 6.60019 8.20019 6.95837 8.20019 7.40019V12.6002C8.20019 13.042 7.84202 13.4002 7.40019 13.4002C6.95837 13.4002 6.60019 13.042 6.60019 12.6002V7.40019C6.60019 6.95837 6.95837 6.60019 7.40019 6.60019Z" fill="#EB5A5A"/>
<path d="M11.4002 7.40019C11.4002 6.95837 11.042 6.60019 10.6002 6.60019C10.1584 6.60019 9.80019 6.95837 9.80019 7.40019V12.6002C9.80019 13.042 10.1584 13.4002 10.6002 13.4002C11.042 13.4002 11.4002 13.042 11.4002 12.6002V7.40019Z" fill="#EB5A5A"/>
<path fill-rule="evenodd" clip-rule="evenodd" d="M7.11579 0.200195C6.82364 0.200195 6.55471 0.359458 6.41428 0.615648L5.32642 2.6002H1.0002C0.558367 2.6002 0.200195 2.95837 0.200195 3.4002C0.200195 3.84202 0.558367 4.2002 1.0002 4.2002H2.2002V17.0002C2.2002 17.442 2.55837 17.8002 3.0002 17.8002H15.0002C15.442 17.8002 15.8002 17.442 15.8002 17.0002V4.2002H17.0002C17.442 4.2002 17.8002 3.84202 17.8002 3.4002C17.8002 2.95837 17.442 2.6002 17.0002 2.6002H12.6786L11.6158 0.621632C11.4764 0.362105 11.2056 0.200195 10.911 0.200195H7.11579ZM10.8624 2.6002L10.4326 1.8002H7.58957L7.15104 2.6002H10.8624ZM3.8002 4.2002V16.2002H14.2002V4.2002H3.8002Z" fill="#EB5A5A"/>
</svg>
