<svg width="18" height="22" viewBox="0 0 18 22" fill="none" xmlns="http://www.w3.org/2000/svg">
<path fill-rule="evenodd" clip-rule="evenodd" d="M0 1C0 0.447715 0.447715 0 1 0H17C17.5523 0 18 0.447715 18 1V11C18 11.5523 17.5523 12 17 12C16.4477 12 16 11.5523 16 11V2H2V20H9C9.55229 20 10 20.4477 10 21C10 21.5523 9.55229 22 9 22H1C0.447715 22 0 21.5523 0 21V1ZM4 7.00001C4 6.44773 4.44772 6.00001 5 6.00001H13C13.5523 6.00001 14 6.44773 14 7.00001C14 7.5523 13.5523 8.00002 13 8.00002H5C4.44772 8.00002 4 7.5523 4 7.00001ZM4 11C4 10.4477 4.44772 10 5 10H9C9.55229 10 10 10.4477 10 11C10 11.5523 9.55229 12 9 12H5C4.44772 12 4 11.5523 4 11ZM14.75 13C15.0152 13 15.2696 13.1054 15.4571 13.2929L17.7071 15.5429C18.0976 15.9334 18.0976 16.5666 17.7071 16.9571C17.3166 17.3476 16.6834 17.3476 16.2929 16.9571L15.75 16.4142V21C15.75 21.5523 15.3023 22 14.75 22C14.1977 22 13.75 21.5523 13.75 21V16.4142L13.2071 16.9571C12.8166 17.3476 12.1834 17.3476 11.7929 16.9571C11.4024 16.5666 11.4024 15.9334 11.7929 15.5429L14.0429 13.2929C14.2304 13.1054 14.4848 13 14.75 13Z" fill="#EA525B"/>
</svg>
