<svg width="24" height="24" viewBox="0 0 24 24" fill="none" xmlns="http://www.w3.org/2000/svg">
<path d="M12.0002 5.75C7.8335 5.75 4.27516 8.34167 2.8335 12C4.27516 15.6583 7.8335 18.25 12.0002 18.25C16.1668 18.25 19.7252 15.6583 21.1668 12C19.7252 8.34167 16.1668 5.75 12.0002 5.75ZM12.0002 16.1667C9.70016 16.1667 7.8335 14.3 7.8335 12C7.8335 9.7 9.70016 7.83333 12.0002 7.83333C14.3002 7.83333 16.1668 9.7 16.1668 12C16.1668 14.3 14.3002 16.1667 12.0002 16.1667ZM12.0002 9.5C10.6168 9.5 9.50016 10.6167 9.50016 12C9.50016 13.3833 10.6168 14.5 12.0002 14.5C13.3835 14.5 14.5002 13.3833 14.5002 12C14.5002 10.6167 13.3835 9.5 12.0002 9.5Z" fill="#CBD0D2"/>
</svg>
