<svg width="237" height="282" viewBox="0 0 237 282" fill="none" xmlns="http://www.w3.org/2000/svg">
<g clip-path="url(#clip0_4_66157)">
<path d="M1.62479 150.761C1.62479 150.761 3.67774 192.83 39.2041 219.829C74.7305 246.828 123.347 247.358 162.72 248.83C202.093 250.302 231.934 227.059 235.927 193.18C239.92 159.3 209.707 150.316 192.764 112.393C175.822 74.4692 177.091 61.813 142.174 39.2361C107.256 16.6592 53.5748 32.8065 25.9388 74.1365C-1.69717 115.466 1.62479 150.761 1.62479 150.761Z" fill="#F8F8F8"/>
<path d="M86.792 190.937C90.3133 190.41 93.8996 191.303 96.7635 193.418C101.371 196.96 104.874 205.967 106.684 218.578C108.495 231.189 109.504 236.626 120.147 238.42C130.79 240.213 156.294 239.486 171.527 239.131C186.761 238.775 186.056 224.602 173.304 223.186C160.552 221.771 151.72 225.172 138.415 222.227C125.11 219.283 150.259 215.386 169.401 218.223C188.543 221.06 197.037 221.765 207.319 220.705" stroke="#1C1D21" stroke-width="1.51" stroke-linecap="round" stroke-linejoin="round"/>
<path d="M86.792 172.077C86.792 172.077 97.1188 172.156 99.9501 182.793C102.781 193.43 103.847 208.308 104.203 220.017C104.558 231.725 104.913 241.635 118.376 244.466C131.839 247.297 168.341 246.237 178.262 244.111C188.182 241.984 199.169 232.419 191.019 230.293C182.869 228.166 171.527 230.293 175.791 233.113C180.055 235.933 191.386 235.239 204.848 233.468" stroke="#1C1D21" stroke-width="1.51" stroke-linecap="round" stroke-linejoin="round"/>
<path d="M88.9127 209.07C88.9127 209.07 95.2238 208.506 97.6885 215.651C100.153 222.797 97.1245 224.427 98.5119 227.992C99.8994 231.556 108.54 228.229 108.5 231.184C108.461 233.88 105.043 234.641 85.3482 233.479C59.5959 231.962 42.5575 235.95 43.928 238.42C45.2985 240.89 65.8733 238.984 60.9326 242.808C55.992 246.632 43.928 242.244 34.5995 241.985C25.2709 241.725 23.624 243.902 23.624 243.902" stroke="#1C1D21" stroke-width="1.51" stroke-linecap="round" stroke-linejoin="round"/>
<path d="M89.6741 108.316H27.668C26.5591 108.316 25.6602 109.215 25.6602 110.324V227.794C25.6602 228.903 26.5591 229.802 27.668 229.802H89.6741C90.7831 229.802 91.682 228.903 91.682 227.794V110.324C91.682 109.215 90.7831 108.316 89.6741 108.316Z" fill="#1C1D21" stroke="#1C1D21" stroke-width="1.25654" stroke-linecap="round" stroke-linejoin="round"/>
<path d="M90.0745 126.511H27.2393V173.047H90.0745V126.511Z" fill="#616161"/>
<path d="M90.0745 180.61H27.2393V227.145H90.0745V180.61Z" fill="#616161"/>
<path d="M82.2804 186.278H46.6074V222.656H82.2804V186.278Z" fill="#EA525B" stroke="#1C1D21" stroke-width="1.25654" stroke-linecap="round" stroke-linejoin="round"/>
<path d="M82.2804 131.711H46.6074V140.69H82.2804V131.711Z" fill="#EA525B" stroke="#1C1D21" stroke-width="1.25654" stroke-linecap="round" stroke-linejoin="round"/>
<path d="M82.2804 148.953H46.6074V157.932H82.2804V148.953Z" fill="#EA525B" stroke="#1C1D21" stroke-width="1.25654" stroke-linecap="round" stroke-linejoin="round"/>
<path d="M81.0839 127.555L80.3958 129.444H48.7949L48.1068 127.555H41.4121V135.857H48.1068L48.7949 133.967H80.3958L81.0839 135.857H88.664V127.555H81.0839Z" fill="#1C1D21" stroke="#1C1D21" stroke-width="1.25654" stroke-linecap="round" stroke-linejoin="round"/>
<path d="M81.0839 136.612L80.3958 138.496H48.7949L48.1068 136.612H41.4121V144.909H48.1068L48.7949 143.025H80.3958L81.0839 144.909H88.664V136.612H81.0839Z" fill="#1C1D21" stroke="#1C1D21" stroke-width="1.25654" stroke-linecap="round" stroke-linejoin="round"/>
<path d="M81.0839 145.665L80.3958 147.554H48.7949L48.1068 145.665H41.4121V153.967H48.1068L48.7949 152.077H80.3958L81.0839 153.967H88.664V145.665H81.0839Z" fill="#1C1D21" stroke="#1C1D21" stroke-width="1.25654" stroke-linecap="round" stroke-linejoin="round"/>
<path d="M81.0839 154.717L80.3958 156.606H48.7949L48.1068 154.717H41.4121V163.019H48.1068L48.7949 161.135H80.3958L81.0839 163.019H88.664V154.717H81.0839Z" fill="#1C1D21" stroke="#1C1D21" stroke-width="1.25654" stroke-linecap="round" stroke-linejoin="round"/>
<path d="M81.0839 163.774L80.3958 165.658H48.7949L48.1068 163.774H41.4121V172.076H48.1068L48.7949 170.187H80.3958L81.0839 172.076H88.664V163.774H81.0839Z" fill="#1C1D21" stroke="#1C1D21" stroke-width="1.25654" stroke-linecap="round" stroke-linejoin="round"/>
<path d="M81.0839 181.885L80.3958 183.769H48.7949L48.1068 181.885H41.4121V190.181H48.1068L48.7949 188.297H80.3958L81.0839 190.181H88.664V181.885H81.0839Z" fill="#1C1D21" stroke="#1C1D21" stroke-width="1.25654" stroke-linecap="round" stroke-linejoin="round"/>
<path d="M81.0839 190.937L80.3958 192.826H48.7949L48.1068 190.937H41.4121V199.239H48.1068L48.7949 197.355H80.3958L81.0839 199.239H88.664V190.937H81.0839Z" fill="#1C1D21" stroke="#1C1D21" stroke-width="1.25654" stroke-linecap="round" stroke-linejoin="round"/>
<path d="M81.0839 199.995L80.3958 201.878H48.7949L48.1068 199.995H41.4121V208.291H48.1068L48.7949 206.407H80.3958L81.0839 208.291H88.664V199.995H81.0839Z" fill="#1C1D21" stroke="#1C1D21" stroke-width="1.25654" stroke-linecap="round" stroke-linejoin="round"/>
<path d="M81.0839 209.047L80.3958 210.936H48.7949L48.1068 209.047H41.4121V217.349H48.1068L48.7949 215.46H80.3958L81.0839 217.349H88.664V209.047H81.0839Z" fill="#1C1D21" stroke="#1C1D21" stroke-width="1.25654" stroke-linecap="round" stroke-linejoin="round"/>
<path d="M81.0839 218.104L80.3958 219.988H48.7949L48.1068 218.104H41.4121V226.401H48.1068L48.7949 224.517H80.3958L81.0839 226.401H88.664V218.104H81.0839Z" fill="#1C1D21" stroke="#1C1D21" stroke-width="1.25654" stroke-linecap="round" stroke-linejoin="round"/>
<path d="M88.6535 174.496H28.5029V180.164H88.6535V174.496Z" fill="white"/>
<path d="M33.5789 177.271C33.5789 176.957 33.4859 176.651 33.3118 176.39C33.1376 176.13 32.8901 175.927 32.6005 175.807C32.3109 175.687 31.9923 175.655 31.6848 175.716C31.3774 175.778 31.095 175.929 30.8734 176.15C30.6517 176.372 30.5008 176.654 30.4396 176.962C30.3785 177.269 30.4099 177.588 30.5298 177.877C30.6498 178.167 30.8529 178.414 31.1135 178.589C31.3742 178.763 31.6806 178.856 31.994 178.856C32.2021 178.856 32.4082 178.815 32.6005 178.735C32.7928 178.655 32.9675 178.539 33.1147 178.391C33.2618 178.244 33.3786 178.07 33.4582 177.877C33.5379 177.685 33.5789 177.479 33.5789 177.271Z" fill="#1C1D21" stroke="#1C1D21" stroke-width="1.25654" stroke-linecap="round" stroke-linejoin="round"/>
<path d="M37.2723 178.856C38.1476 178.856 38.8572 178.146 38.8572 177.271C38.8572 176.396 38.1476 175.686 37.2723 175.686C36.3971 175.686 35.6875 176.396 35.6875 177.271C35.6875 178.146 36.3971 178.856 37.2723 178.856Z" fill="#EA525B" stroke="#1C1D21" stroke-width="1.25654" stroke-linecap="round" stroke-linejoin="round"/>
<path d="M44.1365 177.271C44.1365 176.957 44.0435 176.651 43.8694 176.39C43.6952 176.13 43.4477 175.927 43.1581 175.807C42.8685 175.687 42.5499 175.655 42.2424 175.716C41.935 175.778 41.6526 175.929 41.431 176.15C41.2093 176.372 41.0584 176.654 40.9972 176.962C40.9361 177.269 40.9675 177.588 41.0874 177.877C41.2074 178.167 41.4105 178.414 41.6711 178.589C41.9318 178.763 42.2382 178.856 42.5516 178.856C42.972 178.856 43.3751 178.689 43.6723 178.391C43.9695 178.094 44.1365 177.691 44.1365 177.271Z" fill="#1C1D21" stroke="#1C1D21" stroke-width="1.25654" stroke-linecap="round" stroke-linejoin="round"/>
<path d="M88.6535 120.166H28.5029V125.834H88.6535V120.166Z" fill="white"/>
<path d="M33.5789 122.952C33.5789 122.639 33.4859 122.332 33.3118 122.072C33.1376 121.811 32.8901 121.608 32.6005 121.488C32.3109 121.368 31.9923 121.336 31.6848 121.398C31.3774 121.459 31.095 121.61 30.8734 121.831C30.6517 122.053 30.5008 122.335 30.4396 122.643C30.3785 122.95 30.4099 123.269 30.5298 123.559C30.6498 123.848 30.8529 124.096 31.1135 124.27C31.3742 124.444 31.6806 124.537 31.994 124.537C32.2021 124.537 32.4082 124.496 32.6005 124.416C32.7928 124.337 32.9675 124.22 33.1147 124.073C33.2618 123.926 33.3786 123.751 33.4582 123.559C33.5379 123.366 33.5789 123.16 33.5789 122.952Z" fill="white" stroke="#1C1D21" stroke-width="1.25654" stroke-linecap="round" stroke-linejoin="round"/>
<path d="M38.8523 122.952C38.8523 122.639 38.7593 122.332 38.5852 122.072C38.4111 121.811 38.1635 121.608 37.874 121.488C37.5844 121.368 37.2657 121.336 36.9583 121.398C36.6508 121.459 36.3685 121.61 36.1468 121.831C35.9252 122.053 35.7742 122.335 35.7131 122.643C35.6519 122.95 35.6833 123.269 35.8033 123.559C35.9232 123.848 36.1263 124.096 36.387 124.27C36.6476 124.444 36.954 124.537 37.2675 124.537C37.6878 124.537 38.0909 124.37 38.3881 124.073C38.6853 123.775 38.8523 123.372 38.8523 122.952Z" fill="#EA525B" stroke="#1C1D21" stroke-width="1.25654" stroke-linecap="round" stroke-linejoin="round"/>
<path d="M44.1365 122.952C44.1365 122.639 44.0435 122.332 43.8694 122.072C43.6952 121.811 43.4477 121.608 43.1581 121.488C42.8685 121.368 42.5499 121.336 42.2424 121.398C41.935 121.459 41.6526 121.61 41.431 121.831C41.2093 122.053 41.0584 122.335 40.9972 122.643C40.9361 122.95 40.9675 123.269 41.0874 123.559C41.2074 123.848 41.4105 124.096 41.6711 124.27C41.9318 124.444 42.2382 124.537 42.5516 124.537C42.972 124.537 43.3751 124.37 43.6723 124.073C43.9695 123.775 44.1365 123.372 44.1365 122.952Z" fill="white" stroke="#1C1D21" stroke-width="1.25654" stroke-linecap="round" stroke-linejoin="round"/>
<path d="M88.6535 112.874H28.5029V118.542H88.6535V112.874Z" fill="white"/>
<path d="M33.5789 115.648C33.5789 115.335 33.4859 115.028 33.3118 114.768C33.1376 114.507 32.8901 114.304 32.6005 114.184C32.3109 114.064 31.9923 114.033 31.6848 114.094C31.3774 114.155 31.095 114.306 30.8734 114.528C30.6517 114.749 30.5008 115.032 30.4396 115.339C30.3785 115.647 30.4099 115.965 30.5298 116.255C30.6498 116.544 30.8529 116.792 31.1135 116.966C31.3742 117.14 31.6806 117.233 31.994 117.233C32.2021 117.233 32.4082 117.192 32.6005 117.113C32.7928 117.033 32.9675 116.916 33.1147 116.769C33.2618 116.622 33.3786 116.447 33.4582 116.255C33.5379 116.063 33.5789 115.856 33.5789 115.648Z" fill="#EA525B" stroke="#1C1D21" stroke-width="1.25654" stroke-linecap="round" stroke-linejoin="round"/>
<path d="M38.8523 115.648C38.8523 115.335 38.7593 115.028 38.5852 114.768C38.4111 114.507 38.1635 114.304 37.874 114.184C37.5844 114.064 37.2657 114.033 36.9583 114.094C36.6508 114.155 36.3685 114.306 36.1468 114.528C35.9252 114.749 35.7742 115.032 35.7131 115.339C35.6519 115.647 35.6833 115.965 35.8033 116.255C35.9232 116.544 36.1263 116.792 36.387 116.966C36.6476 117.14 36.954 117.233 37.2675 117.233C37.6878 117.233 38.0909 117.066 38.3881 116.769C38.6853 116.472 38.8523 116.069 38.8523 115.648Z" fill="#1C1D21" stroke="#1C1D21" stroke-width="1.25654" stroke-linecap="round" stroke-linejoin="round"/>
<path d="M44.1365 115.648C44.1365 115.335 44.0435 115.028 43.8694 114.768C43.6952 114.507 43.4477 114.304 43.1581 114.184C42.8685 114.064 42.5499 114.033 42.2424 114.094C41.935 114.155 41.6526 114.306 41.431 114.528C41.2093 114.749 41.0584 115.032 40.9972 115.339C40.9361 115.647 40.9675 115.965 41.0874 116.255C41.2074 116.544 41.4105 116.792 41.6711 116.966C41.9318 117.14 42.2382 117.233 42.5516 117.233C42.972 117.233 43.3751 117.066 43.6723 116.769C43.9695 116.472 44.1365 116.069 44.1365 115.648Z" fill="#1C1D21" stroke="#1C1D21" stroke-width="1.25654" stroke-linecap="round" stroke-linejoin="round"/>
<path d="M38.576 127.695H28.6553V131.948H38.576V127.695Z" fill="#1C1D21" stroke="#1C1D21" stroke-width="1.25654" stroke-linecap="round" stroke-linejoin="round"/>
<path d="M38.576 136.906H28.6553V141.158H38.576V136.906Z" fill="#1C1D21" stroke="#1C1D21" stroke-width="1.25654" stroke-linecap="round" stroke-linejoin="round"/>
<path d="M38.576 146.121H28.6553V150.374H38.576V146.121Z" fill="#EA525B" stroke="#1C1D21" stroke-width="1.25654" stroke-linecap="round" stroke-linejoin="round"/>
<path d="M38.576 155.332H28.6553V159.584H38.576V155.332Z" fill="#EA525B" stroke="#1C1D21" stroke-width="1.25654" stroke-linecap="round" stroke-linejoin="round"/>
<path d="M38.576 164.547H28.6553V168.8H38.576V164.547Z" fill="#EA525B" stroke="#1C1D21" stroke-width="1.25654" stroke-linecap="round" stroke-linejoin="round"/>
<path d="M38.576 181.789H28.6553V186.041H38.576V181.789Z" fill="#EA525B" stroke="#1C1D21" stroke-width="1.25654" stroke-linecap="round" stroke-linejoin="round"/>
<path d="M38.576 191.004H28.6553V195.257H38.576V191.004Z" fill="#1C1D21" stroke="#1C1D21" stroke-width="1.25654" stroke-linecap="round" stroke-linejoin="round"/>
<path d="M38.576 200.214H28.6553V204.467H38.576V200.214Z" fill="#EA525B" stroke="#1C1D21" stroke-width="1.25654" stroke-linecap="round" stroke-linejoin="round"/>
<path d="M38.576 209.43H28.6553V213.683H38.576V209.43Z" fill="#1C1D21" stroke="#1C1D21" stroke-width="1.25654" stroke-linecap="round" stroke-linejoin="round"/>
<path d="M38.576 218.641H28.6553V222.893H38.576V218.641Z" fill="#EA525B" stroke="#1C1D21" stroke-width="1.25654" stroke-linecap="round" stroke-linejoin="round"/>
<path d="M121.67 82.5474C121.67 82.5474 112.161 84.9669 109.522 88.5822C106.882 92.1974 96.183 116.782 96.183 116.782C96.183 116.782 92.7144 120.674 96.465 124.424C100.216 128.175 107.717 129.562 110.497 126.229C113.278 122.896 117.299 107.194 117.858 105.389C118.416 103.585 122.578 88.3002 122.996 87.4711C123.413 86.642 123.813 83.0437 121.67 82.5474Z" fill="white" stroke="#1C1D21" stroke-linecap="round" stroke-linejoin="round"/>
<path d="M121.67 82.5474C121.67 82.5474 112.161 84.9669 109.522 88.5822C107.926 90.7648 103.38 100.635 100.035 108.085C101.659 107.758 108.427 106.754 116.352 110.747C117.113 108.085 117.677 105.982 117.858 105.389C118.422 103.585 122.578 88.3002 122.996 87.4711C123.413 86.642 123.813 83.0437 121.67 82.5474Z" fill="#4B5057" stroke="#1C1D21" stroke-linecap="round" stroke-linejoin="round"/>
<path d="M149.532 50.5175C151.168 51.4407 152.478 52.8474 153.282 54.5445C154.41 57.184 154.41 61.211 154.41 61.211C154.41 61.211 172.193 60.647 179.001 60.5172C185.808 60.3875 190.394 62.0457 190.529 65.3789C190.664 68.7121 189.142 75.2433 185.391 77.7418C181.64 80.2403 169.971 76.2133 163.998 74.5495C158.026 72.8857 155.939 73.4215 151.636 72.8575C147.332 72.2935 146.074 70.6354 145.381 67.9959C144.687 65.3563 146.074 60.3537 146.074 56.3267C146.074 52.2998 145.505 49.6828 149.532 50.5175Z" fill="white" stroke="#1C1D21" stroke-linecap="round" stroke-linejoin="round"/>
<path d="M175.509 67.6013C175.509 67.6013 173.011 73.9914 168.426 77.4656C165.137 79.9585 160.699 81.3798 158.46 81.9776C150.445 79.7216 139.131 78.6613 132.516 80.1277C132.516 80.1277 123.277 82.3386 121.67 82.5416C120.063 82.7447 116.244 95.5982 115.438 104.436C114.631 113.274 117.248 135.174 117.248 136.782C117.248 138.389 118.252 165.111 119.86 172.545C121.467 179.978 123.277 190.029 123.475 191.427C123.672 192.826 125.082 203.271 125.082 206.695C125.082 210.118 123.452 218.353 123.452 218.353C123.452 218.353 116.222 223.175 113.407 225.984C110.593 228.792 115.477 231.759 119.047 232.413C125.105 233.541 132.301 227.591 132.301 227.591L140.372 224.382C142.51 223.525 143.141 221.229 143.192 219.171L143.564 204.292C144.828 209.556 145.866 214.875 146.678 220.248C147.005 222.447 147.343 224.76 148.669 226.536C149.404 227.556 150.356 228.402 151.455 229.012C152.256 229.385 153.107 229.306 153.914 229.768C155.397 230.625 156.006 232.475 157.444 233.406C160.541 235.238 164.096 236.148 167.692 236.029C167.692 236.029 175.724 236.435 176.152 232.013C176.581 227.591 165.701 220.361 165.701 220.361C165.701 220.361 164.094 191.033 162.881 181.388C161.669 171.744 158.46 156.076 158.46 149.24C158.46 142.405 161.674 110.262 161.674 110.262C161.674 110.262 162.002 109.416 162.504 108.04L163.034 107.747C167.619 105.107 180.399 94.8255 184.567 88.2944C188.56 82.0453 190.004 70.3197 190.117 66.8906" fill="white"/>
<path d="M175.509 67.6013C175.509 67.6013 173.011 73.9914 168.426 77.4656C165.137 79.9585 160.699 81.3798 158.46 81.9776C150.445 79.7216 139.131 78.6613 132.516 80.1277C132.516 80.1277 123.277 82.3386 121.67 82.5416C120.063 82.7447 116.244 95.5982 115.438 104.436C114.631 113.274 117.248 135.174 117.248 136.782C117.248 138.389 118.252 165.111 119.86 172.545C121.467 179.978 123.277 190.029 123.475 191.427C123.672 192.826 125.082 203.271 125.082 206.695C125.082 210.118 123.452 218.353 123.452 218.353C123.452 218.353 116.222 223.175 113.407 225.984C110.593 228.792 115.477 231.759 119.047 232.413C125.105 233.541 132.301 227.591 132.301 227.591L140.372 224.382C142.51 223.525 143.141 221.229 143.192 219.171L143.564 204.292C144.828 209.556 145.866 214.875 146.678 220.248C147.005 222.447 147.343 224.76 148.669 226.536C149.404 227.556 150.356 228.402 151.455 229.012C152.256 229.385 153.107 229.306 153.914 229.768C155.397 230.625 156.006 232.475 157.444 233.406C160.541 235.238 164.096 236.148 167.692 236.029C167.692 236.029 175.724 236.435 176.152 232.013C176.581 227.591 165.701 220.361 165.701 220.361C165.701 220.361 164.094 191.033 162.881 181.388C161.669 171.744 158.46 156.076 158.46 149.24C158.46 142.405 161.674 110.262 161.674 110.262C161.674 110.262 162.002 109.416 162.504 108.04L163.034 107.747C167.619 105.107 180.399 94.8255 184.567 88.2944C188.56 82.0453 190.004 70.3197 190.117 66.8906" stroke="#1C1D21" stroke-linecap="round" stroke-linejoin="round"/>
<path d="M176.113 232.013C176.514 227.591 165.662 220.361 165.662 220.361C165.662 220.361 165.538 218.105 165.335 214.636C159.041 216.153 152.588 216.91 146.114 216.892C146.306 218.02 146.494 219.148 146.678 220.276C147.005 222.476 147.344 224.788 148.669 226.565C149.405 227.585 150.356 228.43 151.455 229.041C152.256 229.413 153.108 229.334 153.914 229.797C155.398 230.654 156.007 232.504 157.445 233.434C160.542 235.266 164.097 236.176 167.693 236.057C167.693 236.057 175.707 236.435 176.113 232.013Z" fill="#1C1D21" stroke="#1C1D21" stroke-linecap="round" stroke-linejoin="round"/>
<path d="M140.373 224.382C142.51 223.525 143.142 221.229 143.193 219.171C143.193 218.392 143.232 217.614 143.249 216.836C136.836 216.619 130.465 215.707 124.248 214.117C123.865 216.463 123.492 218.353 123.492 218.353C123.492 218.353 116.262 223.175 113.447 225.984C110.633 228.792 115.517 231.759 119.087 232.413C125.145 233.541 132.341 227.591 132.341 227.591L140.373 224.382Z" fill="#1C1D21" stroke="#1C1D21" stroke-linecap="round" stroke-linejoin="round"/>
<path d="M176.113 232.013C176.113 231.951 176.113 231.883 176.113 231.816C174.338 233.085 172.287 233.917 170.129 234.241C163.779 235.369 157.992 232.126 156.441 230.716C154.89 229.306 153.903 228.172 151.5 226.621C149.098 225.07 146.926 221.252 146.926 221.252L146.836 221.393C147.135 223.226 147.552 225.059 148.652 226.537C149.388 227.557 150.339 228.402 151.438 229.013C152.239 229.385 153.091 229.306 153.897 229.768C155.381 230.626 155.99 232.476 157.428 233.406C160.525 235.238 164.08 236.148 167.676 236.029C167.676 236.029 175.707 236.435 176.113 232.013Z" fill="white" stroke="#1C1D21" stroke-linecap="round" stroke-linejoin="round"/>
<path d="M140.372 224.382C142.239 223.632 142.956 221.793 143.147 219.972C141.297 221.1 137.022 223.564 134.309 224.647C130.784 226.057 128.382 230.287 121.473 230.287C116.543 230.287 113.842 228.358 112.697 227.247C112.088 229.627 116.081 231.855 119.081 232.414C125.139 233.542 132.335 227.591 132.335 227.591L140.372 224.382Z" fill="white" stroke="#1C1D21" stroke-linecap="round" stroke-linejoin="round"/>
<path d="M166.446 78.7739C163.928 80.1718 161.245 81.2499 158.46 81.9831C150.445 79.7271 139.131 78.6668 132.516 80.1332C132.516 80.1332 123.277 82.344 121.67 82.5471C120.063 82.7501 116.244 95.6037 115.438 104.442C114.941 109.901 115.748 120.324 116.436 127.887C133.181 134.023 151.037 131.92 159.768 130.25C160.648 120.234 161.646 110.268 161.646 110.268C161.646 110.268 161.973 109.422 162.475 108.046L163.006 107.752C166.124 105.959 173.017 100.64 178.425 95.3443C167.568 92.2141 166.254 83.6525 166.446 78.7739Z" fill="#4B5057" stroke="#1C1D21" stroke-linecap="round" stroke-linejoin="round"/>
<path d="M150.88 88.3565C150.846 86.6697 150.415 85.0145 149.621 83.5258C148.827 82.0371 147.693 80.7569 146.311 79.7893C141.179 79.293 136.159 79.3268 132.516 80.1334C132.516 80.1334 129.961 80.7481 127.304 81.3516C125.516 83.2481 124.509 85.7497 124.484 88.3565C124.484 94.6225 130.395 99.7042 137.682 99.7042C144.969 99.7042 150.88 94.6225 150.88 88.3565Z" fill="#616161" stroke="#1C1D21" stroke-linecap="round" stroke-linejoin="round"/>
<path d="M146.926 221.252C149.94 222.312 153.134 222.761 156.323 222.572C163.254 222.273 165.663 220.361 165.663 220.361C165.663 220.361 164.055 191.033 162.843 181.388C161.63 171.744 158.421 156.076 158.421 149.24C158.421 145.213 159.549 132.394 160.457 122.546L160.023 122.597C158.868 122.731 157.699 122.615 156.594 122.257C155.488 121.899 154.473 121.307 153.617 120.521C152.761 119.736 152.084 118.775 151.632 117.705C151.18 116.634 150.964 115.479 150.999 114.317L151.19 107.905C145.963 108.246 140.716 108.095 135.517 107.454C126.177 106.399 116.532 103.235 116.532 103.235L115.517 103.545C115.517 103.844 115.455 104.143 115.427 104.436C114.626 113.28 117.237 135.174 117.237 136.782C117.237 138.389 118.241 165.111 119.849 172.545C121.456 179.978 123.267 190.029 123.464 191.428C123.661 192.826 125.071 203.272 125.071 206.695C125.071 210.118 123.526 218.043 123.47 218.336C124.677 218.708 127.203 219.464 131.755 220.756C138.681 222.718 143.153 220.355 143.153 220.355C143.153 217.947 143.554 204.287 143.554 204.287C143.554 204.287 146.103 215.849 146.926 221.252Z" fill="#EA525B" stroke="#1C1D21" stroke-linecap="round" stroke-linejoin="round"/>
<path d="M123.977 111.7L142.019 114.667V125.789L131.884 135.93L123.729 126.037L123.977 111.7Z" stroke="#1C1D21" stroke-linecap="round" stroke-linejoin="round"/>
<path d="M136.988 174.243C135.686 166.911 134.732 159.669 134.732 154.469L127.502 149.646" stroke="#1C1D21" stroke-linecap="round" stroke-linejoin="round"/>
<path d="M143.565 204.292C143.565 204.292 140.519 192.521 138.004 179.628" stroke="#1C1D21" stroke-linecap="round" stroke-linejoin="round"/>
<path d="M131.348 75.858L131.235 81.78C131.235 81.78 129.194 83.4156 128.788 87.702C128.382 91.9884 132.465 95.9759 137.056 95.9759C141.647 95.9759 145.634 92.4002 146.351 89.1346C147.067 85.869 146.142 81.1709 146.142 81.1709L145.837 74.025C145.837 74.025 141.325 76.8789 137.056 76.0667C132.786 75.2546 131.546 73.7148 131.546 73.7148L131.348 75.858Z" fill="white" stroke="#1C1D21" stroke-linecap="round" stroke-linejoin="round"/>
<path d="M128.139 60.4047C128.139 60.4047 127.863 63.7887 128.596 64.6177C129.329 65.4468 130.339 66.0841 130.525 65.3509C130.711 64.6177 130.795 60.7713 130.982 59.9478C131.168 59.1244 128.229 58.0923 128.139 60.4047Z" fill="white" stroke="#1C1D21" stroke-linecap="round" stroke-linejoin="round"/>
<path d="M129.933 60.3484C129.933 60.3484 129.092 67.1164 129.092 70.3932C129.092 73.67 127.823 74.9052 131.912 77.0371C136.001 79.169 139.543 79.4398 142.369 78.4471C145.195 77.4545 146.751 75.0631 146.881 73.0778C147.011 71.0926 147.022 68.0018 147.022 68.0018C147.022 68.0018 150.97 64.4712 150.135 61.7978C149.301 59.1245 147.451 62.5028 147.451 62.5028C148.228 60.1805 148.61 57.7438 148.579 55.2949C148.438 51.6176 145.612 51.1946 144.478 51.1946C143.345 51.1946 136.424 49.0684 133.181 51.1664C129.938 53.2645 129.933 60.3484 129.933 60.3484Z" fill="white" stroke="#1C1D21" stroke-linecap="round" stroke-linejoin="round"/>
<path fill-rule="evenodd" clip-rule="evenodd" d="M130.501 63.0487L134.345 64.4911C134.54 64.0547 134.533 63.5729 134.324 63.141C134.116 62.7091 133.722 62.3584 133.22 62.1583C132.972 62.0617 132.704 62.0081 132.431 62.0009C132.159 61.9936 131.887 62.0327 131.633 62.116C131.379 62.1992 131.147 62.3247 130.953 62.4851C130.758 62.6454 130.604 62.8371 130.501 63.0487ZM139.396 62.5807L142.194 65.5602C142.592 65.1816 142.825 64.6646 142.843 64.1176C142.861 63.5706 142.663 63.0362 142.29 62.6266C142.104 62.433 141.88 62.2779 141.632 62.1704C141.384 62.063 141.118 62.0054 140.848 62.0011C140.578 61.9968 140.31 62.0459 140.061 62.1455C139.812 62.245 139.586 62.393 139.396 62.5807ZM138.775 67.3651C138.605 67.1244 138.51 66.8389 138.501 66.5443C138.496 66.1408 138.651 65.7519 138.932 65.4624C139.214 65.1729 139.598 65.0065 140.001 64.9994C140.296 64.9995 140.584 65.0865 140.83 65.2494C141.076 65.4123 141.268 65.644 141.383 65.9155C141.497 66.1869 141.53 66.4862 141.475 66.7759C141.421 67.0656 141.282 67.3328 141.077 67.5443C140.872 67.7557 140.609 67.902 140.321 67.9649C140.033 68.0277 139.732 68.0044 139.458 67.8977C139.183 67.791 138.946 67.6057 138.775 67.3651ZM137.925 73.8476C137.646 73.7536 137.494 73.6279 137.501 73.4978C137.499 73.3675 137.656 73.2421 137.938 73.1488C138.221 73.0555 138.606 73.0018 139.01 72.9994C139.21 73.0006 139.407 73.0144 139.59 73.0401C139.772 73.0658 139.938 73.1029 140.076 73.1492C140.215 73.1955 140.323 73.2501 140.396 73.3099C140.469 73.3697 140.504 73.4336 140.501 73.4978C140.506 73.6287 140.35 73.7549 140.067 73.8489C139.784 73.9428 139.398 73.9969 138.991 73.9994C138.588 73.9961 138.204 73.9416 137.925 73.8476ZM131.501 66.5553C131.512 66.8489 131.609 67.1329 131.78 67.3719C131.951 67.6109 132.188 67.7945 132.463 67.8998C132.737 68.0051 133.037 68.0275 133.324 67.9642C133.611 67.9009 133.873 67.7547 134.077 67.5438C134.282 67.3329 134.42 67.0665 134.475 66.7778C134.529 66.489 134.498 66.1906 134.384 65.9196C134.271 65.6486 134.08 65.4169 133.836 65.2533C133.592 65.0897 133.305 65.0014 133.011 64.9994C132.605 65.0067 132.218 65.1745 131.935 65.466C131.652 65.7576 131.496 66.1492 131.501 66.5553ZM136.028 65.5092C136.152 65.2622 136.452 65.1621 136.699 65.2856C136.946 65.4091 137.046 65.7094 136.923 65.9564L135.915 67.9721C135.342 69.1174 135.965 70.4997 137.202 70.8297L136.944 71.7959C135.095 71.3028 134.164 69.2367 135.02 67.5249L136.028 65.5092Z" fill="#1C1D21"/>
<path d="M147.462 62.4747C148.24 60.1524 148.622 57.7157 148.59 55.2668C148.449 51.5895 145.624 51.1665 144.49 51.1665H144.417C143.819 52.1704 143.08 53.7158 143.08 53.7158L143.644 53.9978C143.644 53.9978 143.08 57.1111 144.208 57.5341C145.336 57.9571 144.772 58.9441 144.772 60.6417C144.772 62.3393 145.765 63.6083 146.329 63.6083C146.774 63.6083 147.457 62.4803 147.761 61.9897C147.575 62.2604 147.462 62.4747 147.462 62.4747Z" fill="#1C1D21" stroke="#1C1D21" stroke-linecap="round" stroke-linejoin="round"/>
<path d="M127.53 52.5819L142.656 54.7082C142.656 54.7082 149.013 53.0162 149.582 51.7416C150.152 50.4669 148.026 44.1106 146.892 42.554C145.758 40.9974 134.879 43.682 131.484 44.246C128.088 44.81 125.55 45.6504 125.708 47.3762C125.866 49.102 127.53 52.5819 127.53 52.5819Z" fill="#EA525B" stroke="#1C1D21" stroke-linecap="round" stroke-linejoin="round"/>
<path d="M127.53 52.582C127.53 52.582 118.907 59.6489 118.766 60.3483C118.625 61.0477 131.343 61.3353 135.302 60.4893C139.262 59.6433 142.634 54.6914 142.634 54.6914L127.53 52.582Z" fill="#EA525B" stroke="#1C1D21" stroke-linecap="round" stroke-linejoin="round"/>
<path d="M118.106 146.279L141.794 132.388C142.579 132.975 143.528 133.301 144.508 133.319C145.487 133.337 146.448 133.046 147.253 132.488C148.059 131.929 148.668 131.132 148.995 130.208C149.322 129.284 149.35 128.281 149.075 127.34L144.129 130.234L143.001 128.288L147.953 125.389C147.267 124.687 146.378 124.219 145.412 124.051C144.445 123.883 143.45 124.024 142.568 124.454C141.686 124.883 140.962 125.579 140.498 126.444C140.034 127.308 139.854 128.297 139.984 129.269L116.267 143.16C115.483 142.573 114.534 142.248 113.554 142.23C112.574 142.212 111.613 142.503 110.808 143.061C110.003 143.619 109.393 144.417 109.066 145.341C108.739 146.264 108.711 147.268 108.986 148.208L113.803 145.388L114.931 147.34L110.114 150.16C110.799 150.863 111.688 151.332 112.655 151.501C113.621 151.669 114.617 151.529 115.499 151.099C116.381 150.669 117.105 149.972 117.568 149.106C118.031 148.241 118.21 147.252 118.078 146.279H118.106Z" fill="white" stroke="#1C1D21" stroke-linecap="round" stroke-linejoin="round"/>
<path d="M138.28 135.953C138.28 135.953 141.196 138.039 141.196 139.98C141.196 141.92 137.722 144.012 135.364 144.148C133.007 144.283 132.584 141.649 133.001 140.262C133.419 138.874 138.28 135.953 138.28 135.953Z" fill="white" stroke="#1C1D21" stroke-linecap="round" stroke-linejoin="round"/>
<path d="M110.5 120C110.5 120 120.778 130.771 123 130.5C125.222 130.229 131.331 125.118 133.001 125.648C134.67 126.178 139.25 133.29 139.667 134.542C140.085 135.794 136.334 140.239 135.499 140.932C134.665 141.626 132.025 144.407 131.472 144.683C130.92 144.959 127.304 148.157 125.5 148.157C123.695 148.157 120.638 146.764 120.356 146.07C120.074 145.377 120.773 144.407 120.773 144.407L112.313 140.515C112.313 140.515 96.1941 131.762 93.4192 127.317C90.6443 122.873 99.9995 108 99.9995 108" fill="white"/>
<path d="M110.5 120C110.5 120 120.778 130.771 123 130.5C125.222 130.229 131.331 125.118 133.001 125.648C134.67 126.178 139.25 133.29 139.667 134.542C140.085 135.794 136.334 140.239 135.499 140.932C134.665 141.626 132.025 144.407 131.472 144.683C130.92 144.959 127.304 148.157 125.5 148.157C123.695 148.157 120.638 146.764 120.356 146.07C120.074 145.377 120.773 144.407 120.773 144.407L112.313 140.515C112.313 140.515 96.1941 131.762 93.4192 127.317C90.6443 122.873 99.9995 108 99.9995 108" stroke="#1C1D21" stroke-linecap="round" stroke-linejoin="round"/>
<path d="M126.334 140.396C126.827 140.462 127.284 140.688 127.634 141.04C127.985 141.392 128.21 141.85 128.274 142.342C128.556 144.147 127.857 147.345 127.857 147.345" stroke="#1C1D21" stroke-linecap="round" stroke-linejoin="round"/>
<path d="M129.526 137.757C129.526 137.757 131.472 137.898 131.472 139.703V144.706" stroke="#1C1D21" stroke-linecap="round" stroke-linejoin="round"/>
<path d="M131.613 132.76C131.613 132.76 135.223 135.4 135.499 136.928C135.653 138.266 135.653 139.617 135.499 140.955" stroke="#1C1D21" stroke-linecap="round" stroke-linejoin="round"/>
<path d="M147.704 123.234C148.517 123.234 150.665 117.854 150.665 115.835C150.665 113.816 151.607 99.0219 153.762 92.1467C155.307 87.223 156.638 83.4216 157.27 81.6563C155.629 81.239 153.886 80.8667 152.07 80.5283C150.992 83.7939 147.704 93.9854 146.362 100.466C144.749 108.266 145.149 117.549 145.285 118.356C145.42 119.162 146.909 123.234 147.704 123.234Z" fill="#EA525B" stroke="#1C1D21" stroke-linecap="round" stroke-linejoin="round"/>
<path d="M150.671 106.913L146.053 106.306C145.674 106.257 145.326 106.524 145.276 106.903L144.792 110.588C144.742 110.968 145.009 111.315 145.389 111.365L150.006 111.972C150.386 112.021 150.734 111.754 150.783 111.375L151.267 107.69C151.317 107.311 151.05 106.963 150.671 106.913Z" fill="white" stroke="#1C1D21" stroke-linecap="round" stroke-linejoin="round"/>
<path d="M117.581 121.215C118.393 121.215 120.542 115.835 120.542 113.816C120.542 111.796 121.484 97.0027 123.638 90.1275C125.003 85.7735 125.934 82.9929 126.458 81.5435C124.354 82.0172 122.358 82.4515 121.692 82.5361C121.196 82.5981 120.497 83.8559 119.735 85.8186C118.844 88.5822 117.756 92.1749 116.915 95.6773C116.258 98.563 115.777 101.486 115.477 104.431C115.287 107.384 115.274 110.347 115.437 113.302C115.437 113.404 115.449 113.483 115.471 113.539C115.556 114.357 116.774 121.215 117.581 121.215Z" fill="#EA525B" stroke="#1C1D21" stroke-linecap="round" stroke-linejoin="round"/>
<path d="M120.647 103.05L116.009 102.555C115.628 102.514 115.286 102.79 115.246 103.171L114.851 106.873C114.81 107.254 115.086 107.595 115.467 107.636L120.105 108.131C120.486 108.172 120.828 107.896 120.868 107.515L121.263 103.813C121.304 103.432 121.028 103.091 120.647 103.05Z" fill="white" stroke="#1C1D21" stroke-linecap="round" stroke-linejoin="round"/>
</g>
<defs>
<clipPath id="clip0_4_66157">
<rect width="236" height="282" fill="white" transform="translate(0.5)"/>
</clipPath>
</defs>
</svg>
