<svg width="174" height="167" viewBox="0 0 174 167" fill="none" xmlns="http://www.w3.org/2000/svg">
<path d="M114.964 3.95121C114.964 3.95121 85.8672 -7.54378 58.0391 8.67902C30.211 24.9018 16.8434 58.2804 5.30946 84.9951C-6.22446 111.71 1.56873 139.431 23.4923 152.586C45.4159 165.74 59.605 147.651 89.8719 147.6C120.139 147.548 128.401 152.294 153.057 135.15C177.713 118.005 181.131 75.9784 160.473 44.2298C139.814 12.4812 114.964 3.95121 114.964 3.95121Z" fill="#F8F8F8"/>
<path d="M119.421 29.5642C117.576 29.5642 115.773 29.0155 114.24 27.9876C112.706 26.9597 111.511 25.4987 110.806 23.7893C110.1 22.0799 109.915 20.199 110.275 18.3843C110.635 16.5696 111.523 14.9028 112.827 13.5945C114.131 12.2862 115.793 11.3952 117.601 11.0342C119.41 10.6733 121.285 10.8585 122.989 11.5666C124.693 12.2746 126.149 13.4737 127.174 15.0121C128.199 16.5505 128.745 18.3591 128.745 20.2093C128.744 22.6899 127.761 25.0684 126.012 26.8225C124.264 28.5765 121.893 29.5626 119.421 29.5642ZM119.421 12.0538C117.813 12.0538 116.241 12.5321 114.904 13.4283C113.567 14.3244 112.525 15.5981 111.91 17.0884C111.295 18.5786 111.134 20.2184 111.447 21.8004C111.761 23.3824 112.535 24.8356 113.672 25.9762C114.809 27.1167 116.258 27.8935 117.835 28.2081C119.412 28.5228 121.046 28.3613 122.532 27.744C124.017 27.1268 125.287 26.0815 126.18 24.7403C127.073 23.3991 127.55 21.8223 127.55 20.2093C127.548 18.0469 126.691 15.9734 125.167 14.4443C123.643 12.9152 121.576 12.0554 119.421 12.0538Z" fill="#1C1D21"/>
<path d="M125.028 27.3752L123.594 28.4546L133.019 41.062L134.454 39.9826L125.028 27.3752Z" fill="#1C1D21"/>
<path d="M109.045 13.6431C109.4 14.7857 109.565 15.9789 109.535 17.1752C109.433 18.9442 109.631 21.4928 110.133 21.8886C110.635 22.2844 111.992 23.2618 111.597 24.0474C111.309 24.5695 110.866 24.9887 110.33 25.2468C110.025 26.7735 109.531 28.2561 108.86 29.6603C107.879 31.5253 107.198 32.8026 106.026 32.8985C105.4 32.976 104.765 32.9104 104.167 32.7066L102.882 33.9659L93.1987 31.9091L93.4916 27.5915C93.4916 27.5915 90.5566 22.5842 90.5566 17.481C90.5566 12.3778 95.7391 9.43946 98.7757 9.24157C101.812 9.04368 107.479 10.309 109.045 13.6431Z" fill="white"/>
<path d="M102.978 34.2836L92.8819 32.1668L93.1868 27.6813C92.7982 26.9857 90.2578 22.3322 90.2578 17.4869C90.2578 12.1678 95.7033 9.14548 98.7578 8.94759C101.597 8.76768 107.616 9.91905 109.314 13.5351V13.571C109.683 14.7478 109.855 15.9779 109.822 17.211C109.703 19.2799 109.989 21.4087 110.294 21.6726L110.426 21.7745C111.083 22.2902 112.309 23.2557 111.842 24.1732C111.547 24.7037 111.105 25.137 110.569 25.4205C110.261 26.9273 109.767 28.3897 109.099 29.7741C108.101 31.6811 107.377 33.0543 106.026 33.1682C105.425 33.2307 104.816 33.1799 104.233 33.0183L102.978 34.2836ZM93.5155 31.6571L102.787 33.63L104.084 32.3227L104.269 32.4067C104.823 32.5835 105.407 32.6427 105.985 32.5806C106.965 32.4966 107.581 31.4112 108.585 29.4983C109.24 28.1202 109.722 26.6658 110.019 25.1687V25.0127L110.163 24.9468C110.634 24.7235 111.026 24.3616 111.287 23.9093C111.538 23.4116 110.45 22.5541 110.037 22.2303L109.906 22.1223C109.206 21.5646 109.129 18.4823 109.206 17.1631C109.234 16.0095 109.075 14.8591 108.734 13.7569C107.288 10.7106 101.926 9.32538 98.7638 9.52927C95.9125 9.71516 90.8257 12.5276 90.8257 17.4689C90.8257 22.4102 93.6889 27.3754 93.7188 27.4234L93.7666 27.5074L93.5155 31.6571Z" fill="#1C1D21"/>
<path d="M111.571 11.1785C111.638 12.1577 111.361 13.1295 110.788 13.925C109.813 15.4002 107.171 15.8919 107.171 15.8919C107.171 15.8919 107.076 18.0507 106.484 18.9322C105.949 19.5875 105.283 20.1228 104.529 20.5034C104.529 20.5034 102.575 20.6952 103.161 22.8541C103.746 25.0129 104.237 25.3067 103.256 27.0517C102.276 28.7968 96.5077 31.1715 94.553 29.7982C92.5984 28.425 91.1279 27.7414 89.9564 23.6156C88.7848 19.4899 87.6072 13.7091 90.9367 9.78126C94.2661 5.85342 101.792 6.83688 101.792 6.83688C101.792 6.83688 99.8371 4.97191 102.575 5.07386C104.302 5.19048 105.931 5.91955 107.171 7.13072C107.171 7.13072 107.464 5.1698 108.929 5.66153C110.393 6.15326 111.386 10.1111 111.571 11.1785Z" fill="#1C1D21"/>
<path d="M96.2171 30.5479C95.5763 30.5804 94.9406 30.4174 94.394 30.0801L93.8919 29.7323C92.1584 28.533 90.7836 27.5975 89.7077 23.7356C88.4285 19.2441 87.3884 13.5832 90.7478 9.62541C93.5572 6.30923 99.1162 6.3692 101.137 6.50713C101.015 6.35671 100.931 6.17883 100.892 5.98874C100.854 5.79865 100.862 5.60202 100.915 5.41572C101.101 4.97197 101.657 4.77408 102.625 4.81605C104.255 4.91618 105.809 5.54789 107.048 6.61506C107.18 6.17004 107.458 5.78304 107.837 5.51766C108.017 5.41252 108.217 5.3493 108.424 5.33268C108.631 5.31607 108.839 5.3465 109.033 5.42172C110.904 6.02139 111.866 11.0946 111.872 11.1426C111.947 12.195 111.653 13.2407 111.041 14.0989C110.169 15.4122 108.142 15.9819 107.455 16.1438C107.413 16.7435 107.252 18.3326 106.737 19.1062C106.176 19.8074 105.468 20.3765 104.663 20.7733L104.562 20.8032C104.163 20.868 103.804 21.0824 103.557 21.4029C103.438 21.6145 103.366 21.85 103.348 22.0925C103.329 22.335 103.364 22.5787 103.45 22.8061C103.569 23.2439 103.683 23.6037 103.785 23.9095C104.179 25.1628 104.382 25.7085 103.522 27.2497C102.888 28.3951 100.425 29.7803 98.0283 30.332C97.4342 30.4697 96.8269 30.5421 96.2171 30.5479ZM99.7618 7.07081C97.3349 7.07081 93.3181 7.49058 91.1781 10.0152C88.0041 13.7571 89.0203 19.2261 90.2576 23.5737C91.2977 27.2257 92.5291 28.0712 94.2326 29.2406L94.7407 29.5884C95.3385 30.0142 96.4682 30.0621 97.9088 29.7323C100.085 29.2286 102.47 27.9333 103.014 26.9439C103.725 25.6486 103.611 25.2828 103.229 24.0774C103.127 23.7596 103.008 23.3938 102.888 22.9501C102.775 22.6382 102.734 22.3048 102.767 21.9747C102.8 21.6446 102.907 21.3263 103.079 21.0431C103.413 20.5993 103.906 20.3043 104.454 20.2216C105.146 19.8705 105.757 19.3783 106.247 18.7764C106.69 18.1107 106.845 16.4676 106.881 15.886V15.6521L107.114 15.6041C107.114 15.6041 109.643 15.1184 110.539 13.8051C111.063 13.0671 111.322 12.1731 111.274 11.2685C111.005 9.78131 110.019 6.40518 108.836 6.0094C108.719 5.96149 108.592 5.9404 108.466 5.94766C108.34 5.95492 108.217 5.99035 108.106 6.05137C107.753 6.35878 107.523 6.78532 107.461 7.25071L107.371 7.85038L106.953 7.41262C105.763 6.26113 104.208 5.56504 102.559 5.44571C101.585 5.40973 101.441 5.6376 101.424 5.68557C101.334 5.89546 101.704 6.41717 101.991 6.69302L102.655 7.29269L101.752 7.17875C101.091 7.10403 100.427 7.06798 99.7618 7.07081Z" fill="#1C1D21"/>
<path d="M105.325 21.9726C105.325 21.9726 103.663 18.8363 102.39 20.0116C101.117 21.187 102.39 27.4655 104.542 26.2902" fill="white"/>
<path d="M104.01 26.7698C103.74 26.7501 103.478 26.6645 103.248 26.5202C103.018 26.376 102.826 26.1776 102.689 25.9423C101.596 24.4131 101.129 20.8031 102.187 19.8196C102.322 19.6878 102.486 19.5898 102.666 19.5335C102.845 19.4772 103.036 19.4643 103.221 19.4958C104.417 19.6997 105.475 21.6426 105.612 21.8645L105.086 22.1464C104.805 21.6186 103.891 20.2154 103.144 20.0835C103.048 20.0685 102.95 20.0771 102.859 20.1084C102.767 20.1397 102.684 20.1929 102.618 20.2634C101.853 20.965 102.205 24.2032 103.215 25.5885C103.813 26.41 104.279 26.1462 104.441 26.0562L104.728 26.5839C104.51 26.71 104.262 26.7743 104.01 26.7698Z" fill="#1C1D21"/>
<path d="M105.093 36.8206C105.093 36.8206 105.093 34.6318 102.224 32.9887C99.355 31.3456 93.6166 29.1508 91.0164 29.3907C88.4162 29.6305 86.9219 33.3665 86.9219 33.3665C86.9219 33.3665 97.1673 34.3259 99.624 34.8716C101.499 35.3643 103.329 36.0163 105.093 36.8206Z" fill="white"/>
<path d="M105.39 37.2882L104.966 37.0963C103.23 36.311 101.43 35.6751 99.5863 35.1954C97.1953 34.6617 87.0336 33.7022 86.92 33.6962L86.5195 33.6602L86.6749 33.2824C86.7347 33.1265 88.2709 29.4146 91.0146 29.1267C93.7582 28.8389 99.4428 31.0337 102.372 32.7247C105.301 34.4158 105.396 36.7245 105.396 36.8205L105.39 37.2882ZM87.3683 33.1385C89.3469 33.3244 97.4942 34.122 99.6879 34.6137C101.408 35.0433 103.09 35.617 104.715 36.3288C104.536 35.6331 103.962 34.3319 102.073 33.2465C99.2575 31.6333 93.555 29.4505 91.0505 29.7204C89.1317 29.9243 87.8166 32.221 87.3683 33.1385Z" fill="#1C1D21"/>
<path d="M62.1918 51.0747C62.1918 51.0747 58.9161 54.9126 54.5406 60.3996C50.1651 65.8865 46.6205 71.4995 46.6205 71.4995C46.6205 71.4995 42.5199 75.0615 41.976 76.5667C41.432 78.0718 40.0632 82.4614 39.5133 83.6967C38.9633 84.9321 41.426 83.283 41.8385 82.3235C42.0762 81.7588 42.3497 81.21 42.6574 80.6804L46.208 79.0373C46.208 79.0373 45.1141 81.7778 46.208 82.1856C47.3019 82.5934 47.4394 80.6804 48.6648 79.1872C49.8901 77.6941 50.99 76.5787 51.1275 74.7976C51.2066 73.5656 51.2066 72.3297 51.1275 71.0977L68.6116 59.704L62.1918 51.0747Z" fill="white"/>
<path d="M39.5974 84.4341C39.5253 84.4376 39.4535 84.4237 39.3879 84.3934C39.3223 84.3631 39.265 84.3174 39.2209 84.2602C39.1643 84.1552 39.1348 84.0377 39.1348 83.9184C39.1348 83.799 39.1643 83.6816 39.2209 83.5766C39.5616 82.815 40.2251 80.8061 40.8049 79.0431C41.1516 77.9936 41.4684 77.0282 41.6776 76.4645C42.2215 74.9593 45.9515 71.6671 46.3699 71.3013C46.6927 70.7976 50.1417 65.4066 54.29 60.2074C58.6177 54.8104 61.9173 50.9185 61.9472 50.8826L62.1923 50.5947L69.0245 59.7877L51.4388 71.2414C51.5119 72.4296 51.5119 73.6212 51.4388 74.8094C51.3073 76.4765 50.3987 77.5739 49.3407 78.8452L48.9103 79.3609C48.5102 79.8861 48.1713 80.4555 47.9001 81.0579C47.4638 81.9634 47.0454 82.821 46.1069 82.4672C45.9857 82.42 45.8752 82.3491 45.7818 82.2584C45.6884 82.1678 45.614 82.0594 45.5629 81.9395C45.282 81.3038 45.5032 80.2844 45.7064 79.6007L42.8731 80.914C42.5953 81.4101 42.3439 81.9205 42.1199 82.4432C41.5671 83.3751 40.7031 84.0805 39.6811 84.4341H39.5974ZM62.1743 51.5602C61.3614 52.5556 58.4265 56.0097 54.7862 60.5852C50.4764 65.9823 46.9198 71.6011 46.884 71.6611L46.8242 71.7271C45.7004 72.6985 42.6938 75.493 42.2694 76.6684C42.0661 77.232 41.7493 78.1855 41.4026 79.229C40.8049 80.98 40.1713 82.9589 39.8186 83.7744C40.5338 83.4205 41.1409 82.8799 41.576 82.2093C41.8196 81.6307 42.0991 81.0679 42.4128 80.5242L42.4606 80.4463L46.7764 78.4494L46.4954 79.145C46.2982 79.6487 45.8439 81.0759 46.1189 81.6936C46.1368 81.7422 46.1647 81.7865 46.2007 81.8237C46.2367 81.8609 46.2801 81.8901 46.3281 81.9095C46.6987 82.0474 46.878 81.7955 47.3681 80.7941C47.6568 80.1537 48.02 79.5498 48.4501 78.9951L48.8804 78.4734C49.9145 77.232 50.7275 76.2486 50.8411 74.7794C50.9162 73.5612 50.9162 72.3396 50.8411 71.1214V70.9415L50.9905 70.8456L68.2056 59.6437L62.1743 51.5602Z" fill="#1C1D21"/>
<path d="M42.9024 80.8481L42.4062 80.5123L44.0859 77.9757H44.1995C44.9379 77.7554 45.6436 77.4367 46.2976 77.0282C46.8772 76.6714 47.3859 76.2098 47.7979 75.667L48.2881 76.0148C47.8249 76.6145 47.2605 77.128 46.6204 77.532C45.9479 77.9562 45.2223 78.2889 44.4625 78.5214L42.9024 80.8481Z" fill="#1C1D21"/>
<path d="M121.566 45.7014L125.996 36.3646C126.271 34.9661 126.627 33.5846 127.06 32.2269C127.365 31.6931 129.2 28.7847 129.887 28.7068C130.574 28.6288 131.262 28.9347 131.34 29.5463C131.38 29.92 131.298 30.2966 131.106 30.6197C131.791 30.972 132.39 31.4692 132.864 32.0769C133.378 32.7797 133.694 33.6082 133.778 34.4756C133.934 35.0753 134.466 35.1652 133.856 36.4665C133.246 37.7678 132.254 38.1516 131.716 38.5294C131.128 38.8994 130.517 39.2319 129.887 39.5248C129.887 39.5248 129.809 48.334 128.739 51.7821C127.669 55.2302 126.91 56.3755 126.91 56.3755C126.91 56.3755 125.075 50.097 124.011 48.8677C122.947 47.6384 121.566 45.7014 121.566 45.7014Z" fill="white"/>
<path d="M126.804 57.0473L126.624 56.4476C126.116 54.7206 124.628 50.0192 123.785 49.0537C122.721 47.8544 121.34 45.9115 121.322 45.8935L121.221 45.7495L125.71 36.2808C125.984 34.8593 126.349 33.4572 126.804 32.0831C126.804 32.0531 128.89 28.521 129.852 28.4131C130.815 28.3051 131.544 28.7849 131.645 29.5165C131.685 29.8502 131.64 30.1886 131.514 30.4999C132.132 30.8591 132.675 31.3333 133.116 31.8972C133.59 32.5114 133.897 33.2388 134.007 34.008C134.007 34.1399 134.054 34.2659 134.084 34.3858C134.116 34.5067 134.167 34.6219 134.234 34.7276C134.467 35.1594 134.61 35.5671 134.138 36.5746C133.736 37.4155 133.073 38.1034 132.249 38.5355C132.124 38.6135 132.004 38.6854 131.902 38.7574C131.355 39.1076 130.786 39.4221 130.199 39.6989C130.199 41.0241 130.037 48.6399 129.039 51.8542C127.969 55.2963 127.204 56.4776 127.168 56.5256L126.804 57.0473ZM121.914 45.6536C122.255 46.1213 123.355 47.6205 124.233 48.6519C125.112 49.6834 126.475 53.8871 126.989 55.5721C127.572 54.308 128.063 53.0033 128.459 51.6683C129.499 48.3041 129.589 39.5909 129.589 39.501V39.3151L129.763 39.2311C130.379 38.9459 130.978 38.6235 131.556 38.2657C131.669 38.1877 131.795 38.1037 131.938 38.0198C132.661 37.6435 133.243 37.0444 133.6 36.3107C133.977 35.5012 133.863 35.2973 133.708 35.0095C133.617 34.8581 133.549 34.6945 133.504 34.5237C133.469 34.3918 133.445 34.2599 133.415 34.1159C133.327 33.4374 133.059 32.7952 132.638 32.257C132.193 31.6894 131.632 31.2234 130.994 30.8897L130.677 30.7458L130.874 30.452C131.023 30.1903 131.086 29.8881 131.054 29.5884C131 29.1507 130.456 28.9468 129.93 28.9888C129.404 29.0307 127.969 31.2495 127.336 32.3589C126.903 33.6841 126.558 35.0363 126.302 36.4067V36.4726L121.914 45.6536Z" fill="#1C1D21"/>
<path d="M68.2055 71.2235C68.2055 71.2235 62.3775 86.2992 61.3792 89.8133C60.381 93.3273 58.0199 100.457 57.0157 109.512C56.6789 113.196 56.6969 116.903 57.0695 120.582C55.4909 123.73 54.0939 126.965 52.8853 130.273C50.7214 136.12 43.3691 165.12 43.3691 165.12C43.3691 165.12 44.7021 167.129 47.7028 166.625L50.6915 166.121C51.4167 166.212 52.1528 166.155 52.8554 165.953C54.0509 165.624 56.6869 165.791 56.8543 164.622C57.0217 163.453 56.1848 163.117 55.1866 161.948C54.1884 160.778 52.688 157.096 52.688 157.096C52.688 157.096 61.0445 142.446 64.0452 137.109C67.0459 131.772 71.2182 121.752 71.3915 120.247C71.5649 118.741 79.8915 96.6375 79.8915 96.6375H81.7266L94.877 118.717C94.877 118.717 94.3749 127.574 95.8752 132.756C97.3756 137.937 100.86 157.498 100.86 157.498L100.526 161.012C100.821 161.711 101.045 162.439 101.195 163.183V165.018C101.195 165.018 101.691 166.217 105.027 166.217C106.521 166.217 111.524 165.713 112.355 165.546C113.186 165.378 119.528 165.21 119.683 164.376C119.839 163.543 120.018 162.871 119.02 162.535C118.022 162.199 110.855 158.859 110.855 158.859V155.861C110.146 155.335 109.574 154.646 109.187 153.852C108.858 152.851 109.522 125.943 109.187 121.266C108.852 116.589 109.354 116.589 108.021 112.409C106.688 108.229 101.41 78.8993 101.41 78.8993L98.7145 74.2398L70.3993 68.3931L68.2055 71.2235Z" fill="#1C1D21"/>
<path d="M46.7705 166.997C46.0742 167.023 45.3817 166.882 44.7506 166.586C44.1195 166.29 43.5681 165.847 43.1422 165.294L43.0645 165.18L43.1003 165.054C43.172 164.76 50.4765 135.97 52.6224 130.177C53.8263 126.888 55.2071 123.667 56.7588 120.528C56.3986 116.856 56.3845 113.157 56.717 109.482C57.4658 103.312 58.7784 97.2237 60.6382 91.2944C60.8056 90.6947 60.961 90.197 61.0925 89.7353C62.0848 86.2512 67.865 71.2774 67.9247 71.1455L67.9666 71.0735L70.2619 68.0752L70.4472 68.1112L98.894 73.9879L101.697 78.8572C101.751 79.1511 106.993 108.175 108.309 112.289C109.004 114.15 109.355 116.124 109.343 118.112C109.343 118.891 109.39 119.863 109.486 121.212C109.659 123.611 109.57 131.724 109.486 139.544C109.414 146.254 109.337 153.192 109.486 153.732C109.855 154.465 110.389 155.102 111.046 155.591L111.166 155.681V158.643C112.266 159.159 118.237 161.936 119.122 162.241C120.317 162.649 120.162 163.555 120.006 164.352V164.424C119.875 165.072 118.53 165.36 114.029 165.689C113.3 165.743 112.666 165.785 112.469 165.827C111.584 166.007 106.563 166.505 105.081 166.505C101.65 166.505 101.034 165.306 100.974 165.15V165.036V163.195C100.831 162.486 100.615 161.795 100.329 161.132L100.299 161.066L100.633 157.522C100.454 156.526 97.1008 137.859 95.6542 132.864C94.2077 127.868 94.5842 119.827 94.638 118.819L81.5414 96.9313H80.0889C77.6979 103.21 71.8221 119.077 71.7204 120.264C71.5531 121.794 67.3509 131.862 64.3383 137.241C61.5229 142.26 53.9076 155.651 53.0827 157.108C53.3577 157.774 54.6249 160.742 55.4737 161.738C55.7367 162.043 55.9877 162.295 56.2089 162.511C56.8485 163.147 57.3506 163.645 57.2071 164.652C57.0637 165.659 55.5753 165.851 54.2603 166.031C53.8351 166.065 53.4133 166.133 52.999 166.235C52.2684 166.44 51.5052 166.501 50.7515 166.415L47.7986 166.907C47.4591 166.966 47.1151 166.997 46.7705 166.997ZM43.716 165.048C44.1984 165.6 44.8213 166.011 45.5183 166.236C46.2152 166.461 46.96 166.492 47.6731 166.325L50.7156 165.815H50.7694C51.4509 165.896 52.1415 165.841 52.8017 165.653C53.2498 165.546 53.7055 165.474 54.1646 165.438C55.2047 165.312 56.5018 165.162 56.5855 164.562C56.6871 163.86 56.3583 163.531 55.7606 162.943C55.5275 162.709 55.2645 162.451 54.9895 162.127C53.9733 160.928 52.5029 157.33 52.4431 157.198L52.3833 157.066L52.461 156.94C52.5447 156.79 60.8295 142.23 63.7824 136.947C66.7352 131.664 70.9553 121.692 71.0928 120.198C71.2303 118.705 79.258 97.411 79.5987 96.5235L79.6764 96.3316H81.8821L95.1641 118.639V118.729C95.1641 118.813 94.6799 127.592 96.1503 132.666C97.6208 137.739 101.118 157.252 101.153 157.432V157.498L100.825 160.976C101.132 161.687 101.355 162.432 101.488 163.195V164.952C101.62 165.132 102.343 165.905 105.021 165.905C106.527 165.905 111.536 165.39 112.29 165.24C112.529 165.192 113.114 165.15 113.927 165.09C115.332 164.988 119.056 164.712 119.397 164.268V164.232C119.57 163.357 119.594 163.033 118.913 162.811C117.908 162.475 111.01 159.261 110.717 159.123L110.544 159.039V155.987C109.833 155.449 109.266 154.742 108.894 153.93C108.727 153.42 108.775 148.137 108.894 139.538C108.978 132.09 109.074 123.653 108.894 121.254C108.799 119.887 108.775 118.915 108.751 118.13C108.766 116.197 108.425 114.278 107.747 112.469C106.438 108.367 101.446 80.8062 101.124 79.0192L98.5174 74.5216L70.507 68.7468L68.4687 71.3974C68.128 72.2669 62.6287 86.545 61.6663 89.9152L61.212 91.4803C59.3634 97.3622 58.0588 103.402 57.3147 109.524C56.9837 113.186 56.9997 116.87 57.3626 120.528V120.618L57.3207 120.702C55.7598 123.84 54.3748 127.064 53.1724 130.357C51.1221 135.91 44.2719 162.895 43.716 165.048Z" fill="#1C1D21"/>
<path d="M119.983 46.0074C119.983 46.0074 120.527 44.2084 122.852 45.0479C125.177 45.8875 128.722 52.5858 127.903 56.1478C127.084 59.7098 124.914 60.9452 122.99 60.8073C121.065 60.6693 118.752 58.3426 119.296 58.0668C119.84 57.7909 119.983 46.0074 119.983 46.0074Z" fill="white"/>
<path d="M123.263 61.1192H122.964C121.207 60.9933 119.085 59.1343 118.93 58.3428C118.906 58.2534 118.909 58.159 118.939 58.0715C118.969 57.9839 119.024 57.9072 119.097 57.851C119.396 57.1674 119.623 51.2847 119.695 46.0136V45.9296C119.874 45.4301 120.235 45.0168 120.705 44.7722C121.058 44.6168 121.44 44.5366 121.826 44.5366C122.212 44.5366 122.593 44.6168 122.947 44.7722C125.523 45.6837 129.038 52.5679 128.195 56.2199C127.352 59.8719 125.158 61.1192 123.263 61.1192ZM119.527 58.2588C119.689 58.7566 121.476 60.3997 123.006 60.5076C124.71 60.6395 126.82 59.5301 127.615 56.082C128.41 52.6339 124.823 46.0615 122.749 45.3299C122.473 45.206 122.175 45.1384 121.872 45.1312C121.569 45.124 121.268 45.1773 120.986 45.288C120.666 45.4523 120.415 45.7269 120.281 46.0615C120.155 56.3579 119.755 57.953 119.527 58.2588Z" fill="#1C1D21"/>
<path d="M69.4309 44.358C69.4309 44.358 68.4745 44.358 67.1116 44.2261C65.7487 44.0942 63.83 46.4149 62.7361 47.7881C61.6422 49.1614 60.2794 49.9829 61.2358 52.8553C62.1921 55.7278 64.7864 59.4517 68.6119 59.7096C70.7739 59.9228 72.9329 59.2769 74.6253 57.9106L69.4309 44.358Z" fill="white"/>
<path d="M69.318 60.0339C69.0849 60.0339 68.8398 60.0339 68.5947 60.0339C64.8469 59.764 62.0554 56.2979 60.9555 52.9757C60.0888 50.3792 61.0631 49.2818 62.0016 48.2204C62.169 48.0285 62.3423 47.8306 62.5037 47.6207C64.016 45.7257 65.7555 43.7948 67.1422 43.9447C68.529 44.0946 69.4256 44.0766 69.4316 44.0766H69.6408L74.9787 58.031L74.8292 58.1689C73.2715 59.4278 71.3176 60.089 69.318 60.0339ZM66.9928 44.5204C65.7315 44.5204 63.7351 47.021 62.9759 47.9745C62.8026 48.1904 62.6233 48.3943 62.4439 48.5742C61.5055 49.6356 60.7643 50.4751 61.5174 52.7718C62.2706 55.0686 64.6676 59.1523 68.6366 59.4102C70.6414 59.5901 72.643 59.0316 74.2674 57.8391L69.2284 44.6463C68.8757 44.6463 68.0926 44.6103 67.0825 44.5084L66.9928 44.5204Z" fill="#1C1D21"/>
<path d="M86.9222 33.3962C86.9222 33.3962 84.7344 33.1204 80.0899 35.7289C75.4455 38.3375 65.475 46.4151 64.7876 47.7883C64.1002 49.1615 66.019 55.3262 68.4757 56.4236C69.9394 57.0783 71.591 57.1743 73.1202 56.6934L68.2067 71.2234C68.2067 71.2234 73.6701 70.9476 82.8216 72.5966C91.9732 74.2457 101.412 78.8992 101.412 78.8992C101.412 78.8992 102.099 78.7613 102.236 76.9802C102.332 75.6831 102.703 74.4215 103.324 73.2803C103.737 72.4587 108.925 54.7745 108.925 54.7745C108.925 54.7745 119.177 59.302 121.908 59.302C124.64 59.302 125.596 54.3667 124.503 50.6667C123.409 46.9668 121.089 45.8694 121.089 45.8694C119.003 45.172 117.06 44.1036 115.351 42.7151C112.751 40.5263 105.106 36.8203 105.106 36.8203C105.106 36.8203 94.1609 32.1669 86.9222 33.3962Z" fill="#EA525B"/>
<path d="M101.363 79.2113L101.267 79.1693C101.177 79.1213 91.7748 74.5098 82.7667 72.8907C73.7587 71.2716 68.2714 71.5235 68.2176 71.5235H67.7812L72.6588 57.1314C71.2135 57.4423 69.7072 57.287 68.3551 56.6877C66.5618 55.8961 65.3663 52.9277 65.0734 52.0342C64.5474 50.559 64.0871 48.5262 64.5235 47.6506C65.2528 46.1815 75.3487 38.0559 79.9454 35.4594C84.3029 33.0127 86.5206 33.0607 86.9091 33.0907C94.1478 31.8913 104.758 36.3529 105.206 36.5388C105.535 36.7007 112.935 40.2867 115.529 42.4815C117.208 43.8397 119.115 44.8874 121.16 45.5758C121.303 45.6357 123.659 46.7751 124.776 50.577C125.601 53.3655 125.273 56.7416 124.017 58.4327C123.782 58.7831 123.467 59.0717 123.098 59.2742C122.728 59.4767 122.316 59.5871 121.895 59.5961C119.367 59.5961 110.879 55.9561 109.103 55.1825C108.374 57.6711 103.969 72.6269 103.58 73.4064C102.976 74.5167 102.613 75.7431 102.516 77.0045C102.373 78.9174 101.614 79.1633 101.458 79.1933L101.363 79.2113ZM69.1321 70.9118C73.746 70.9768 78.3457 71.4403 82.8803 72.2971C91.3803 73.8262 100.215 77.9939 101.41 78.5636C101.542 78.4557 101.847 78.0899 101.936 76.9565C102.032 75.6206 102.416 74.3215 103.06 73.1486C103.383 72.489 107.197 59.6021 108.643 54.6908L108.739 54.3669L109.05 54.5049C109.151 54.5468 119.265 59.0024 121.907 59.0024C122.235 58.994 122.557 58.9055 122.843 58.7446C123.129 58.5837 123.372 58.3552 123.551 58.0789C124.705 56.5257 124.992 53.3775 124.214 50.7509C123.174 47.2189 120.981 46.1515 120.957 46.1395C118.848 45.4407 116.884 44.3638 115.159 42.9612C112.624 40.8144 105.057 37.1444 104.997 37.1024C104.937 37.0605 94.0821 32.497 87.0048 33.7023H86.9629H86.9211C86.8792 33.7023 84.7214 33.5044 80.2681 35.9931C75.5459 38.6436 65.713 46.6792 65.0914 47.9265C64.8582 48.3942 64.9838 49.9234 65.6891 51.8483C66.4781 54.0371 67.6079 55.6922 68.6778 56.154C70.0701 56.7736 71.6383 56.8694 73.0952 56.4238L73.6929 56.2019L68.7077 70.9178L69.1321 70.9118Z" fill="#1C1D21"/>
<path d="M110.305 55.4162L103.652 53.8331L103.796 53.2514L107.526 54.1389L104.776 52.142L105.129 51.6562L110.305 55.4162Z" fill="#1C1D21"/>
<path d="M78.1634 39.8721L77.4531 42.0996L78.0224 42.2823L78.7328 40.0548L78.1634 39.8721Z" fill="#1C1D21"/>
<path d="M76.7699 44.2472L72.834 56.5898L73.4033 56.7726L77.3392 44.4299L76.7699 44.2472Z" fill="#1C1D21"/>
</svg>
