<svg width="124" height="40" viewBox="0 0 124 40" fill="none" xmlns="http://www.w3.org/2000/svg">
<path d="M50.5487 19.2615H52.6338C53.3921 19.2615 54.066 19.1589 54.6557 18.9538C55.2455 18.7486 55.7088 18.4461 56.0458 18.0461C56.3828 17.6461 56.5513 17.1589 56.5513 16.5845C56.5513 16.123 56.4512 15.723 56.2512 15.3845C56.0616 15.0461 55.7931 14.764 55.4456 14.5384C55.1086 14.3025 54.6979 14.1281 54.2135 14.0153C53.729 13.9025 53.2025 13.8461 52.6338 13.8461H48.5742V24.6153H52.8866C53.7606 24.6153 54.5188 24.5127 55.1612 24.3076C55.8036 24.0922 56.2986 23.7692 56.6461 23.3384C57.0041 22.8974 57.1831 22.3179 57.1831 21.5999C57.1831 21.0461 57.062 20.5743 56.8198 20.1845C56.5776 19.7948 56.2512 19.4768 55.8405 19.2307C55.4298 18.9845 54.9664 18.8051 54.4504 18.6922C53.9449 18.5794 53.4236 18.523 52.8866 18.523H50.5487V19.9384H52.5864C52.8392 19.9384 53.0761 19.964 53.2973 20.0153C53.529 20.0563 53.7238 20.1281 53.8817 20.2307C54.0502 20.3333 54.1819 20.4666 54.2766 20.6307C54.3714 20.7845 54.4188 20.9794 54.4188 21.2153C54.4188 21.5538 54.3346 21.8256 54.1661 22.0307C54.0081 22.2358 53.7922 22.3845 53.5184 22.4768C53.2446 22.5589 52.934 22.5999 52.5864 22.5999H51.228V15.8615H52.3337C52.7971 15.8615 53.1551 15.9589 53.4078 16.1538C53.6606 16.3384 53.787 16.6102 53.787 16.9692C53.787 17.2051 53.729 17.4102 53.6132 17.5845C53.4974 17.7589 53.3289 17.8922 53.1077 17.9845C52.8971 18.0768 52.6391 18.123 52.3337 18.123H50.5487V19.2615Z" fill="#1C1D21"/>
<path d="M60.8327 24.6153H66.4087V22.4768H60.8327V24.6153ZM60.8327 15.9845H66.4087V13.8461H60.8327V15.9845ZM60.8327 20.0153H66.0928V17.8922H60.8327V20.0153ZM59.0793 13.8461V24.6153H61.6383V13.8461H59.0793Z" fill="#1C1D21"/>
<path d="M70.8718 19.2307C70.8718 18.7384 70.956 18.3025 71.1245 17.923C71.3035 17.5333 71.5457 17.1999 71.8511 16.923C72.1565 16.6461 72.5093 16.4358 72.9095 16.2922C73.3096 16.1486 73.7361 16.0768 74.189 16.0768C74.7155 16.0768 75.1789 16.1435 75.579 16.2768C75.9792 16.4102 76.332 16.5845 76.6374 16.7999C76.9533 17.0153 77.2324 17.2512 77.4746 17.5076V14.6768C77.0323 14.3384 76.5479 14.0768 76.0213 13.8922C75.5053 13.6974 74.8419 13.5999 74.031 13.5999C73.1359 13.5999 72.3197 13.7384 71.5826 14.0153C70.8454 14.282 70.2031 14.6615 69.6555 15.1538C69.1079 15.6461 68.6866 16.241 68.3918 16.9384C68.1074 17.6256 67.9653 18.3897 67.9653 19.2307C67.9653 20.0717 68.1074 20.841 68.3918 21.5384C68.6866 22.2256 69.1079 22.8153 69.6555 23.3076C70.2031 23.7897 70.8454 24.1692 71.5826 24.4461C72.3197 24.7127 73.1359 24.8461 74.031 24.8461C74.8419 24.8461 75.5053 24.7486 76.0213 24.5538C76.5479 24.3589 77.0323 24.1025 77.4746 23.7845V20.9538C77.2324 21.2102 76.9533 21.4461 76.6374 21.6615C76.332 21.8768 75.9792 22.0512 75.579 22.1845C75.1789 22.3179 74.7155 22.3845 74.189 22.3845C73.7361 22.3845 73.3096 22.3127 72.9095 22.1692C72.5093 22.0256 72.1565 21.8153 71.8511 21.5384C71.5457 21.2615 71.3035 20.9333 71.1245 20.5538C70.956 20.164 70.8718 19.723 70.8718 19.2307Z" fill="#1C1D21"/>
<path d="M78.0736 16.1845H81.0907V24.6153H83.776V16.1845H86.8089V13.8461H78.0736V16.1845Z" fill="#1C1D21"/>
<path d="M88.7762 20.1076H97.1324V17.7692H88.7762V20.1076ZM95.458 13.8461V24.6153H98.1118V13.8461H95.458ZM88.0338 13.8461V24.6153H90.6876V13.8461H88.0338Z" fill="#1C1D21"/>
<path d="M110.561 16.5538L110.656 13.3076L100.531 21.9076L100.452 25.1538L110.561 16.5538ZM103.011 13.8461H100.452V25.1538L103.011 22.5999V13.8461ZM110.656 13.3076L108.065 15.9692V24.6153H110.656V13.3076Z" fill="#1C1D21"/>
<path d="M112.978 13.8461V24.6153H115.742V13.8461H112.978ZM119.486 13.8461L114.952 18.9692L119.628 24.6153H122.866L118.143 18.8922L122.629 13.8461H119.486Z" fill="#1C1D21"/>
<path d="M20.3039 8.48636C18.9634 9.86987 19.3479 11.8567 22.3492 11.9399L23.225 11.9815C32.0472 12.6005 33.3716 18.5246 33.3716 18.5246C33.4359 18.0069 33.4662 17.4857 33.4624 16.9643C33.4624 13.4327 31.9457 10.598 29.4732 8.89205C30.1209 8.72823 30.6944 8.35932 31.1033 7.84334C31.5123 7.32737 31.7335 6.69362 31.7321 6.04181C31.7342 5.84269 31.7146 5.64392 31.6734 5.44888C31.6316 5.26036 31.5726 5.07585 31.4971 4.89756C31.4598 4.80843 31.417 4.72159 31.369 4.6375C31.1112 4.16591 30.7265 3.77154 30.2561 3.49667C29.7857 3.22179 29.2474 3.07677 28.6988 3.07715C28.1789 3.07921 27.6684 3.21161 27.2163 3.46159C26.7642 3.71157 26.3857 4.07071 26.1175 4.50443C25.8492 4.93815 25.7001 5.43184 25.6846 5.93795C25.669 6.44406 25.7875 6.94554 26.0287 7.39411C25.4858 7.27191 24.9341 7.19019 24.3785 7.14966C23.6402 7.06611 22.892 7.14262 22.1875 7.37372C21.4831 7.60481 20.8398 7.98476 20.3039 8.48636Z" fill="#FB666F"/>
<path d="M13.3452 22.259C5.73522 16.5377 8.37867 10.6084 8.37867 10.6084C5.40946 13.7551 4.64046 17.4323 5.70852 20.6258C5.12327 20.4035 4.4815 20.3639 3.87214 20.5126C3.26277 20.6613 2.71597 20.9909 2.30751 21.4557C1.89905 21.9206 1.64916 22.4977 1.59244 23.107C1.53573 23.7163 1.67502 24.3278 1.991 24.8566C2.30697 25.3854 2.78401 25.8054 3.35599 26.0584C3.92798 26.3114 4.56659 26.3848 5.18335 26.2686C5.80011 26.1523 6.36448 25.8521 6.79825 25.4096C7.23203 24.967 7.51373 24.404 7.60433 23.7985C7.97025 24.2094 8.36841 24.592 8.79522 24.9428C12.6029 28.0791 17.1688 25.1144 13.3452 22.259Z" fill="#EA525B"/>
<path d="M9.28131 8.98572C9.74682 9.13049 10.2409 9.16614 10.7232 9.08974C10.438 9.55505 10.1881 10.0401 9.97555 10.5409C8.08508 15.0243 12.384 18.3426 14.0021 13.9112C17.233 5.06924 23.8443 5.71418 23.8443 5.71418C19.8391 3.93019 16.0101 4.33068 13.2385 6.34873C13.2707 5.79853 13.1441 5.25054 12.8729 4.76689C12.6016 4.28324 12.1967 3.88329 11.704 3.61238C11.2112 3.34147 10.6504 3.21045 10.0851 3.23418C9.51977 3.25791 8.97261 3.43543 8.50562 3.74663C8.03864 4.05782 7.67052 4.49022 7.44302 4.9948C7.21552 5.49939 7.13774 6.05596 7.2185 6.60141C7.29926 7.14686 7.53532 7.65935 7.89992 8.08078C8.26453 8.50221 8.74308 8.8157 9.28131 8.98572Z" fill="#EA525B"/>
<path d="M21.2918 25.4422C13.3507 30.7214 8.37891 26.4408 8.37891 26.4408C10.515 30.1701 13.8794 32.0425 17.3399 31.9957C16.9837 32.4226 16.7572 32.9382 16.6861 33.484C16.6149 34.0298 16.702 34.584 16.9373 35.0842C17.1727 35.5843 17.547 36.0104 18.018 36.3141C18.489 36.6179 19.0378 36.7873 19.6025 36.8032C20.1671 36.8191 20.7251 36.6808 21.2133 36.404C21.7015 36.1272 22.1004 35.723 22.3651 35.2369C22.6297 34.7508 22.7494 34.2024 22.7108 33.6535C22.6721 33.1046 22.4765 32.5772 22.1462 32.1309C21.8573 31.7462 21.4783 31.4341 21.0408 31.2207C21.5486 31.0008 22.0395 30.7452 22.5093 30.4561C26.7442 27.9284 25.2543 22.8052 21.2918 25.4422Z" fill="#EA525B"/>
<path d="M37.461 22.2432C37.2104 21.5004 36.6682 20.8844 35.9528 20.5296C35.2373 20.1749 34.4068 20.1103 33.6427 20.35C33.1802 20.4999 32.761 20.7548 32.4198 21.0938C32.3676 20.5539 32.2747 20.0185 32.1421 19.4918C30.9672 14.7796 25.5041 14.5767 26.8552 19.0653C29.5574 28.0529 23.8379 31.3349 23.8379 31.3349C28.1475 30.4871 31.0099 27.9697 32.0353 24.7502C32.4335 25.3524 33.0432 25.7928 33.7504 25.9892C34.4577 26.1856 35.2142 26.1246 35.8786 25.8176C36.5431 25.5106 37.0701 24.9786 37.3613 24.3208C37.6525 23.6631 37.6879 22.9246 37.461 22.2432Z" fill="#FF8289"/>
</svg>
