<svg width="108" height="101" viewBox="0 0 108 101" fill="none" xmlns="http://www.w3.org/2000/svg">
<path d="M55.9193 16.1552C51.916 20.2872 53.0644 26.2211 62.0279 26.4696L64.6436 26.5939C90.992 28.4424 94.9474 46.1354 94.9474 46.1354C95.1395 44.5893 95.23 43.0327 95.2186 41.4753C95.2186 30.9278 90.6889 22.4619 83.3044 17.3668C85.239 16.8776 86.9517 15.7757 88.173 14.2347C89.3944 12.6937 90.055 10.801 90.051 8.85428C90.0574 8.25959 89.9985 7.66595 89.8755 7.08342C89.7508 6.52038 89.5747 5.96932 89.3492 5.43684C89.2378 5.17066 89.11 4.91129 88.9664 4.66015C88.1965 3.25171 87.0475 2.07389 85.6426 1.25294C84.2378 0.431996 82.63 -0.0011257 80.9917 2.19725e-06C79.439 0.00616893 77.9142 0.401587 76.5639 1.14818C75.2136 1.89477 74.0835 2.96739 73.2823 4.26273C72.4811 5.55808 72.0358 7.03252 71.9894 8.54407C71.9429 10.0556 72.2968 11.5534 73.017 12.8931C71.3957 12.5281 69.7481 12.284 68.0887 12.163C65.8835 11.9135 63.649 12.142 61.5451 12.8322C59.4412 13.5223 57.5201 14.6571 55.9193 16.1552Z" fill="#EEEEEE"/>
<path d="M35.1376 57.2879C12.4098 40.2007 20.3047 22.4922 20.3047 22.4922C11.4369 31.8901 9.14014 42.8725 12.33 52.4103C10.5821 51.7462 8.66542 51.628 6.84547 52.0721C5.02553 52.5162 3.39247 53.5006 2.17256 54.8889C0.952654 56.2772 0.206307 58.0007 0.0369331 59.8206C-0.132441 61.6404 0.283539 63.4665 1.22725 65.0459C2.17095 66.6252 3.59567 67.8795 5.30395 68.6351C7.01224 69.3907 8.91954 69.6101 10.7616 69.2629C12.6036 68.9157 14.2891 68.0191 15.5846 66.6974C16.8801 65.3756 17.7215 63.6941 17.992 61.8859C19.0849 63.1131 20.2741 64.2557 21.5488 65.3034C32.9207 74.6703 46.5574 65.816 35.1376 57.2879Z" fill="#EEEEEE"/>
<path d="M22.9995 17.6447C24.3898 18.0771 25.8653 18.1836 27.3058 17.9554C26.454 19.3451 25.7077 20.7936 25.0729 22.2893C19.4268 35.6795 32.2661 45.59 37.0987 32.3552C46.7481 5.94775 66.4934 7.87394 66.4934 7.87394C54.5314 2.54584 43.0957 3.74195 34.818 9.76907C34.9144 8.12586 34.5361 6.48923 33.726 5.04476C32.916 3.60028 31.7066 2.40577 30.2349 1.59668C28.7633 0.787588 27.0884 0.396288 25.4 0.467154C23.7117 0.538021 22.0775 1.06822 20.6828 1.99762C19.2881 2.92703 18.1887 4.21845 17.5092 5.72544C16.8298 7.23243 16.5975 8.8947 16.8387 10.5237C17.0799 12.1528 17.7849 13.6834 18.8738 14.942C19.9627 16.2007 21.392 17.1369 22.9995 17.6447Z" fill="#EEEEEE"/>
<path d="M58.8703 66.7953C35.1536 82.5621 20.3047 69.7778 20.3047 69.7778C26.6844 80.9155 36.7326 86.5077 47.0678 86.3679C46.0038 87.6431 45.3274 89.1828 45.1149 90.8129C44.9024 92.4429 45.1624 94.0984 45.8653 95.5921C46.5683 97.0858 47.6863 98.3582 49.0929 99.2655C50.4995 100.173 52.1387 100.679 53.8251 100.726C55.5115 100.774 57.1778 100.361 58.6359 99.534C60.0939 98.7073 61.2855 97.4999 62.0758 96.0482C62.8662 94.5965 63.2238 92.9584 63.1083 91.3191C62.9928 89.6798 62.4087 88.1047 61.4222 86.7718C60.5594 85.6227 59.4275 84.6908 58.1207 84.0533C59.6375 83.3965 61.1033 82.6334 62.5067 81.7699C75.1546 74.2204 70.7047 58.9196 58.8703 66.7953Z" fill="#EEEEEE"/>
<path d="M107.165 57.2414C106.417 55.0229 104.798 53.1829 102.661 52.1235C100.524 51.0641 98.0438 50.8712 95.7616 51.5871C94.3803 52.0347 93.1284 52.7961 92.1092 53.8084C91.9532 52.196 91.676 50.5969 91.2798 49.024C87.7709 34.9504 71.4547 34.3445 75.4899 47.7502C83.5603 74.5927 66.4785 84.3945 66.4785 84.3945C79.3497 81.8625 87.8985 74.3441 90.9608 64.7287C92.1503 66.5271 93.9711 67.8425 96.0834 68.4291C98.1957 69.0157 100.455 68.8336 102.439 67.9167C104.424 66.9997 105.998 65.4107 106.868 63.4463C107.737 61.4818 107.843 59.2763 107.165 57.2414Z" fill="#EEEEEE"/>
</svg>
