<svg width="20" height="20" viewBox="0 0 20 20" fill="none" xmlns="http://www.w3.org/2000/svg">
<path fill-rule="evenodd" clip-rule="evenodd" d="M6.81818 0C7.32026 0 7.72727 0.407014 7.72727 0.909091V1.81818H12.2727V0.909091C12.2727 0.407014 12.6797 0 13.1818 0C13.6839 0 14.0909 0.407014 14.0909 0.909091V1.81818H18.1818C19.186 1.81818 20 2.63221 20 3.63636V18.1818C20 19.186 19.186 20 18.1818 20H1.81818C0.814027 20 0 19.186 0 18.1818V3.63636C0 2.63221 0.814028 1.81818 1.81818 1.81818H5.90909V0.909091C5.90909 0.407014 6.3161 0 6.81818 0ZM5.90909 3.63636H1.81818V7.27273H18.1818V3.63636H14.0909V4.54545C14.0909 5.04753 13.6839 5.45455 13.1818 5.45455C12.6797 5.45455 12.2727 5.04753 12.2727 4.54545V3.63636H7.72727V4.54545C7.72727 5.04753 7.32026 5.45455 6.81818 5.45455C6.3161 5.45455 5.90909 5.04753 5.90909 4.54545V3.63636ZM18.1818 9.09091H14.0909V12.7273H18.1818V9.09091ZM18.1818 14.5455H14.0909V18.1818H18.1818V14.5455ZM12.2727 18.1818V14.5455H7.72727V18.1818H12.2727ZM5.90909 18.1818V14.5455H1.81818V18.1818H5.90909ZM1.81818 12.7273H5.90909V9.09091H1.81818V12.7273ZM7.72727 9.09091V12.7273H12.2727V9.09091H7.72727Z" fill="#EA525B"/>
</svg>
