<svg width="34" height="35" viewBox="0 0 34 35" fill="none" xmlns="http://www.w3.org/2000/svg">
<g clip-path="url(#clip0_4_69050)">
<path d="M17 30.0879C24.0416 30.0879 29.75 24.3795 29.75 17.3379C29.75 10.2963 24.0416 4.58789 17 4.58789C9.95837 4.58789 4.25 10.2963 4.25 17.3379C4.25 24.3795 9.95837 30.0879 17 30.0879Z" fill="url(#paint0_linear_4_69050)"/>
<path d="M10.0849 17.0615L22.378 12.3217C22.9486 12.1156 23.4469 12.4609 23.262 13.3236L23.2631 13.3226L21.17 23.1836C21.0148 23.8827 20.5994 24.0527 20.0182 23.7234L16.8307 21.3742L15.2933 22.8553C15.1233 23.0253 14.9798 23.1687 14.6505 23.1687L14.8768 19.9249L20.7843 14.588C21.0414 14.3617 20.7269 14.2342 20.388 14.4594L13.0875 19.0558L9.94039 18.0741C9.25721 17.8573 9.24233 17.3909 10.0849 17.0615Z" fill="#EA525B"/>
</g>
<defs>
<linearGradient id="paint0_linear_4_69050" x1="29.0417" y1="27.6973" x2="3.4154" y2="8.36971" gradientUnits="userSpaceOnUse">
<stop stop-color="#F37382"/>
<stop offset="1" stop-color="#FFC0C8" stop-opacity="0.22"/>
</linearGradient>
<clipPath id="clip0_4_69050">
<rect width="25.5" height="25.5" fill="white" transform="translate(4.25 4.58789)"/>
</clipPath>
</defs>
</svg>
