<svg width="24" height="24" viewBox="0 0 24 24" fill="none" xmlns="http://www.w3.org/2000/svg">
<path d="M13 6.5C13 8.433 11.433 10 9.5 10C7.567 10 6 8.433 6 6.5C6 4.567 7.567 3 9.5 3C11.433 3 13 4.567 13 6.5Z" stroke="#EA525B" stroke-width="2" stroke-linecap="round" stroke-linejoin="round"/>
<path d="M16.3037 3.5C17.3201 4.11245 17.9999 5.22685 17.9999 6.5C17.9999 7.77315 17.3201 8.88755 16.3037 9.5" stroke="#EA525B" stroke-width="2" stroke-linecap="round" stroke-linejoin="round"/>
<path d="M2 20.9999C2.00047 19.8679 2.0055 19.046 2.05845 18.3925C2.05845 12.5 17 12.5 16.9415 18.3924C16.9945 19.046 16.9995 19.8679 17 20.9999H2Z" stroke="#EA525B" stroke-width="2" stroke-linecap="round" stroke-linejoin="round"/>
<path d="M22 21.0001V20.4001C22 18.1599 22 17.0398 21.564 16.1841C21.1805 15.4315 20.5686 14.8195 19.8159 14.436" stroke="#EA525B" stroke-width="2" stroke-linecap="round" stroke-linejoin="round"/>
</svg>
