<svg width="34" height="34" viewBox="0 0 34 34" fill="none" xmlns="http://www.w3.org/2000/svg">
<path d="M26.9411 15.2704C26.9411 9.76805 22.3905 5.3418 17.0126 5.3418C11.5102 5.3418 7.08398 9.76829 7.08398 15.2704V15.6841C7.08398 15.7254 7.24946 17.1734 7.41494 17.7939C8.57327 22.6343 12.5031 26.3159 17.0126 29.7498C21.5218 26.3162 25.4519 22.6343 26.6102 17.7939C26.7757 17.1734 26.9411 15.7668 26.9411 15.6841V15.2704ZM17.0126 19.4073C14.7373 19.4073 12.8757 17.5457 12.8757 15.2704C12.8757 12.9951 14.7373 11.1335 17.0126 11.1335C19.2879 11.1335 21.1495 12.9951 21.1495 15.2704C21.1495 17.5457 19.2879 19.4073 17.0126 19.4073Z" fill="url(#paint0_linear_4_69022)"/>
<path d="M21.4497 15.2639C21.4497 17.8372 19.3636 19.9233 16.7903 19.9233C14.2169 19.9233 12.1309 17.8372 12.1309 15.2639C12.1309 12.6906 14.2169 10.6045 16.7903 10.6045C19.3636 10.6045 21.4497 12.6906 21.4497 15.2639Z" fill="#EA525B" stroke="white"/>
<defs>
<linearGradient id="paint0_linear_4_69022" x1="26.3896" y1="27.4615" x2="3.64563" y2="13.5061" gradientUnits="userSpaceOnUse">
<stop stop-color="#F37382"/>
<stop offset="1" stop-color="#FFC0C8" stop-opacity="0.22"/>
</linearGradient>
</defs>
</svg>
