<svg width="21" height="22" viewBox="0 0 21 22" fill="none" xmlns="http://www.w3.org/2000/svg">
<path d="M10.4993 0.666748C4.78501 0.666748 0.166016 5.28575 0.166016 11.0001C0.166016 16.7144 4.78501 21.3334 10.4993 21.3334C16.2137 21.3334 20.8327 16.7144 20.8327 11.0001C20.8327 5.28575 16.2137 0.666748 10.4993 0.666748ZM14.9427 15.4434C14.5397 15.8464 13.8887 15.8464 13.4857 15.4434L10.4993 12.4571L7.51301 15.4434C7.11001 15.8464 6.45901 15.8464 6.05601 15.4434C5.65301 15.0404 5.65301 14.3894 6.05601 13.9864L9.04235 11.0001L6.05601 8.01375C5.65301 7.61075 5.65301 6.95975 6.05601 6.55675C6.45901 6.15375 7.11001 6.15375 7.51301 6.55675L10.4993 9.54308L13.4857 6.55675C13.8887 6.15375 14.5397 6.15375 14.9427 6.55675C15.3457 6.95975 15.3457 7.61075 14.9427 8.01375L11.9563 11.0001L14.9427 13.9864C15.3353 14.3791 15.3353 15.0404 14.9427 15.4434Z" fill="#CBD0D2"/>
</svg>
