<svg width="20" height="20" viewBox="0 0 20 20" fill="none" xmlns="http://www.w3.org/2000/svg">
<path d="M8.18182 7.27273C8.6839 7.27273 9.09091 7.67974 9.09091 8.18182V14.0909C9.09091 14.593 8.6839 15 8.18182 15C7.67974 15 7.27273 14.593 7.27273 14.0909V8.18182C7.27273 7.67974 7.67974 7.27273 8.18182 7.27273Z" fill="#CBD0D2"/>
<path d="M12.7273 8.18182C12.7273 7.67974 12.3203 7.27273 11.8182 7.27273C11.3161 7.27273 10.9091 7.67974 10.9091 8.18182V14.0909C10.9091 14.593 11.3161 15 11.8182 15C12.3203 15 12.7273 14.593 12.7273 14.0909V8.18182Z" fill="#CBD0D2"/>
<path fill-rule="evenodd" clip-rule="evenodd" d="M7.85864 0C7.52664 0 7.22105 0.18098 7.06146 0.472106L5.82525 2.72727H0.909091C0.407014 2.72727 0 3.13429 0 3.63636C0 4.13844 0.407014 4.54545 0.909091 4.54545H2.27273V16.3636C2.27273 18.1818 4.54545 20 6.36364 20H13.6364C16.3636 20 17.7273 17.7273 17.7273 16.3636V4.54545H19.0909C19.593 4.54545 20 4.13844 20 3.63636C20 3.13429 19.593 2.72727 19.0909 2.72727H14.18L12.9723 0.478906C12.8139 0.183989 12.5062 0 12.1714 0H7.85864ZM12.1161 2.72727L11.6278 1.81818H8.39702L7.89869 2.72727H12.1161ZM4.09091 4.54545V15.1818C4.09091 16.8387 5.43405 18.1818 7.09091 18.1818H12.9091C14.5659 18.1818 15.9091 16.8387 15.9091 15.1818V4.54545H4.09091Z" fill="#CBD0D2"/>
</svg>
