<svg width="34" height="35" viewBox="0 0 34 35" fill="none" xmlns="http://www.w3.org/2000/svg">
<g clip-path="url(#clip0_4_69053)">
<path d="M17.003 5.33789H16.997C10.3805 5.33789 5 10.7199 5 17.3379C5 19.9629 5.846 22.3959 7.2845 24.3714L5.789 28.8294L10.4015 27.3549C12.299 28.6119 14.5625 29.3379 17.003 29.3379C23.6195 29.3379 29 23.9544 29 17.3379C29 10.7214 23.6195 5.33789 17.003 5.33789Z" fill="url(#paint0_linear_4_69053)"/>
<path d="M23.9848 22.2832C23.6953 23.1007 22.5463 23.7787 21.6298 23.9767C21.0028 24.1102 20.1838 24.2167 17.4268 23.0737C13.9003 21.6127 11.6293 18.0292 11.4523 17.7967C11.2828 17.5642 10.0273 15.8992 10.0273 14.1772C10.0273 12.4552 10.9018 11.6167 11.2543 11.2567C11.5438 10.9612 12.0223 10.8262 12.4813 10.8262C12.6298 10.8262 12.7633 10.8337 12.8833 10.8397C13.2358 10.8547 13.4128 10.8757 13.6453 11.4322C13.9348 12.1297 14.6398 13.8517 14.7238 14.0287C14.8093 14.2057 14.8948 14.4457 14.7748 14.6782C14.6623 14.9182 14.5633 15.0247 14.3863 15.2287C14.2093 15.4327 14.0413 15.5887 13.8643 15.8077C13.7023 15.9982 13.5193 16.2022 13.7233 16.5547C13.9273 16.8997 14.6323 18.0502 15.6703 18.9742C17.0098 20.1667 18.0958 20.5477 18.4843 20.7097C18.7738 20.8297 19.1188 20.8012 19.3303 20.5762C19.5988 20.2867 19.9303 19.8067 20.2678 19.3342C20.5078 18.9952 20.8108 18.9532 21.1288 19.0732C21.4528 19.1857 23.1673 20.0332 23.5198 20.2087C23.8723 20.3857 24.1048 20.4697 24.1903 20.6182C24.2743 20.7667 24.2743 21.4642 23.9848 22.2832Z" fill="#EA525B"/>
</g>
<defs>
<linearGradient id="paint0_linear_4_69053" x1="28.3333" y1="27.0879" x2="4.21449" y2="8.89725" gradientUnits="userSpaceOnUse">
<stop stop-color="#F37382"/>
<stop offset="1" stop-color="#FFC0C8" stop-opacity="0.22"/>
</linearGradient>
<clipPath id="clip0_4_69053">
<rect width="24" height="24" fill="white" transform="translate(5 5.33789)"/>
</clipPath>
</defs>
</svg>
