<svg width="36" height="36" viewBox="0 0 36 36" fill="none" xmlns="http://www.w3.org/2000/svg">
<circle opacity="0.15" cx="18" cy="18" r="18" fill="white"/>
<path fill-rule="evenodd" clip-rule="evenodd" d="M15.6136 10.5C15.9902 10.5 16.2955 10.8053 16.2955 11.1818V11.8636H19.7045V11.1818C19.7045 10.8053 20.0098 10.5 20.3864 10.5C20.7629 10.5 21.0682 10.8053 21.0682 11.1818V11.8636H24.1364C24.8895 11.8636 25.5 12.4742 25.5 13.2273V24.1364C25.5 24.8895 24.8895 25.5 24.1364 25.5H11.8636C11.1105 25.5 10.5 24.8895 10.5 24.1364V13.2273C10.5 12.4742 11.1105 11.8636 11.8636 11.8636H14.9318V11.1818C14.9318 10.8053 15.2371 10.5 15.6136 10.5ZM14.9318 13.2273H11.8636V15.9545H24.1364V13.2273H21.0682V13.9091C21.0682 14.2856 20.7629 14.5909 20.3864 14.5909C20.0098 14.5909 19.7045 14.2856 19.7045 13.9091V13.2273H16.2955V13.9091C16.2955 14.2856 15.9902 14.5909 15.6136 14.5909C15.2371 14.5909 14.9318 14.2856 14.9318 13.9091V13.2273ZM24.1364 17.3182H21.0682V20.0455H24.1364V17.3182ZM24.1364 21.4091H21.0682V24.1364H24.1364V21.4091ZM19.7045 24.1364V21.4091H16.2955V24.1364H19.7045ZM14.9318 24.1364V21.4091H11.8636V24.1364H14.9318ZM11.8636 20.0455H14.9318V17.3182H11.8636V20.0455ZM16.2955 17.3182V20.0455H19.7045V17.3182H16.2955Z" fill="#EA525B"/>
</svg>
