<svg width="36" height="36" viewBox="0 0 36 36" fill="none" xmlns="http://www.w3.org/2000/svg">
<path fill-rule="evenodd" clip-rule="evenodd" d="M10.75 7.80875C10.75 7.6658 10.75 7.59433 10.7052 7.55026C10.6605 7.50619 10.5891 7.50729 10.4462 7.50949C8.00008 7.54727 6.60782 7.73532 5.67157 8.67157C4.5 9.84315 4.5 11.7288 4.5 15.5V23.5C4.5 27.2712 4.5 29.1569 5.67157 30.3284C6.84315 31.5 8.72876 31.5 12.5 31.5H23.5C27.2712 31.5 29.1569 31.5 30.3284 30.3284C31.5 29.1569 31.5 27.2712 31.5 23.5V15.5C31.5 11.7288 31.5 9.84315 30.3284 8.67157C29.3922 7.73532 27.9999 7.54727 25.5538 7.50949C25.4109 7.50729 25.3395 7.50619 25.2948 7.55026C25.25 7.59433 25.25 7.6658 25.25 7.80875L25.25 11.25C25.25 12.3546 24.3546 13.25 23.25 13.25C22.1454 13.25 21.25 12.3546 21.25 11.25L21.25 7.8C21.25 7.65858 21.25 7.58787 21.2061 7.54393C21.1621 7.5 21.0914 7.5 20.95 7.5H15.05C14.9086 7.5 14.8379 7.5 14.7939 7.54393C14.75 7.58787 14.75 7.65858 14.75 7.8L14.75 11.25C14.75 12.3546 13.8546 13.25 12.75 13.25C11.6454 13.25 10.75 12.3546 10.75 11.25L10.75 7.80875Z" fill="#E1DCDC"/>
<path d="M12.75 5.25L12.75 11.25" stroke="#E1DCDC" stroke-width="2" stroke-linecap="round"/>
<path d="M23.25 5.25L23.25 11.25" stroke="#E1DCDC" stroke-width="2" stroke-linecap="round"/>
<circle cx="12" cy="18" r="1.5" fill="white"/>
<circle cx="18" cy="18" r="1.5" fill="white"/>
<circle cx="24" cy="18" r="1.5" fill="white"/>
<circle cx="12" cy="24" r="1.5" fill="white"/>
<circle cx="18" cy="24" r="1.5" fill="white"/>
<circle cx="24" cy="24" r="1.5" fill="white"/>
</svg>
