<svg width="12" height="12" viewBox="0 0 12 12" fill="none" xmlns="http://www.w3.org/2000/svg">
<path fill-rule="evenodd" clip-rule="evenodd" d="M0.195262 0.195262C0.455612 -0.0650874 0.877722 -0.0650874 1.13807 0.195262L6 5.05719L10.8619 0.195262C11.1223 -0.0650874 11.5444 -0.0650874 11.8047 0.195262C12.0651 0.455612 12.0651 0.877722 11.8047 1.13807L6.94281 6L11.8047 10.8619C12.0651 11.1223 12.0651 11.5444 11.8047 11.8047C11.5444 12.0651 11.1223 12.0651 10.8619 11.8047L6 6.94281L1.13807 11.8047C0.877722 12.0651 0.455612 12.0651 0.195262 11.8047C-0.0650874 11.5444 -0.0650874 11.1223 0.195262 10.8619L5.05719 6L0.195262 1.13807C-0.0650874 0.877722 -0.0650874 0.455612 0.195262 0.195262Z" fill="#F8F8F8"/>
</svg>
