<svg width="48" height="49" viewBox="0 0 48 49" fill="none" xmlns="http://www.w3.org/2000/svg">
<circle cx="24" cy="24.5137" r="24" fill="#EA525B"/>
<path fill-rule="evenodd" clip-rule="evenodd" d="M20.8182 14.5137C21.3203 14.5137 21.7273 14.9207 21.7273 15.4228V16.3319H26.2727V15.4228C26.2727 14.9207 26.6797 14.5137 27.1818 14.5137C27.6839 14.5137 28.0909 14.9207 28.0909 15.4228V16.3319H32.1818C33.186 16.3319 34 17.1459 34 18.15V32.6955C34 33.6996 33.186 34.5137 32.1818 34.5137H15.8182C14.814 34.5137 14 33.6996 14 32.6955V18.15C14 17.1459 14.814 16.3319 15.8182 16.3319H19.9091V15.4228C19.9091 14.9207 20.3161 14.5137 20.8182 14.5137ZM19.9091 18.15H15.8182V21.7864H32.1818V18.15H28.0909V19.0591C28.0909 19.5612 27.6839 19.9682 27.1818 19.9682C26.6797 19.9682 26.2727 19.5612 26.2727 19.0591V18.15H21.7273V19.0591C21.7273 19.5612 21.3203 19.9682 20.8182 19.9682C20.3161 19.9682 19.9091 19.5612 19.9091 19.0591V18.15ZM32.1818 23.6046H28.0909V27.2409H32.1818V23.6046ZM32.1818 29.0591H28.0909V32.6955H32.1818V29.0591ZM26.2727 32.6955V29.0591H21.7273V32.6955H26.2727ZM19.9091 32.6955V29.0591H15.8182V32.6955H19.9091ZM15.8182 27.2409H19.9091V23.6046H15.8182V27.2409ZM21.7273 23.6046V27.2409H26.2727V23.6046H21.7273Z" fill="white"/>
</svg>
