<svg width="14" height="15" viewBox="0 0 14 15" fill="none" xmlns="http://www.w3.org/2000/svg">
<path d="M0.751953 7.62793C0.751953 6.68512 0.751953 6.21372 1.04485 5.92082C1.33774 5.62793 1.80914 5.62793 2.75195 5.62793H11.2472C12.19 5.62793 12.6614 5.62793 12.9543 5.92082C13.2472 6.21372 13.2472 6.68512 13.2472 7.62793V11.9049C13.2472 12.8056 12.6342 13.5907 11.7604 13.8092C8.6346 14.5906 5.36455 14.5906 2.23879 13.8092C1.36497 13.5907 0.751953 12.8056 0.751953 11.9049V7.62793Z" fill="url(#paint0_linear_24_15350)"/>
<path d="M10.5129 5.62825V4.84729C10.5129 2.90641 8.93955 1.33301 6.99866 1.33301V1.33301C5.05778 1.33301 3.48438 2.90641 3.48438 4.84729V5.62825" stroke="#EA525B" stroke-width="2"/>
<ellipse cx="6.9994" cy="9.53261" rx="1.5619" ry="1.5619" fill="#EA525B"/>
<defs>
<linearGradient id="paint0_linear_24_15350" x1="12.9001" y1="14.1208" x2="3.10523" y2="4.27095" gradientUnits="userSpaceOnUse">
<stop stop-color="#F37382"/>
<stop offset="1" stop-color="#FFB0BA"/>
</linearGradient>
</defs>
</svg>
