<svg width="20" height="20" viewBox="0 0 20 20" fill="none" xmlns="http://www.w3.org/2000/svg">
<path fill-rule="evenodd" clip-rule="evenodd" d="M0.833984 9.54158C0.833984 4.73212 4.73286 0.833252 9.54232 0.833252C14.3518 0.833252 18.2507 4.73212 18.2507 9.54158C18.2507 11.6161 17.5252 13.5212 16.3142 15.0171L19.6813 18.3842C20.0392 18.7421 20.0392 19.3225 19.6813 19.6805C19.3233 20.0385 18.7429 20.0385 18.3849 19.6805L15.0178 16.3135C13.522 17.5245 11.6169 18.2499 9.54232 18.2499C4.73286 18.2499 0.833984 14.351 0.833984 9.54158ZM9.54232 2.66659C5.74538 2.66659 2.66732 5.74465 2.66732 9.54158C2.66732 13.3385 5.74538 16.4166 9.54232 16.4166C13.3393 16.4166 16.4173 13.3385 16.4173 9.54158C16.4173 5.74465 13.3393 2.66659 9.54232 2.66659Z" fill="white"/>
</svg>
