<svg width="34" height="35" viewBox="0 0 34 35" fill="none" xmlns="http://www.w3.org/2000/svg">
<path d="M7.92962 6.57493L9.20956 5.295C9.60008 4.90447 10.2332 4.90447 10.6238 5.295L14.8762 9.54745C15.2668 9.93797 15.2668 10.5711 14.8762 10.9617L13.135 12.7029C12.9051 12.9328 12.8481 13.284 12.9935 13.5748C14.6746 16.9371 17.4008 19.6633 20.763 21.3444C21.0538 21.4898 21.4051 21.4328 21.635 21.2029L23.3762 19.4617C23.7668 19.0711 24.3999 19.0711 24.7904 19.4617L29.0429 23.7141C29.4334 24.1046 29.4334 24.7378 29.0429 25.1283L27.763 26.4083C25.6516 28.5196 22.309 28.7572 19.9203 26.9656L15.3786 23.5593C13.635 22.2517 12.0862 20.7028 10.7786 18.9593L7.37226 14.4176C5.58072 12.0289 5.81827 8.68628 7.92962 6.57493Z" fill="url(#paint0_linear_4_69044)"/>
<path fill-rule="evenodd" clip-rule="evenodd" d="M29.042 25.1282C29.4325 24.7377 29.4325 24.1045 29.042 23.714L24.7895 19.4615C24.399 19.071 23.7658 19.071 23.3753 19.4615L21.9574 20.8794L27.6219 26.5439C27.6692 26.4995 27.7159 26.4543 27.762 26.4081L29.042 25.1282ZM7.79297 6.71495L13.4574 12.3794L14.8753 10.9615C15.2658 10.571 15.2658 9.93782 14.8753 9.5473L10.6229 5.29485C10.6227 5.29473 10.6226 5.29461 10.6225 5.2945C10.232 4.90432 9.59906 4.90444 9.20865 5.29485L7.92871 6.57478C7.88257 6.62092 7.83732 6.66766 7.79297 6.71495Z" fill="#EA525B"/>
<defs>
<linearGradient id="paint0_linear_4_69044" x1="29.0417" y1="27.6973" x2="3.4154" y2="8.36971" gradientUnits="userSpaceOnUse">
<stop stop-color="#F37382"/>
<stop offset="1" stop-color="#FFC0C8" stop-opacity="0.22"/>
</linearGradient>
</defs>
</svg>
