<svg width="16" height="16" viewBox="0 0 16 16" fill="none" xmlns="http://www.w3.org/2000/svg">
<path d="M9.992 2.246H11.5226H13.9714H14.5305L13.8628 1.57832V3.10896V5.55767V6.11684C13.8628 6.46571 14.17 6.80122 14.5305 6.78452C14.8927 6.76783 15.1982 6.49074 15.1982 6.11684V4.58621V2.13749V1.57832C15.1982 1.21779 14.8927 0.910645 14.5305 0.910645H12.9999H10.5512H9.992C9.64313 0.910645 9.30763 1.21776 9.32433 1.57832C9.33935 1.93885 9.61644 2.246 9.992 2.246V2.246Z" fill="#EA525B" stroke="#EA525B" stroke-width="0.2"/>
<path d="M7.47146 9.58208C7.72184 9.3317 7.97056 9.08298 8.22093 8.8326C8.82018 8.23336 9.41942 7.63411 10.0203 7.03322C10.7464 6.30713 11.4708 5.58271 12.1969 4.85661C12.8245 4.22901 13.4505 3.60306 14.0781 2.97543C14.3836 2.66996 14.6924 2.3695 14.9928 2.06071C14.9978 2.0557 15.0012 2.05236 15.0062 2.04735C15.2532 1.80031 15.2716 1.34629 15.0062 1.1026C14.7391 0.857225 14.3252 0.838866 14.0614 1.1026C13.811 1.35297 13.5623 1.6017 13.3119 1.85207C12.7127 2.45132 12.1135 3.05056 11.5126 3.65146C10.7865 4.37755 10.0604 5.10365 9.33596 5.82974C8.70836 6.45734 8.08241 7.08329 7.45478 7.71092C7.14931 8.01639 6.84052 8.31685 6.54005 8.62565C6.53505 8.63065 6.53171 8.63399 6.5267 8.639C6.27966 8.88604 6.2613 9.34007 6.5267 9.58376C6.79377 9.82579 7.20771 9.84582 7.47146 9.58209V9.58208Z" fill="#EA525B" stroke="#EA525B" stroke-width="0.2"/>
<path d="M13.8646 9.12292V10.6435V13.0038C13.8646 13.2124 13.8813 13.4311 13.8529 13.6397C13.8613 13.5813 13.8696 13.5212 13.8763 13.4628C13.8613 13.5596 13.8362 13.6514 13.7995 13.7432C13.8212 13.6898 13.8446 13.6364 13.8663 13.583C13.8262 13.6781 13.7745 13.7649 13.7127 13.8484C13.7478 13.8033 13.7828 13.7582 13.8179 13.7132C13.7545 13.7933 13.6827 13.8651 13.6026 13.9285C13.6476 13.8934 13.6927 13.8584 13.7378 13.8233C13.656 13.8851 13.5675 13.9368 13.4724 13.9769C13.5258 13.9552 13.5792 13.9318 13.6326 13.9101C13.5425 13.9469 13.449 13.9719 13.3522 13.9869C13.4106 13.9786 13.4707 13.9702 13.5291 13.9636C13.3922 13.9819 13.2504 13.9752 13.1118 13.9752H12.3373H9.75341H6.61205H3.90795C3.48396 13.9752 3.06001 13.9786 2.6377 13.9752C2.58095 13.9752 2.52419 13.9719 2.46744 13.9636C2.52587 13.9719 2.58596 13.9802 2.64438 13.9869C2.54757 13.9719 2.45576 13.9469 2.36396 13.9101C2.41737 13.9318 2.47078 13.9552 2.5242 13.9769C2.42905 13.9368 2.34226 13.8851 2.2588 13.8233C2.30387 13.8584 2.34893 13.8934 2.394 13.9285C2.31388 13.8651 2.2421 13.7933 2.17868 13.7132C2.21373 13.7582 2.24878 13.8033 2.28383 13.8484C2.22208 13.7666 2.17033 13.6781 2.13027 13.583C2.15197 13.6364 2.17534 13.6898 2.19704 13.7432C2.16032 13.6531 2.13528 13.5596 2.12026 13.4628C2.1286 13.5212 2.13695 13.5813 2.14362 13.6397C2.12526 13.5029 2.13194 13.361 2.13194 13.2224V12.4479V9.86403V6.72268V4.01858C2.13194 3.5946 2.1286 3.17064 2.13194 2.74834C2.13194 2.69158 2.13528 2.63483 2.14362 2.57808C2.13528 2.6365 2.12693 2.69659 2.12026 2.75502C2.13528 2.6582 2.16032 2.5664 2.19704 2.47459C2.17534 2.52801 2.15197 2.58142 2.13027 2.63483C2.17033 2.53969 2.22208 2.45289 2.28383 2.36943C2.24878 2.4145 2.21373 2.45957 2.17868 2.50464C2.2421 2.42452 2.31388 2.35274 2.394 2.28931C2.34893 2.32436 2.30387 2.35942 2.2588 2.39447C2.34059 2.33271 2.42905 2.28096 2.5242 2.24091C2.47078 2.26261 2.41737 2.28598 2.36396 2.30767C2.45409 2.27095 2.54757 2.24592 2.64438 2.23089C2.58596 2.23924 2.52587 2.24758 2.46744 2.25426C2.64438 2.23089 2.82798 2.24258 3.00491 2.24258H4.03816H6.4301H6.98426C7.33313 2.24258 7.66864 1.93546 7.65194 1.5749C7.63525 1.21269 7.35816 0.907227 6.98426 0.907227H5.6222H3.3471H2.69276C2.18032 0.907227 1.6829 1.08583 1.32237 1.45974C0.98351 1.81194 0.801596 2.27765 0.801596 2.76506V3.06885V4.48933V6.62256V9.02787V11.2646V12.8937C0.801596 13.2092 0.788243 13.5247 0.839987 13.8368C0.89841 14.189 1.09871 14.5378 1.35411 14.7832C1.4843 14.9084 1.63787 15.0252 1.80312 15.1037C2.03514 15.2122 2.23877 15.2689 2.4925 15.2957C2.58764 15.3057 2.68112 15.304 2.77626 15.304H3.9547H5.9544H8.33301H10.6448H12.4692H13.3456C13.8463 15.3023 14.3487 15.107 14.6926 14.7365C14.8128 14.6063 14.928 14.456 15.0031 14.2941C15.1099 14.0621 15.1633 13.8668 15.1917 13.6148C15.2 13.543 15.2 13.4712 15.2 13.3995V11.6318V9.48854V9.12132C15.2 8.77245 14.8929 8.43695 14.5324 8.45365C14.1702 8.47034 13.8647 8.74743 13.8647 9.123L13.8646 9.12292Z" fill="#EA525B" stroke="#EA525B" stroke-width="0.2"/>
</svg>
