<svg width="20" height="32" viewBox="0 0 20 32" fill="none" xmlns="http://www.w3.org/2000/svg">
<path d="M10.1291 0.401367C5.66427 0.401367 2.04492 4.02083 2.04492 8.48552C2.04492 12.9503 5.66427 16.57 10.1291 16.57C14.5939 16.57 18.2132 12.9503 18.2132 8.48552C18.2132 4.02083 14.5939 0.401367 10.1291 0.401367ZM10.1291 11.8276C8.28348 11.8276 6.78727 10.3312 6.78727 8.48564C6.78727 6.64004 8.28348 5.14383 10.1291 5.14383C11.9747 5.14383 13.4709 6.64004 13.4709 8.48564C13.4709 10.3312 11.9747 11.8276 10.1291 11.8276Z" fill="white"/>
<path d="M12.9849 23.0028C16.2213 22.3435 18.1607 20.8108 18.2634 20.7285C19.2104 19.969 19.3625 18.5856 18.603 17.6385C17.8436 16.6914 16.4603 16.5393 15.5131 17.2987C15.4931 17.3149 13.4245 18.9017 10.0211 18.904C6.6177 18.9017 4.50544 17.3149 4.48542 17.2987C3.53816 16.5393 2.15486 16.6914 1.39547 17.6385C0.63597 18.5856 0.788102 19.969 1.73514 20.7285C1.83914 20.812 3.85862 22.3845 7.18574 23.0283L2.54878 27.8743C1.7061 28.7483 1.73144 30.1398 2.60535 30.9825C3.0319 31.3937 3.58166 31.5982 4.13095 31.5982C4.70686 31.5982 5.28218 31.3731 5.71347 30.9258L10.0212 26.3369L14.764 30.9555C15.6233 31.8135 17.0148 31.8121 17.8726 30.9531C18.7303 30.094 18.7292 28.7022 17.8701 27.8445L12.9849 23.0028Z" fill="white"/>
</svg>
