<svg width="18" height="18" viewBox="0 0 18 18" fill="none" xmlns="http://www.w3.org/2000/svg">
<path d="M7.39995 6.60019C7.84178 6.60019 8.19995 6.95837 8.19995 7.40019V12.6002C8.19995 13.042 7.84178 13.4002 7.39995 13.4002C6.95812 13.4002 6.59995 13.042 6.59995 12.6002V7.40019C6.59995 6.95837 6.95812 6.60019 7.39995 6.60019Z" fill="#EA525B"/>
<path d="M11.4 7.40019C11.4 6.95837 11.0418 6.60019 10.6 6.60019C10.1581 6.60019 9.79995 6.95837 9.79995 7.40019V12.6002C9.79995 13.042 10.1581 13.4002 10.6 13.4002C11.0418 13.4002 11.4 13.042 11.4 12.6002V7.40019Z" fill="#EA525B"/>
<path fill-rule="evenodd" clip-rule="evenodd" d="M7.11555 0.200195C6.82339 0.200195 6.55447 0.359458 6.41404 0.615648L5.32617 2.6002H0.999951C0.558123 2.6002 0.199951 2.95837 0.199951 3.4002C0.199951 3.84202 0.558123 4.2002 0.999951 4.2002H2.19995V14.6002C2.19995 16.2002 4.19995 17.8002 5.79995 17.8002H12.2C14.6 17.8002 15.8 15.8002 15.8 14.6002V4.2002H17C17.4418 4.2002 17.8 3.84202 17.8 3.4002C17.8 2.95837 17.4418 2.6002 17 2.6002H12.6783L11.6156 0.621632C11.4761 0.362105 11.2054 0.200195 10.9108 0.200195H7.11555ZM10.8621 2.6002L10.4324 1.8002H7.58933L7.1508 2.6002H10.8621ZM3.79995 4.2002V13.2002C3.79995 14.857 5.1431 16.2002 6.79995 16.2002H11.1999C12.8568 16.2002 14.2 14.857 14.2 13.2002V4.2002H3.79995Z" fill="#EA525B"/>
</svg>
