<svg width="36" height="36" viewBox="0 0 36 36" fill="none" xmlns="http://www.w3.org/2000/svg">
<circle opacity="0.15" cx="18" cy="18" r="18" fill="white"/>
<path fill-rule="evenodd" clip-rule="evenodd" d="M9.75 16.125C9.75 13.4326 11.9326 11.25 14.625 11.25C15.9353 11.25 17.1247 11.7674 18 12.6073C18.8753 11.7674 20.0647 11.25 21.375 11.25C24.0674 11.25 26.25 13.4326 26.25 16.125C26.25 18.4756 24.873 20.6245 23.2673 22.2461C21.6543 23.8751 19.6816 25.1038 18.2365 25.5841C18.083 25.6351 17.917 25.6351 17.7635 25.5841C16.3184 25.1038 14.3457 23.8751 12.7327 22.2461C11.127 20.6245 9.75 18.4756 9.75 16.125ZM14.625 12.75C12.761 12.75 11.25 14.261 11.25 16.125C11.25 17.8994 12.3105 19.688 13.7986 21.1907C15.1834 22.5892 16.8276 23.6266 18 24.0758C19.1724 23.6266 20.8166 22.5892 22.2014 21.1907C23.6895 19.688 24.75 17.8994 24.75 16.125C24.75 14.2611 23.2389 12.75 21.375 12.75C20.2342 12.75 19.2253 13.3153 18.6132 14.1845C18.4727 14.384 18.244 14.5027 18 14.5027C17.756 14.5027 17.5273 14.384 17.3868 14.1845C16.7747 13.3153 15.7658 12.75 14.625 12.75Z" fill="#EA525B"/>
</svg>
