<svg width="586" height="586" viewBox="0 0 586 586" fill="none" xmlns="http://www.w3.org/2000/svg">
<path d="M52.469 345.424C52.469 345.424 55.2232 430.98 126.621 487.939C198.02 544.898 296.936 549.023 377.019 554.438C457.102 559.853 518.562 514.52 527.938 446.04C537.314 377.56 476.018 357.401 442.815 279.381C409.613 201.361 412.566 175.73 342.316 127.748C272.067 79.7664 162.11 109.172 104.494 191.376C46.8785 273.58 52.469 345.424 52.469 345.424Z" fill="#F8F8F8"/>
<path d="M181.661 268.388L191.037 284.796L182.833 288.312" stroke="#1C1D21" stroke-width="2"/>
<path d="M400.226 477.25C446.96 477.25 484.845 466.01 484.845 452.146C484.845 438.281 446.96 427.042 400.226 427.042C353.493 427.042 315.608 438.281 315.608 452.146C315.608 466.01 353.493 477.25 400.226 477.25Z" fill="#E7E7E7" stroke="#1C1D21" stroke-width="1.193" stroke-linecap="round" stroke-linejoin="round"/>
<path d="M400.226 438.586C440.25 438.586 473.769 446.79 482.571 457.912C483.961 456.303 484.762 454.27 484.845 452.146C484.845 438.269 446.954 427.03 400.226 427.03C353.499 427.03 315.596 438.269 315.596 452.146C315.678 454.27 316.48 456.303 317.87 457.912C326.672 446.837 360.191 438.586 400.226 438.586Z" fill="white" stroke="#1C1D21" stroke-width="1.193" stroke-linecap="round" stroke-linejoin="round"/>
<path d="M388.67 474.097C360.402 472.82 339.071 467.065 339.071 460.033C339.086 459.266 339.326 458.52 339.763 457.889" stroke="#CBD0D2" stroke-width="1.193" stroke-linecap="round" stroke-linejoin="round"/>
<path d="M454.267 453.189C459.107 455.24 461.873 457.584 461.873 460.08C461.873 467.968 434.378 474.355 400.472 474.355H399.007" stroke="#CBD0D2" stroke-width="1.193" stroke-linecap="round" stroke-linejoin="round"/>
<path d="M347.334 452.919C357.964 448.665 377.806 445.794 400.472 445.794C413.37 445.694 426.251 446.749 438.961 448.946" stroke="#CBD0D2" stroke-width="1.193" stroke-linecap="round" stroke-linejoin="round"/>
<path d="M387.862 464.979C380.701 463.983 375.907 462.166 375.907 460.08C375.907 456.928 386.912 454.373 400.519 454.373C414.126 454.373 425.073 456.928 425.073 460.08C425.073 462.787 416.986 465.049 406.133 465.635" stroke="#CBD0D2" stroke-width="1.193" stroke-linecap="round" stroke-linejoin="round"/>
<path d="M60.3813 351.225C97.2876 340.736 174.944 320.038 217.804 318.479C275.42 316.44 372.696 358.257 433.429 365.582C494.162 372.907 534.971 370.821 534.971 370.821" stroke="#1C1D21" stroke-width="1.193" stroke-linecap="round" stroke-linejoin="round"/>
<path d="M39.8481 357.214C39.8481 357.214 43.036 356.241 48.6264 354.612" stroke="#1C1D21" stroke-width="1.193" stroke-linecap="round" stroke-linejoin="round"/>
<path d="M518.575 291.968C497.301 287.295 475.536 285.237 453.764 285.839C408.735 287.351 360.004 293.305 299.751 301.075C239.499 308.845 153.696 265.915 95.3542 281.842C37.0121 297.77 41.4422 302.563 41.4422 302.563" stroke="#1C1D21" stroke-width="1.193" stroke-linecap="round" stroke-linejoin="round"/>
<path d="M535.171 296.281C535.171 296.281 532.897 295.531 528.783 294.441" stroke="#1C1D21" stroke-width="1.193" stroke-linecap="round" stroke-linejoin="round"/>
<path d="M427.135 185.586C426.487 182.952 424.974 180.611 422.839 178.938C420.704 177.264 418.069 176.355 415.357 176.355C412.644 176.355 410.01 177.264 407.874 178.938C405.739 180.611 404.227 182.952 403.578 185.586H427.135Z" stroke="#1C1D21" stroke-width="1.193" stroke-linecap="round" stroke-linejoin="round"/>
<path d="M546.152 185.586C545.44 182.584 543.821 179.874 541.514 177.825C539.207 175.777 536.325 174.488 533.26 174.136C534.224 169.044 534.051 163.803 532.753 158.786C531.454 153.77 529.063 149.103 525.751 145.118C522.438 141.134 518.286 137.93 513.591 135.738C508.896 133.546 503.774 132.418 498.593 132.436C490.318 132.436 482.308 135.347 475.963 140.659C469.619 145.97 465.345 153.344 463.89 161.49C460.562 158.888 456.57 157.273 452.37 156.832C448.169 156.39 443.929 157.138 440.133 158.991C436.337 160.843 433.138 163.726 430.902 167.31C428.666 170.893 427.483 175.033 427.487 179.257C427.494 181.408 427.806 183.546 428.413 185.609L546.152 185.586Z" stroke="#1C1D21" stroke-width="1.193" stroke-linecap="round" stroke-linejoin="round"/>
<path d="M217.488 213.878C217.166 212.534 216.4 211.338 215.314 210.482C214.229 209.626 212.887 209.161 211.505 209.161C210.123 209.161 208.781 209.626 207.696 210.482C206.61 211.338 205.845 212.534 205.522 213.878H217.488Z" stroke="#1C1D21" stroke-width="1.193" stroke-linecap="round" stroke-linejoin="round"/>
<path d="M277.905 213.878C277.549 212.345 276.729 210.96 275.556 209.912C274.383 208.863 272.916 208.201 271.353 208.018C271.917 205.653 271.994 203.199 271.578 200.804C271.162 198.409 270.262 196.124 268.934 194.088C267.606 192.053 265.878 190.309 263.853 188.963C261.829 187.617 259.552 186.698 257.161 186.261C254.77 185.824 252.315 185.879 249.946 186.422C247.576 186.966 245.343 187.986 243.381 189.421C241.419 190.855 239.77 192.675 238.534 194.768C237.298 196.861 236.502 199.184 236.193 201.595C234.504 200.275 232.478 199.456 230.347 199.232C228.215 199.008 226.063 199.387 224.136 200.327C222.209 201.266 220.585 202.728 219.449 204.546C218.313 206.364 217.711 208.464 217.711 210.608C217.716 211.703 217.874 212.791 218.18 213.843L277.905 213.878Z" stroke="#1C1D21" stroke-width="1.193" stroke-linecap="round" stroke-linejoin="round"/>
<path d="M271.822 232.794C271.62 231.945 271.138 231.189 270.453 230.649C269.768 230.108 268.921 229.813 268.048 229.813C267.176 229.813 266.328 230.108 265.644 230.649C264.959 231.189 264.477 231.945 264.274 232.794H271.822Z" stroke="#1C1D21" stroke-width="1.193" stroke-linecap="round" stroke-linejoin="round"/>
<path d="M309.959 232.794C309.731 231.831 309.212 230.962 308.471 230.305C307.731 229.648 306.805 229.237 305.822 229.126C305.949 228.441 306.012 227.747 306.01 227.051C305.975 224.256 304.904 221.572 303.006 219.52C301.108 217.468 298.516 216.192 295.731 215.94C292.947 215.688 290.168 216.477 287.932 218.155C285.696 219.833 284.161 222.28 283.624 225.024C282.558 224.191 281.279 223.675 279.933 223.534C278.588 223.394 277.23 223.634 276.014 224.228C274.798 224.822 273.774 225.745 273.058 226.893C272.341 228.041 271.962 229.367 271.963 230.719C271.964 231.41 272.063 232.096 272.256 232.759L309.959 232.794Z" stroke="#1C1D21" stroke-width="1.193" stroke-linecap="round" stroke-linejoin="round"/>
<path d="M190.626 367.809C190.213 367.814 189.808 367.705 189.454 367.492C188.941 367.176 188.57 366.675 188.417 366.092C188.265 365.509 188.342 364.89 188.634 364.363C189.208 363.355 334.114 205.334 400.414 147.391C400.645 147.205 400.938 147.114 401.234 147.135C401.53 147.157 401.806 147.29 402.008 147.508C402.201 147.741 402.296 148.039 402.274 148.34C402.252 148.641 402.115 148.923 401.891 149.125C335.919 206.823 193.158 365.664 192.583 366.66C192.388 367.008 192.104 367.297 191.76 367.499C191.416 367.701 191.025 367.808 190.626 367.809Z" fill="#1C1D21"/>
<path d="M198.631 336.364C198.631 336.364 205.815 328.699 210.128 328.699C214.441 328.699 222.586 335.884 222.106 339.716C221.625 343.548 214.441 340.197 214.441 340.197C214.441 340.197 207.725 349.303 201.022 347.861C194.318 346.42 198.631 336.364 198.631 336.364Z" fill="#EA525B" stroke="#1C1D21" stroke-width="1.193" stroke-linecap="round" stroke-linejoin="round"/>
<path d="M214.476 340.173C214.476 340.173 218.871 343.22 219.258 345.365C219.644 347.51 214.382 353.569 208.534 354.928C202.686 356.288 199.556 352.971 201.314 349.854C203.072 346.736 210.046 340.454 214.476 340.173Z" fill="#EA525B" stroke="#1C1D21" stroke-width="1.193" stroke-linecap="round" stroke-linejoin="round"/>
<path d="M394.964 312.408V153.848C394.964 153.848 391.765 165.322 391.765 166.154" stroke="#1C1D21" stroke-width="1.193" stroke-linecap="round" stroke-linejoin="round"/>
<path d="M461.088 320.765H339.505V418.181H461.088V320.765Z" fill="#EA525B" stroke="#1C1D21" stroke-width="1.193" stroke-linecap="round" stroke-linejoin="round"/>
<path d="M396.699 320.354V314.776C396.699 314.406 396.552 314.051 396.29 313.789C396.029 313.528 395.674 313.381 395.304 313.381C394.934 313.381 394.579 313.528 394.318 313.789C394.056 314.051 393.909 314.406 393.909 314.776V320.354H396.699Z" fill="#1C1D21"/>
<path d="M407.856 306.783V307.064C407.743 306.851 407.574 306.672 407.368 306.546C407.162 306.42 406.925 306.352 406.684 306.349C406.311 306.349 405.953 306.497 405.689 306.761C405.426 307.025 405.278 307.382 405.278 307.756V322.652C405.278 323.79 404.826 324.883 404.022 325.689C403.218 326.495 402.127 326.95 400.988 326.953C400.398 326.954 399.815 326.83 399.277 326.59C398.966 327.053 398.831 327.612 398.895 328.166C398.96 328.721 399.22 329.234 399.629 329.613C400.077 329.698 400.532 329.741 400.988 329.742C401.919 329.742 402.841 329.559 403.702 329.202C404.562 328.846 405.343 328.324 406.002 327.665C406.66 327.007 407.183 326.225 407.539 325.365C407.895 324.505 408.079 323.583 408.079 322.652V315.749H411.29L407.856 306.783Z" fill="#1C1D21"/>
<path d="M395.081 152.36C395.081 152.36 397.566 143.535 395.363 144.355C393.159 145.176 395.081 152.36 395.081 152.36Z" stroke="#1C1D21" stroke-width="1.193" stroke-linecap="round" stroke-linejoin="round"/>
<path d="M395.081 152.36C395.081 152.36 385.705 149.043 386.537 152.079C387.369 155.114 395.081 152.36 395.081 152.36Z" stroke="#1C1D21" stroke-width="1.193" stroke-linecap="round" stroke-linejoin="round"/>
<path d="M192.899 229.278C192.899 229.278 181.332 222.797 158.642 226.044C135.952 229.29 131.627 247.995 135.331 267.439C139.034 286.882 160.494 303.349 163.74 301.966C166.987 300.583 162.814 257.055 170.221 248.722C177.628 240.389 201.701 241.783 203.037 235.302C204.373 228.821 192.899 229.278 192.899 229.278Z" fill="#1C1D21" stroke="#1C1D21" stroke-width="1.193" stroke-linecap="round" stroke-linejoin="round"/>
<path d="M152.571 240.823L154.915 256.141C154.915 256.141 140.382 295.813 142.738 301.321C145.094 306.83 167.08 308.775 167.08 308.775C167.08 308.775 202.826 313.1 213.433 308.775C224.039 304.451 218.543 291.887 217.359 288.359C216.175 284.831 209.507 256.539 209.507 256.539C209.507 256.539 211.851 249.859 211.851 246.331C211.851 242.803 211.452 232.97 209.882 230.615C208.311 228.259 180.816 225.505 168.639 227.474C156.462 229.443 151 232.583 152.571 240.823Z" fill="#5F666E" stroke="#1C1D21" stroke-width="1.193" stroke-linecap="round" stroke-linejoin="round"/>
<path d="M158.865 258.508C158.865 258.508 158.466 292.672 160.435 299.352C162.404 306.032 170.256 313.885 186.747 311.916C203.237 309.947 204.819 294.242 204.819 294.242L203.647 257.723L158.865 258.508Z" fill="white" stroke="#1C1D21" stroke-width="1.193" stroke-linecap="round" stroke-linejoin="round"/>
<path d="M209.132 482.418C209.132 482.418 215.308 478.715 218.73 477.262C219.051 477.114 219.38 476.985 219.715 476.875C222.739 475.867 231.306 476.371 239.358 471.331C247.409 466.292 243.389 460.244 237.342 458.732C231.294 457.22 224.754 455.216 224.754 455.216L223.243 431.53C223.243 431.53 205.1 436.57 199.052 439.09C193.005 441.609 196.533 477.379 197.037 480.403C197.541 483.426 197.541 485.442 209.132 482.418Z" fill="#1C1D21" stroke="#1C1D21" stroke-width="1.193" stroke-linecap="round" stroke-linejoin="round"/>
<path d="M229.29 471.332C218.742 473.347 218.742 475.363 207.116 477.379C203.71 478.059 200.238 478.342 196.767 478.223C196.884 479.301 196.978 480.063 197.037 480.403C197.541 483.427 197.541 485.442 209.132 482.419C209.132 482.419 215.308 478.715 218.73 477.262C219.051 477.115 219.38 476.985 219.715 476.875C222.739 475.867 231.306 476.371 239.358 471.332C241.948 469.726 243.272 468.003 243.706 466.362C239.13 468.621 234.286 470.29 229.29 471.332Z" fill="white" stroke="#1C1D21" stroke-width="1.193" stroke-linecap="round" stroke-linejoin="round"/>
<path d="M233.486 458.428C233.486 458.428 233.099 485.923 232.314 491.806C231.529 497.69 232.701 505.167 241.69 505.167C250.679 505.167 268.4 499.307 274.682 498.135C280.964 496.963 291.184 494.197 295.496 484.387C299.809 474.578 273.51 475.738 273.51 475.738L275.08 455.708C275.08 455.708 248.019 461.17 233.486 458.428Z" fill="#1C1D21" stroke="#1C1D21" stroke-width="1.193" stroke-linecap="round" stroke-linejoin="round"/>
<path d="M295.543 484.352C296.024 483.399 296.141 482.303 295.871 481.27C293.179 484.925 289.529 487.764 285.323 489.474C275.947 493.4 258.215 497.678 244.866 499.694C238.76 500.585 234.892 499.588 232.466 498.252C233.334 502.061 235.877 505.191 241.725 505.191C250.761 505.191 268.435 499.331 274.717 498.159C280.999 496.987 291.23 494.162 295.543 484.352Z" fill="white" stroke="#1C1D21" stroke-width="1.193" stroke-linecap="round" stroke-linejoin="round"/>
<path d="M273.557 475.703C273.557 475.703 275.514 482.384 270.041 486.708" stroke="white" stroke-width="1.193" stroke-linecap="round" stroke-linejoin="round"/>
<path d="M230.744 443.895C230.744 443.895 230.134 455.838 230.802 458.229C233.31 467.3 234.107 465.179 252.965 464.78C271.822 464.382 279.44 456.857 281.409 452.146C283.378 447.434 281.409 437.215 280.624 433.675C279.839 430.136 273.592 428.987 271.189 429.362C268.787 429.737 231.916 439.969 230.744 443.895Z" fill="#5F666E" stroke="#1C1D21" stroke-width="1.193" stroke-linecap="round" stroke-linejoin="round"/>
<path d="M101.12 473.746V500.139C101.129 501.172 101.419 502.183 101.961 503.063C102.502 503.943 103.273 504.658 104.191 505.132L146.617 527.037C147.372 527.429 148.206 527.646 149.056 527.67C149.907 527.694 150.752 527.526 151.528 527.177L214.031 503.351C215.028 502.904 215.875 502.178 216.469 501.261C217.064 500.344 217.381 499.275 217.383 498.182V466.28L145.891 487.88L101.12 473.746Z" fill="#EA525B"/>
<path opacity="0.18" d="M149.043 486.931L145.902 487.88L101.12 473.746V500.139C101.129 501.172 101.419 502.183 101.961 503.063C102.502 503.943 103.273 504.658 104.191 505.132L146.617 527.036C147.367 527.429 148.197 527.645 149.043 527.669V486.931Z" fill="#1C1D21"/>
<path d="M101.12 473.746V500.139C101.129 501.172 101.419 502.183 101.961 503.063C102.502 503.943 103.273 504.658 104.191 505.132L146.617 527.037C147.372 527.429 148.206 527.646 149.056 527.67C149.907 527.694 150.752 527.526 151.528 527.177L214.031 503.351C215.028 502.904 215.875 502.178 216.469 501.261C217.064 500.344 217.381 499.275 217.383 498.182V466.28L145.891 487.88L101.12 473.746Z" stroke="#1C1D21" stroke-width="1.193" stroke-linecap="round" stroke-linejoin="round"/>
<path d="M166.424 429.186L97.862 451.22C97.3262 451.392 96.859 451.73 96.5281 452.185C96.1973 452.64 96.02 453.189 96.022 453.751V473.3C96.0324 473.793 96.1792 474.273 96.4461 474.686C96.713 475.1 97.0896 475.432 97.5339 475.644L145.328 498.393C145.65 498.547 145.999 498.634 146.356 498.651C146.712 498.667 147.068 498.611 147.402 498.487L219.164 471.636C219.672 471.448 220.11 471.109 220.42 470.665C220.73 470.221 220.897 469.693 220.899 469.151L221.027 450.81C221.024 450.203 220.814 449.615 220.433 449.142C220.052 448.67 219.522 448.34 218.93 448.208L167.784 429.116C167.332 429.026 166.864 429.05 166.424 429.186Z" fill="white"/>
<path d="M145.246 498.381C145.568 498.535 145.917 498.623 146.274 498.639C146.63 498.655 146.986 498.599 147.321 498.475L219.164 471.636C219.672 471.448 220.11 471.109 220.42 470.665C220.73 470.221 220.897 469.693 220.899 469.152L221.028 450.81C221.029 450.185 220.804 449.581 220.395 449.11L146.266 476.488L145.246 498.381Z" fill="#EA525B"/>
<path opacity="0.5" d="M145.246 498.381C145.568 498.535 145.917 498.623 146.274 498.639C146.63 498.655 146.986 498.599 147.321 498.475L219.164 471.636C219.672 471.448 220.11 471.109 220.42 470.665C220.73 470.221 220.897 469.693 220.899 469.152L221.028 450.81C221.029 450.185 220.804 449.581 220.395 449.11L146.266 476.488L145.246 498.381Z" fill="white"/>
<path d="M96.022 453.693V473.242C96.0323 473.734 96.1792 474.214 96.4461 474.628C96.713 475.042 97.0896 475.373 97.5339 475.586L145.328 498.393C145.647 498.547 145.994 498.635 146.348 498.651V476.488L96.104 453.236C96.0586 453.384 96.0311 453.538 96.022 453.693Z" fill="#EA525B"/>
<path d="M166.424 429.186L97.862 451.22C97.3262 451.392 96.859 451.73 96.5281 452.185C96.1973 452.64 96.02 453.189 96.022 453.751V473.3C96.0324 473.793 96.1792 474.273 96.4461 474.686C96.713 475.1 97.0896 475.432 97.5339 475.644L145.328 498.393C145.65 498.547 145.999 498.634 146.356 498.651C146.712 498.667 147.068 498.611 147.402 498.487L219.164 471.636C219.672 471.448 220.11 471.109 220.42 470.665C220.73 470.221 220.897 469.693 220.899 469.151L221.027 450.81C221.024 450.203 220.814 449.615 220.433 449.142C220.052 448.67 219.522 448.34 218.93 448.208L167.784 429.116C167.332 429.026 166.864 429.05 166.424 429.186V429.186Z" stroke="#1C1D21" stroke-width="1.193" stroke-linecap="round" stroke-linejoin="round"/>
<path d="M260.594 393.229C260.594 393.229 269.619 397.542 274.342 406.192C279.065 414.841 275.514 431.319 272.76 436.429C270.005 441.539 251.558 443.895 245.276 443.895C238.994 443.895 237.811 443.11 237.811 443.11C237.811 443.11 217.781 447.036 205.206 449.392C192.63 451.747 195.83 422.295 199.709 408.934C203.588 395.573 225.633 388.905 234.67 388.905C243.706 388.905 260.594 393.229 260.594 393.229Z" fill="#1C1D21" stroke="#1C1D21" stroke-width="1.193" stroke-linecap="round" stroke-linejoin="round"/>
<path d="M237.811 443.11C237.811 443.11 254.699 437.25 261.766 422.295" stroke="white" stroke-width="1.193" stroke-linecap="round" stroke-linejoin="round"/>
<path d="M253.914 434.46C259.356 432.178 264.295 428.844 268.446 424.65" stroke="white" stroke-width="1.193" stroke-linecap="round" stroke-linejoin="round"/>
<path d="M214.242 406.191C214.242 406.191 218.93 430.932 216.586 441.141C214.242 451.349 200.482 452.931 197.342 451.747C194.201 450.563 195.771 426.221 195.771 414.044C195.771 401.867 207.96 402.652 214.242 406.191Z" fill="#5F666E" stroke="#1C1D21" stroke-width="1.193" stroke-linecap="round" stroke-linejoin="round"/>
<path d="M114.083 340.196C114.083 340.196 111.34 356.288 113.297 364.164C114.294 368.55 116.164 372.691 118.794 376.341C118.794 376.341 108.973 390.874 110.942 403.039C112.911 415.204 117.974 416.786 117.974 416.786C117.974 416.786 113.661 439.183 121.49 447.036C129.319 454.888 146.629 463.526 165.873 459.998C185.117 456.47 198.08 455.673 202.006 448.993C205.932 442.313 203.576 412.86 203.576 412.86C203.576 412.86 202.791 380.267 202.006 360.226C201.221 340.184 198.49 324.093 189.044 316.241C179.597 308.388 137.98 320.565 125.416 328.804C112.852 337.044 114.083 340.196 114.083 340.196Z" fill="#EA525B"/>
<path opacity="0.3" d="M116.884 340.196C116.884 340.196 114.13 356.3 116.099 364.164C117.09 368.552 118.96 372.694 121.595 376.341C121.595 376.341 111.774 390.874 113.743 403.039C115.712 415.204 120.775 416.786 120.775 416.786C120.775 416.786 116.45 439.183 124.291 447.036C132.132 454.888 149.477 463.526 168.768 459.998C188.059 456.47 200.987 455.673 204.913 448.993C208.839 442.313 206.483 412.86 206.483 412.86C206.483 412.86 205.698 380.267 204.913 360.226C204.127 340.184 201.397 324.093 191.95 316.241C182.504 308.388 140.886 320.565 128.323 328.804C115.759 337.044 116.884 340.196 116.884 340.196Z" fill="#1C1D21"/>
<path d="M114.083 340.196C114.083 340.196 111.34 356.288 113.297 364.164C114.294 368.55 116.164 372.691 118.794 376.341C118.794 376.341 108.973 390.874 110.942 403.039C112.911 415.204 117.974 416.786 117.974 416.786C117.974 416.786 113.661 439.183 121.49 447.036C129.319 454.888 146.629 463.526 165.873 459.998C185.117 456.47 198.08 455.673 202.006 448.993C205.932 442.313 203.576 412.86 203.576 412.86C203.576 412.86 202.791 380.267 202.006 360.226C201.221 340.184 198.49 324.093 189.044 316.241C179.597 308.388 137.98 320.565 125.416 328.804C112.852 337.044 114.083 340.196 114.083 340.196Z" stroke="#1C1D21" stroke-width="1.193" stroke-linecap="round" stroke-linejoin="round"/>
<path d="M118.794 376.341C124.875 380.489 131.831 383.176 139.122 384.192C146.412 385.209 153.838 384.527 160.822 382.201" stroke="#1C1D21" stroke-width="1.193" stroke-linecap="round" stroke-linejoin="round"/>
<path d="M118.009 416.787C118.009 416.787 138.038 436.429 171.042 417.572" stroke="#1C1D21" stroke-width="1.193" stroke-linecap="round" stroke-linejoin="round"/>
<path d="M196.17 320.952C196.17 320.952 188.716 309.56 178.496 303.278C168.276 296.996 141.976 292.285 131.37 290.316C120.763 288.347 109.371 289.144 106.23 300.864C103.089 312.584 103.476 332.285 106.617 340.923C109.758 349.561 122.72 354.67 132.94 348.787C143.16 342.904 171.429 320.108 181.25 318.936C191.071 317.764 195.384 325.277 196.17 320.952Z" fill="#5F666E"/>
<path opacity="0.3" d="M174.382 318.784C180.371 316.287 165.393 320.776 164.397 319.276C163.4 317.776 174.874 310.298 177.371 309.302C179.867 308.306 162.897 311.799 163.4 309.302C163.904 306.806 179.867 306.302 168.885 303.806C157.904 301.309 122.005 294.816 114.973 292.32C114.436 292.145 113.926 291.892 113.462 291.57C111.643 292.508 110.053 293.834 108.803 295.454C107.554 297.074 106.676 298.949 106.23 300.946C103.089 312.724 103.476 332.367 106.617 341.005C109.36 348.529 119.509 353.369 128.885 350.615C133.21 347.099 137.206 342.482 143.969 338.227C157.412 329.718 168.393 321.233 174.382 318.784Z" fill="#1C1D21"/>
<path d="M196.17 320.952C196.17 320.952 188.716 309.56 178.496 303.278C168.276 296.996 141.976 292.285 131.37 290.316C120.763 288.347 109.371 289.144 106.23 300.864C103.089 312.584 103.476 332.285 106.617 340.923C109.758 349.561 122.72 354.67 132.94 348.787C143.16 342.904 171.429 320.108 181.25 318.936C191.071 317.764 195.384 325.277 196.17 320.952Z" stroke="#1C1D21" stroke-width="1.193" stroke-linecap="round" stroke-linejoin="round"/>
<path d="M238.596 374.372C238.596 374.372 247.632 375.544 253.516 377.888C259.399 380.232 263.337 394.777 260.981 396.734C258.625 398.691 253.949 396.347 253.949 396.347C250.255 397.647 246.438 398.566 242.557 399.09C237.811 399.511 232.701 377.126 238.596 374.372Z" fill="#EA525B" stroke="#1C1D21" stroke-width="1.193" stroke-linecap="round" stroke-linejoin="round"/>
<path d="M208.745 373.188C208.745 373.188 210.315 373.188 218.953 369.262C227.591 365.336 234.669 365.336 240.166 373.95C245.663 382.564 248.019 393.206 244.854 399.488C241.69 405.77 229.935 410.094 223.641 410.094C217.347 410.094 216.609 401.89 216.609 401.89C216.609 401.89 215.824 388.928 211.921 384.217C208.018 379.505 207.174 374.372 208.745 373.188Z" fill="#5F666E" stroke="#1C1D21" stroke-width="1.193" stroke-linecap="round" stroke-linejoin="round"/>
<path d="M179.679 320.952C188.317 317.811 199.322 319.78 203.248 330.774C207.174 341.767 210.702 373.974 210.702 373.974C210.702 373.974 220.523 375.146 224.45 379.482C228.376 383.818 230.31 394.8 229.56 400.297C228.809 405.793 215.027 416.002 199.322 416.4C183.617 416.798 172.214 409.368 166.717 389.292C161.22 369.215 163.4 338.708 163.4 338.708C163.4 338.708 165.393 329.719 168.393 327.715" fill="#EA525B"/>
<path opacity="0.3" d="M229.56 400.297C230.345 394.8 228.388 383.795 224.45 379.482C224.298 379.306 224.11 379.142 223.946 378.978C224.417 382.508 224.698 386.06 224.79 389.62C225.575 412.673 193.357 408.817 186.864 392.116C183.348 383.127 182.363 343.689 171.886 340.7C165.838 338.978 163.775 343.712 163.119 348.037C162.908 359.347 163.283 376.775 166.717 389.292C172.214 409.333 183.606 416.787 199.322 416.4C215.039 416.013 228.775 405.793 229.56 400.297Z" fill="#1C1D21"/>
<path d="M179.679 320.952C188.317 317.811 199.322 319.78 203.248 330.774C207.174 341.767 210.702 373.974 210.702 373.974C210.702 373.974 220.523 375.146 224.45 379.482C228.376 383.818 230.31 394.8 229.56 400.297C228.809 405.793 215.027 416.002 199.322 416.4C183.617 416.798 172.214 409.368 166.717 389.292C161.22 369.215 163.4 338.708 163.4 338.708C163.4 338.708 165.393 329.719 168.393 327.715" stroke="#1C1D21" stroke-width="1.193" stroke-linecap="round" stroke-linejoin="round"/>
<path d="M210.702 373.973C210.702 373.973 213.773 388.283 197.998 396.136" stroke="#1C1D21" stroke-width="1.193" stroke-linecap="round" stroke-linejoin="round"/>
<path d="M353.944 381.052L369.895 343.396H379.447V381.052H383.584V389.01H379.447V399.125H370.844V389.01H353.944V381.052ZM370.821 381.052V360.12L361.984 381.052H370.821Z" fill="white"/>
<path d="M386.854 356.769C386.854 347.861 391.542 342.705 400.144 342.705C408.747 342.705 413.435 347.803 413.435 356.769V385.74C413.435 394.659 408.747 399.804 400.144 399.804C391.542 399.804 386.854 394.706 386.854 385.74V356.769ZM395.608 386.303C395.608 390.288 397.355 391.8 400.144 391.8C402.933 391.8 404.68 390.288 404.68 386.303V356.218C404.68 352.233 402.922 350.721 400.144 350.721C397.366 350.721 395.608 352.233 395.608 356.218V386.303Z" fill="white"/>
<path d="M417.021 381.052L432.937 343.396H442.489V381.052H446.626V389.01H442.489V399.125H433.886V389.01H417.021V381.052ZM433.886 381.052V360.12L425.061 381.052H433.886Z" fill="white"/>
<path fill-rule="evenodd" clip-rule="evenodd" d="M199.24 265.921L190.195 262.528C189.737 263.554 189.755 264.688 190.245 265.704C190.736 266.72 191.663 267.545 192.844 268.015C193.426 268.243 194.056 268.369 194.698 268.386C195.339 268.403 195.978 268.311 196.576 268.115C197.174 267.919 197.719 267.624 198.176 267.247C198.634 266.87 198.996 266.419 199.24 265.921ZM175.8 265.554L169.34 269.56C168.807 268.688 168.638 267.648 168.869 266.656C169.1 265.665 169.713 264.8 170.579 264.244C171.008 263.986 171.484 263.815 171.981 263.741C172.478 263.667 172.985 263.692 173.471 263.815C173.958 263.937 174.415 264.154 174.815 264.453C175.215 264.751 175.55 265.126 175.8 265.554ZM178.565 278.373C179.031 277.715 179.292 276.934 179.316 276.129C179.329 275.025 178.905 273.962 178.136 273.17C177.367 272.378 176.316 271.923 175.213 271.904C174.407 271.904 173.619 272.142 172.947 272.588C172.275 273.033 171.75 273.667 171.436 274.409C171.122 275.151 171.034 275.97 171.182 276.762C171.331 277.554 171.71 278.285 172.271 278.863C172.833 279.442 173.552 279.842 174.34 280.013C175.128 280.185 175.948 280.121 176.7 279.83C177.451 279.538 178.1 279.031 178.565 278.373ZM179.489 294.515C179.838 294.075 180.029 293.485 180.019 292.876C180.022 292.265 179.826 291.677 179.473 291.239C179.12 290.802 178.638 290.55 178.132 290.539C177.883 290.544 177.637 290.609 177.408 290.73C177.18 290.85 176.973 291.024 176.8 291.241C176.627 291.458 176.491 291.714 176.4 291.994C176.309 292.275 176.264 292.574 176.269 292.876C176.263 293.489 176.458 294.081 176.811 294.521C177.165 294.962 177.648 295.215 178.156 295.227C178.661 295.212 179.14 294.956 179.489 294.515ZM195.724 276.159C195.694 276.962 195.429 277.738 194.961 278.392C194.493 279.046 193.844 279.548 193.094 279.835C192.343 280.123 191.525 280.185 190.74 280.012C189.955 279.838 189.238 279.439 188.678 278.862C188.118 278.285 187.741 277.557 187.591 276.767C187.442 275.977 187.528 275.161 187.839 274.42C188.15 273.679 188.671 273.046 189.339 272.598C190.007 272.151 190.791 271.909 191.595 271.904C192.706 271.924 193.764 272.383 194.537 273.18C195.311 273.977 195.737 275.048 195.724 276.159ZM183.727 273.215C183.48 272.721 182.879 272.521 182.385 272.767C181.891 273.014 181.691 273.615 181.938 274.109L185.917 282.068C186.484 283.201 185.868 284.569 184.644 284.895L181.168 285.822C180.634 285.964 180.317 286.512 180.459 287.046C180.602 287.58 181.15 287.897 181.683 287.755L185.159 286.828C187.607 286.175 188.839 283.44 187.706 281.174L183.727 273.215Z" fill="#1C1D21"/>
<path d="M175.8 278.971C175.793 279.201 175.719 279.424 175.586 279.613C175.453 279.801 175.267 279.945 175.053 280.029C174.838 280.112 174.603 280.13 174.378 280.081C174.153 280.032 173.948 279.918 173.787 279.753C173.627 279.587 173.519 279.379 173.476 279.152C173.434 278.926 173.459 278.692 173.549 278.48C173.638 278.268 173.788 278.087 173.98 277.96C174.172 277.832 174.397 277.764 174.628 277.764C174.943 277.77 175.243 277.9 175.463 278.126C175.683 278.352 175.804 278.656 175.8 278.971Z" fill="white"/>
<path d="M193.38 278.971C193.373 279.201 193.299 279.424 193.166 279.613C193.033 279.801 192.847 279.945 192.633 280.029C192.418 280.112 192.183 280.13 191.958 280.081C191.733 280.032 191.528 279.918 191.367 279.753C191.207 279.587 191.099 279.379 191.056 279.152C191.014 278.926 191.039 278.692 191.129 278.48C191.218 278.268 191.368 278.087 191.56 277.96C191.752 277.832 191.978 277.764 192.208 277.764C192.523 277.77 192.823 277.9 193.043 278.126C193.263 278.352 193.384 278.656 193.38 278.971Z" fill="white"/>
</svg>
