<svg width="206" height="68" viewBox="0 0 206 68" fill="none" xmlns="http://www.w3.org/2000/svg">
<path d="M83.9736 32.7446H87.4376C88.6972 32.7446 89.8168 32.5702 90.7965 32.2215C91.7762 31.8728 92.546 31.3584 93.1058 30.6784C93.6657 29.9984 93.9456 29.1702 93.9456 28.1938C93.9456 27.4092 93.7794 26.7292 93.447 26.1538C93.1321 25.5784 92.686 25.0989 92.1086 24.7154C91.5488 24.3143 90.8665 24.0179 90.0618 23.8261C89.257 23.6343 88.3823 23.5384 87.4376 23.5384H80.6934V41.8461H87.8574C89.3095 41.8461 90.5691 41.6718 91.6363 41.323C92.7035 40.9569 93.5257 40.4077 94.103 39.6754C94.6979 38.9256 94.9953 37.9405 94.9953 36.72C94.9953 35.7784 94.7941 34.9764 94.3917 34.3138C93.9893 33.6513 93.447 33.1107 92.7647 32.6923C92.0824 32.2738 91.3126 31.9687 90.4554 31.7769C89.6157 31.5851 88.7497 31.4892 87.8574 31.4892H83.9736V33.8954H87.3588C87.7787 33.8954 88.1723 33.9389 88.5397 34.0261C88.9246 34.0959 89.2483 34.2179 89.5107 34.3923C89.7906 34.5666 90.0093 34.7933 90.1667 35.0723C90.3242 35.3338 90.4029 35.6651 90.4029 36.0661C90.4029 36.6415 90.263 37.1036 89.983 37.4523C89.7206 37.801 89.362 38.0538 88.9071 38.2107C88.4523 38.3502 87.9362 38.42 87.3588 38.42H85.102V26.9646H86.939C87.7087 26.9646 88.3036 27.1302 88.7234 27.4615C89.1433 27.7754 89.3532 28.2374 89.3532 28.8477C89.3532 29.2487 89.257 29.5974 89.0646 29.8938C88.8721 30.1902 88.5922 30.4169 88.2248 30.5738C87.8749 30.7307 87.4463 30.8092 86.939 30.8092H83.9736V32.7446Z" fill="white"/>
<path d="M101.058 41.8461H110.322V38.2107H101.058V41.8461ZM101.058 27.1738H110.322V23.5384H101.058V27.1738ZM101.058 34.0261H109.797V30.4169H101.058V34.0261ZM98.1453 23.5384V41.8461H102.397V23.5384H98.1453Z" fill="white"/>
<path d="M117.736 32.6923C117.736 31.8554 117.876 31.1143 118.156 30.4692C118.453 29.8066 118.856 29.24 119.363 28.7692C119.87 28.2984 120.456 27.941 121.121 27.6969C121.786 27.4528 122.495 27.3307 123.247 27.3307C124.122 27.3307 124.891 27.4441 125.556 27.6707C126.221 27.8974 126.807 28.1938 127.314 28.56C127.839 28.9261 128.303 29.3271 128.705 29.763V24.9507C127.97 24.3754 127.166 23.9307 126.291 23.6169C125.434 23.2856 124.332 23.12 122.984 23.12C121.497 23.12 120.142 23.3554 118.917 23.8261C117.692 24.2795 116.625 24.9246 115.715 25.7615C114.806 26.5984 114.106 27.6097 113.616 28.7954C113.144 29.9636 112.908 31.2625 112.908 32.6923C112.908 34.122 113.144 35.4297 113.616 36.6154C114.106 37.7836 114.806 38.7861 115.715 39.623C116.625 40.4425 117.692 41.0877 118.917 41.5584C120.142 42.0118 121.497 42.2384 122.984 42.2384C124.332 42.2384 125.434 42.0728 126.291 41.7415C127.166 41.4102 127.97 40.9743 128.705 40.4338V35.6215C128.303 36.0574 127.839 36.4584 127.314 36.8246C126.807 37.1907 126.221 37.4872 125.556 37.7138C124.891 37.9405 124.122 38.0538 123.247 38.0538C122.495 38.0538 121.786 37.9318 121.121 37.6877C120.456 37.4436 119.87 37.0861 119.363 36.6154C118.856 36.1446 118.453 35.5866 118.156 34.9415C117.876 34.2789 117.736 33.5292 117.736 32.6923Z" fill="white"/>
<path d="M129.7 27.5138H134.713V41.8461H139.174V27.5138H144.212V23.5384H129.7V27.5138Z" fill="white"/>
<path d="M147.481 34.183H161.363V30.2077H147.481V34.183ZM158.581 23.5384V41.8461H162.99V23.5384H158.581ZM146.247 23.5384V41.8461H150.656V23.5384H146.247Z" fill="white"/>
<path d="M183.672 28.1415L183.829 22.623L167.008 37.243L166.877 42.7615L183.672 28.1415ZM171.128 23.5384H166.877V42.7615L171.128 38.42V23.5384ZM183.829 22.623L179.526 27.1477V41.8461H183.829V22.623Z" fill="white"/>
<path d="M187.686 23.5384V41.8461H192.278V23.5384H187.686ZM198.498 23.5384L190.966 32.2477L198.734 41.8461H204.114L196.267 32.1169L203.72 23.5384H198.498Z" fill="white"/>
<path d="M33.7297 14.4266C31.5029 16.7786 32.1416 20.1562 37.1276 20.2977L38.5826 20.3684C53.2388 21.4206 55.439 31.4916 55.439 31.4916C55.5458 30.6115 55.5962 29.7255 55.5898 28.839C55.5898 22.8353 53.0702 18.0165 48.9626 15.1163C50.0387 14.8378 50.9914 14.2106 51.6707 13.3335C52.3501 12.4563 52.7176 11.379 52.7153 10.2709C52.7189 9.93239 52.6862 9.59448 52.6177 9.2629C52.5484 8.94241 52.4504 8.62874 52.325 8.32565C52.263 8.17414 52.1919 8.02651 52.112 7.88355C51.6838 7.08185 51.0446 6.41143 50.2632 5.94414C49.4818 5.47685 48.5875 5.23032 47.6761 5.23096C46.8125 5.23447 45.9643 5.45954 45.2132 5.88451C44.4621 6.30948 43.8335 6.92002 43.3878 7.65734C42.9421 8.39466 42.6945 9.23393 42.6686 10.0943C42.6428 10.9547 42.8396 11.8072 43.2403 12.5698C42.3384 12.362 41.4219 12.2231 40.4989 12.1542C39.2722 12.0122 38.0293 12.1423 36.859 12.5351C35.6888 12.928 34.6201 13.5739 33.7297 14.4266Z" fill="#FB666F"/>
<path d="M22.1702 37.8397C9.5279 28.1135 13.9194 18.0337 13.9194 18.0337C8.98671 23.3831 7.70918 29.6344 9.48354 35.0633C8.51127 34.6853 7.44511 34.618 6.43277 34.8708C5.42044 35.1236 4.51205 35.6839 3.83348 36.4742C3.15491 37.2644 2.73976 38.2454 2.64554 39.2813C2.55133 40.3172 2.78272 41.3566 3.30765 42.2556C3.83259 43.1546 4.62508 43.8686 5.57531 44.2986C6.52554 44.7287 7.58647 44.8536 8.61108 44.656C9.6357 44.4584 10.5733 43.948 11.2939 43.1957C12.0145 42.4433 12.4825 41.4862 12.633 40.4569C13.2409 41.1555 13.9024 41.8058 14.6114 42.4022C20.937 47.7339 28.5224 42.694 22.1702 37.8397Z" fill="#EA525B"/>
<path d="M15.4179 15.2749C16.1912 15.5211 17.012 15.5816 17.8133 15.4518C17.3395 16.2428 16.9243 17.0673 16.5712 17.9187C13.4306 25.5405 20.5724 31.1816 23.2606 23.6483C28.628 8.61693 39.6113 9.71333 39.6113 9.71333C32.9574 6.68053 26.5963 7.36137 21.9919 10.7921C22.0455 9.85673 21.8351 8.92514 21.3845 8.10294C20.9339 7.28073 20.2612 6.6008 19.4426 6.14026C18.624 5.67972 17.6923 5.45699 16.7532 5.49733C15.814 5.53766 14.905 5.83946 14.1292 6.36848C13.3534 6.89751 12.7419 7.63259 12.3639 8.49039C11.986 9.34818 11.8568 10.2944 11.991 11.2216C12.1251 12.1489 12.5173 13.0201 13.123 13.7365C13.7287 14.453 14.5237 14.9859 15.4179 15.2749Z" fill="#EA525B"/>
<path d="M35.3719 43.2511C22.1796 52.2257 13.9199 44.9487 13.9199 44.9487C17.4686 51.2884 23.0579 54.4715 28.8068 54.3919C28.215 55.1178 27.8387 55.9942 27.7205 56.9221C27.6024 57.8499 27.7469 58.7922 28.138 59.6424C28.529 60.4927 29.1509 61.2169 29.9333 61.7334C30.7157 62.2498 31.6275 62.5378 32.5655 62.5648C33.5036 62.5918 34.4305 62.3567 35.2415 61.8862C36.0526 61.4156 36.7154 60.7284 37.155 59.902C37.5946 59.0757 37.7935 58.1433 37.7293 57.2102C37.665 56.2771 37.3402 55.3805 36.7914 54.6218C36.3115 53.9678 35.6819 53.4373 34.9549 53.0745C35.7987 52.7006 36.6141 52.2662 37.3947 51.7747C44.43 47.4775 41.9548 38.7682 35.3719 43.2511Z" fill="#EA525B"/>
<path d="M62.2355 37.8132C61.8192 36.5504 60.9184 35.5031 59.7298 34.9001C58.5413 34.297 57.1616 34.1873 55.8921 34.5947C55.1238 34.8495 54.4274 35.2829 53.8605 35.8591C53.7738 34.9413 53.6196 34.0311 53.3991 33.1358C51.4473 25.125 42.3715 24.7801 44.6161 32.4108C49.1052 47.6897 39.6035 53.269 39.6035 53.269C46.7631 51.8277 51.5183 47.5482 53.2217 42.075C53.8833 43.0987 54.8962 43.8474 56.0711 44.1814C57.2461 44.5153 58.5028 44.4116 59.6067 43.8897C60.7106 43.3677 61.5861 42.4633 62.0698 41.3451C62.5536 40.2269 62.6124 38.9715 62.2355 37.8132Z" fill="#FF8289"/>
</svg>
