<svg width="46" height="46" viewBox="0 0 46 46" fill="none" xmlns="http://www.w3.org/2000/svg">
<path d="M27.7812 0.213867C33.1449 0.213867 35.6897 0.705276 38.3326 2.11872C40.719 3.39497 42.6042 5.2802 43.8804 7.66659C45.2939 10.3095 45.7853 12.8542 45.7853 18.218V27.7812C45.7853 33.1449 45.2939 35.6897 43.8804 38.3326C42.6042 40.719 40.719 42.6042 38.3326 43.8804C35.6897 45.2939 33.1449 45.7853 27.7812 45.7853H18.218C12.8542 45.7853 10.3095 45.2939 7.66659 43.8804C5.2802 42.6042 3.39497 40.719 2.11872 38.3326C0.705276 35.6897 0.213867 33.1449 0.213867 27.7812V18.218C0.213867 12.8542 0.705276 10.3095 2.11872 7.66659C3.39497 5.2802 5.2802 3.39497 7.66659 2.11872C10.3095 0.705276 12.8542 0.213867 18.218 0.213867H27.7812ZM31.2421 25.9863L22.5378 36.732C21.8106 37.6297 20.4896 37.7591 19.6021 37.0195L14.841 33.0519L8.42342 39.4707C8.79809 39.7486 9.19725 40.0009 9.62035 40.2272C11.581 41.2758 13.4796 41.6424 18.218 41.6424H27.7812C32.5195 41.6424 34.4181 41.2758 36.3788 40.2272C38.0432 39.3371 39.3371 38.0432 40.2272 36.3788C40.5315 35.8098 40.7784 35.246 40.9755 34.6165L31.2421 25.9863ZM27.7812 4.35672H18.218C13.4796 4.35672 11.581 4.72336 9.62035 5.77195C7.95594 6.66209 6.66209 7.95594 5.77195 9.62035C4.72336 11.581 4.35672 13.4796 4.35672 18.218V27.7812C4.35672 32.4561 4.71361 34.3668 5.73019 36.3001L13.2491 28.7849C14.0067 28.0273 15.2169 27.9724 16.04 28.6583L20.6406 32.4922L29.386 21.6958C30.1289 20.7787 31.4867 20.6667 32.3698 21.4496L41.619 29.6492C41.6349 29.079 41.6424 28.4591 41.6424 27.7812V18.218C41.6424 13.4796 41.2758 11.581 40.2272 9.62035C39.3371 7.95594 38.0432 6.66209 36.3788 5.77195C34.4181 4.72336 32.5195 4.35672 27.7812 4.35672ZM15.7496 12.6424C17.4656 12.6424 18.8567 14.0336 18.8567 15.7496C18.8567 17.4656 17.4656 18.8567 15.7496 18.8567C14.0336 18.8567 12.6424 17.4656 12.6424 15.7496C12.6424 14.0336 14.0336 12.6424 15.7496 12.6424Z" fill="#CBD0D2"/>
</svg>
