<?xml version="1.0" standalone="no"?>
<!DOCTYPE svg PUBLIC "-//W3C//DTD SVG 20010904//EN"
 "http://www.w3.org/TR/2001/REC-SVG-20010904/DTD/svg10.dtd">
<svg version="1.0" xmlns="http://www.w3.org/2000/svg"
 width="300.000000pt" height="300.000000pt" viewBox="0 0 300.000000 300.000000"
 preserveAspectRatio="xMidYMid meet">
<metadata>
Created by potrace 1.14, written by Peter Selinger 2001-2017
</metadata>
<g transform="translate(0.000000,300.000000) scale(0.100000,-0.100000)"
fill="#000000" stroke="none">
<path d="M635 2985 c-199 -44 -352 -143 -488 -314 -33 -41 -99 -181 -120 -254
-21 -70 -22 -92 -24 -887 -1 -518 1 -835 8 -870 52 -284 243 -513 507 -610 43
-16 98 -32 123 -37 24 -4 420 -8 879 -8 l835 0 93 33 c131 45 223 103 318 197
120 119 187 245 220 410 19 100 19 1632 0 1716 -31 130 -70 219 -137 310 -109
148 -233 236 -424 300 l-70 24 -830 1 c-659 2 -842 -1 -890 -11z"/>
</g>
</svg>
